<?xml version="1.0" encoding="UTF-8" standalone="no"?>
<svg xmlns="http://www.w3.org/2000/svg" width="16px" height="16px" viewBox="0 0 16 16"
   version="1.1">
  <g stroke="none" fill="#bebebe" fill-rule="evenodd" transform="scale(0.53333 0.53333)">
    <path d="M 9.168308,4.8250951 12.519068,6.7015209 10.64259,3.3507605 12.519068,0 9.168308,1.8764259 5.8175475,0 7.6939734,3.3507605 5.8175475,6.7015209 Z"/>
    <path d="m 26.620779,19.328897 -3.35076,-1.876425 1.876426,3.35076 -1.876426,3.35076 3.35076,-1.876426 3.350761,1.876426 -1.876426,-3.35076 1.876426,-3.35076 z"/>
    <path d="M 29.97154,0 26.620779,1.8764259 23.270019,0 25.146445,3.3507605 23.270019,6.7015209 26.620779,4.8250951 29.97154,6.7015209 28.095114,3.3507605 Z"/>
    <path d="M19.0109884,7.69748101 C18.4434978,7.12999049 17.592262,7.12999049 17.0247715,7.69748101 L0.425617897,24.296579 C-0.141872632,24.8640695 -0.141872632,25.7153053 0.425617897,26.2827958 L3.68868844,29.5458108 C4.25617897,30.1133013 5.10741476,30.1133013 5.67490529,29.5458108 L22.2740589,12.9467684 C22.8415494,12.3792779 22.8415494,11.5280421 22.2740589,10.9605516 L19.0109884,7.69748101 Z M17.4503894,15.5004758 L14.4710641,12.5211505 L17.8760073,9.11620734 L20.8553326,12.0955326 L17.4503894,15.5004758 Z" fill-rule="nonzero"/>
  </g>
</svg>
