<?xml version="1.0" encoding="UTF-8" standalone="no"?>
<svg xmlns="http://www.w3.org/2000/svg" version="1.1" viewBox="0 0 16 16"
   height="16" width="16">
  <path d="M 8.0182309,0.00549748 C 5.7090024,-0.02334495 3.5019864,0.95512131 1.9742461,2.6850586 L 0.40648826,1.1156499 C 0.36621585,1.0757456 0.30602405,1.0636348 0.25342582,1.0848458 0.20082476,1.1060567 0.16592937,1.1565225 0.16468345,1.2131693 L 0.075,5.7195496 4.5830134,5.6356361 c 0.056711,-0.00125 0.1072302,-0.036105 0.1284675,-0.088644 0.021235,-0.052542 0.0091,-0.1126647 -0.030839,-0.1528915 L 3.1798633,3.8915966 c 1.2025832,-1.4170094 2.9789454,-2.219268 4.8383665,-2.1851521 1.6855525,-0.081795 3.3259662,0.5586681 4.5092242,1.7605262 1.183257,1.2018586 1.796929,2.8509165 1.686882,4.5329842 0.110047,1.6820677 -0.503625,3.3311261 -1.686882,4.5329841 -1.183258,1.201859 -2.8236717,1.842322 -4.5092242,1.760527 -2.611044,0.08844 -4.9741541,-1.535507 -5.8248847,-4.0029 C 2.1499684,10.145606 1.9991764,10.061258 1.852775,10.10006 l -1.09436539,0.302768 c -0.0757309,0.02133 -0.13974331,0.07208 -0.17771972,0.140924 -0.0379736,0.06884 -0.0467489,0.150003 -0.0243507,0.225349 1.04066481,3.209338 4.08436001,5.341385 7.45962131,5.225313 2.1373755,0.0818 4.2106995,-0.73781 5.7131965,-2.258472 1.502495,-1.520661 2.29571,-3.602256 2.18576,-5.7359854 C 16.024822,5.8666351 15.231909,3.78542 13.729921,2.2648347 12.227932,0.74424958 10.155221,-0.07564005 8.0182309,0.00549748 Z"
     style="fill:#bebebe;stroke:none" />
</svg>
