<?xml version="1.0" encoding="UTF-8"?>
<svg width="75px" height="75px" viewBox="0 0 75 75" version="1.1" xmlns="http://www.w3.org/2000/svg" xmlns:xlink="http://www.w3.org/1999/xlink">
    <!-- Generator: Sketch 52.5 (67469) - http://www.bohemiancoding.com/sketch -->
    <title>card-order-ordered</title>
    <desc>Created with Sketch.</desc>
    <g id="card-order-ordered" stroke="none" stroke-width="1" fill="none" fill-rule="evenodd">
        <path d="M1,29.28 L1,5.72 C1,3.66550073 2.66550073,2 4.72,2 L28.28,2 C30.3344993,2 32,3.66550073 32,5.72 L32,29.28 C32,31.3344993 30.3344993,33 28.28,33 L4.72,33 C2.66550073,33 1,31.3344993 1,29.28 Z M15.13,27 L19.126,27 L19.126,8.451 L15.94,8.451 L10.378,12.177 L11.971,14.985 L15.13,13.014 L15.13,27 Z" id="Combined-Shape" fill="#FFFFFF"></path>
        <path d="M1.36263021,70.1873786 L1.36263021,46.9124625 C1.36263021,44.8828233 3.00797782,43.2374757 5.03761697,43.2374757 L28.3125331,43.2374757 C30.3421722,43.2374757 31.9875199,44.8828233 31.9875199,46.9124625 L31.9875199,70.1873786 C31.9875199,72.2170178 30.3421722,73.8623654 28.3125331,73.8623654 L5.03761697,73.8623654 C3.00797782,73.8623654 1.36263021,72.2170178 1.36263021,70.1873786 Z M17.154,69.351 C21.474,69.351 24.309,67.029 24.309,63.816 C24.309,61.359 22.446,59.928 20.421,59.469 C22.446,58.875 23.904,57.336 23.904,55.203 C23.904,52.26 21.285,50.127 17.1,50.127 C13.806,50.127 11.592,51.558 10.053,53.421 L12.348,55.851 C13.59,54.555 14.967,53.691 16.722,53.691 C18.558,53.691 19.827,54.555 19.827,55.905 C19.827,57.228 18.612,57.984 16.587,57.984 L14.454,57.957 L14.454,61.359 L16.587,61.359 C19.098,61.332 20.205,62.061 20.205,63.492 C20.205,64.815 19.017,65.76 16.965,65.76 C15.102,65.76 13.347,64.977 12.051,63.573 L9.702,66.219 C11.268,68.028 13.806,69.351 17.154,69.351 Z" id="Combined-Shape" fill="#FFFFFF"></path>
        <path d="M43.0124801,28.5375287 L43.0124801,5.26261255 C43.0124801,3.23297341 44.6578278,1.58762579 46.6874669,1.58762579 L69.962383,1.58762579 C71.9920222,1.58762579 73.6373698,3.23297341 73.6373698,5.26261255 L73.6373698,28.5375287 C73.6373698,30.5671678 71.9920222,32.2125154 69.962383,32.2125154 L46.6874669,32.2125154 C44.6578278,32.2125154 43.0124801,30.5671678 43.0124801,28.5375287 Z M52.188,26 L66.201,26 L66.201,22.409 L58.344,22.409 L61.719,19.79 C64.959,17.441 66.039,15.524 66.039,13.04 C66.039,9.557 63.177,7.127 59.235,7.127 C56.238,7.127 53.889,8.423 52.053,10.745 L54.591,13.202 C55.941,11.663 57.318,10.745 59.127,10.745 C60.639,10.745 61.935,11.663 61.935,13.202 C61.935,14.498 61.233,15.713 59.019,17.468 L52.188,22.76 L52.188,26 Z" id="Combined-Shape" fill="#FFFFFF"></path>
        <path d="M43.0124801,70.1873786 L43.0124801,46.9124625 C43.0124801,44.8828233 44.6578278,43.2374757 46.6874669,43.2374757 L69.962383,43.2374757 C71.9920222,43.2374757 73.6373698,44.8828233 73.6373698,46.9124625 L73.6373698,70.1873786 C73.6373698,72.2170178 71.9920222,73.8623654 69.962383,73.8623654 L46.6874669,73.8623654 C44.6578278,73.8623654 43.0124801,72.2170178 43.0124801,70.1873786 Z M60.098,69 L64.094,69 L64.094,65.22 L66.551,65.22 L66.551,61.872 L64.094,61.872 L64.094,50.478 L59.261,50.478 L50.675,62.142 L51.053,65.22 L60.098,65.22 L60.098,69 Z M54.86,61.872 L60.098,54.69 L60.098,61.872 L54.86,61.872 Z" id="Combined-Shape" fill="#FFFFFF"></path>
    </g>
</svg>