<?xml version="1.0" encoding="UTF-8"?>
<svg width="75px" height="75px" viewBox="0 0 75 75" version="1.1" xmlns="http://www.w3.org/2000/svg" xmlns:xlink="http://www.w3.org/1999/xlink">
    <!-- Generator: Sketch 52.5 (67469) - http://www.bohemiancoding.com/sketch -->
    <title>card-order-a-z</title>
    <desc>Created with Sketch.</desc>
    <g id="card-order-a-z" stroke="none" stroke-width="1" fill="none" fill-rule="evenodd">
        <g id="sort-by-alphabet" transform="translate(5.000000, 2.000000)" fill="#FFFFFF">
            <path d="M26.5759757,56.5718608 L18.9915529,56.5718608 L18.9915529,1.28570172 C18.9915529,0.910939934 18.8733965,0.602320859 18.6362535,0.361533244 C18.399249,0.120886359 18.0966635,0 17.7276669,0 L10.1432441,0 C9.77480089,0 9.47138523,0.120323443 9.23465738,0.361392515 C8.99820624,0.602743046 8.87935807,0.910939934 8.87935807,1.28556099 L8.87935807,56.5717201 L1.29479691,56.5717201 C0.715913608,56.5717201 0.320905999,56.839387 0.110050799,57.3750022 C-0.100942757,57.8845825 -0.00838230494,58.3530699 0.386348591,58.781731 L13.0267304,71.6394519 C13.3167255,71.8796766 13.6190343,72 13.9353171,72 C14.2776109,72 14.5806115,71.8796766 14.8439038,71.6394519 L27.444854,58.8221203 C27.7085614,58.5013985 27.84,58.1788472 27.84,57.8589698 C27.84,57.4823786 27.7218436,57.1751668 27.4847007,56.932409 C27.2475578,56.692325 26.9451106,56.5718608 26.5759757,56.5718608 Z" id="Path"></path>
            <path d="M56.4692562,67.440301 L46.2770218,67.440301 C45.7016863,67.440301 45.2907323,67.467061 45.0450236,67.5198803 L44.4691122,67.59988 L44.4691122,67.5198803 L44.9213775,67.0796722 C45.3313239,66.6006551 45.6199273,66.2536164 45.7844528,66.0416384 L60.9478628,44.8394934 L60.9478628,41.28 L37.6464126,41.28 L37.6464126,50.439608 L42.5782921,50.439608 L42.5782921,45.839699 L52.1124243,45.839699 C52.6049933,45.839699 53.016811,45.7993489 53.3438468,45.7199097 C53.4261816,45.7199097 53.5291,45.7131847 53.6523142,45.6995946 C53.7750966,45.6876857 53.8646285,45.6794195 53.9188945,45.6794195 L53.9188945,45.7992088 L53.4666292,46.1598376 C53.2213523,46.3995563 52.9321732,46.7585039 52.6036979,47.2394825 L37.44,68.4002966 L37.44,72 L61.44,72 L61.44,62.6801126 L56.4682486,62.6801126 L56.4682486,67.440301 L56.4692562,67.440301 Z" id="Path"></path>
            <path d="M61.5838429,26.4800146 L52.6012921,0 L46.2748778,0 L37.2928742,26.4800146 L34.56,26.4800146 L34.56,30.72 L45.7673968,30.72 L45.7673968,26.4800146 L42.8389167,26.4800146 L44.674466,20.7202247 L54.1649082,20.7202247 L55.9999103,26.4800146 L53.0722509,26.4800146 L53.0722509,30.72 L64.32,30.72 L64.32,26.4800146 L61.5838429,26.4800146 Z M45.9631395,16.3198249 L48.8139244,7.59986282 C48.9178827,7.27973439 49.0162328,6.89291838 49.1070596,6.43983509 C49.1973393,5.9864716 49.2432998,5.74648035 49.2432998,5.71986136 L49.360253,4.92017075 L49.5166009,4.92017075 C49.5166009,5.02678682 49.5427273,5.29339706 49.5934754,5.71986136 L50.0630663,7.59972272 L52.8745932,16.3196848 L45.9631395,16.3196848 L45.9631395,16.3198249 Z" id="Shape" fill-rule="nonzero"></path>
        </g>
    </g>
</svg>