<?xml version="1.0" encoding="UTF-8"?>
<svg width="75px" height="75px" viewBox="0 0 75 75" version="1.1" xmlns="http://www.w3.org/2000/svg" xmlns:xlink="http://www.w3.org/1999/xlink">
    <!-- Generator: Sketch 52.5 (67469) - http://www.bohemiancoding.com/sketch -->
    <title>card-order-random</title>
    <desc>Created with Sketch.</desc>
    <g id="card-order-random" stroke="none" stroke-width="1" fill="none" fill-rule="evenodd">
        <path d="M7.1149464,29.4911042 L2.73740847,8.89640747 C2.39292911,7.27575946 3.4274682,5.68270897 5.0481162,5.3382296 L25.8455464,0.917599338 C27.4661944,0.573119969 29.0592449,1.60765906 29.4037243,3.22830707 L33.7812622,23.8230038 C34.1257416,25.4436518 33.0912025,27.0367023 31.4705545,27.3811817 L10.6731243,31.8018119 C9.05247627,32.1462913 7.45942577,31.1117522 7.1149464,29.4911042 Z M18.3152789,24.6645148 L21.7896591,23.9260125 L18.3616112,7.79831488 L15.5914972,8.38712079 L11.4441389,12.654661 L13.3481435,14.8017145 L15.7305207,12.5041839 L18.3152789,24.6645148 Z" id="Combined-Shape" fill="#FFFFFF"></path>
        <path d="M9.7238583,61.1218644 L9.7238583,40.0670699 C9.7238583,38.4102157 11.0670041,37.0670699 12.7238583,37.0670699 L33.9859155,37.0670699 C35.6427697,37.0670699 36.9859155,38.4102157 36.9859155,40.0670699 L36.9859155,61.1218644 C36.9859155,62.7787187 35.6427697,64.1218644 33.9859155,64.1218644 L12.7238583,64.1218644 C11.0670041,64.1218644 9.7238583,62.7787187 9.7238583,61.1218644 Z M24.248,59.312 C28.088,59.312 30.608,57.248 30.608,54.392 C30.608,52.208 28.952,50.936 27.152,50.528 C28.952,50 30.248,48.632 30.248,46.736 C30.248,44.12 27.92,42.224 24.2,42.224 C21.272,42.224 19.304,43.496 17.936,45.152 L19.976,47.312 C21.08,46.16 22.304,45.392 23.864,45.392 C25.496,45.392 26.624,46.16 26.624,47.36 C26.624,48.536 25.544,49.208 23.744,49.208 L21.848,49.184 L21.848,52.208 L23.744,52.208 C25.976,52.184 26.96,52.832 26.96,54.104 C26.96,55.28 25.904,56.12 24.08,56.12 C22.424,56.12 20.864,55.424 19.712,54.176 L17.624,56.528 C19.016,58.136 21.272,59.312 24.248,59.312 Z" id="Combined-Shape" fill="#FFFFFF"></path>
        <path d="M40.3225627,26.6504446 L44.7001007,6.05574784 C45.04458,4.43509983 46.6376305,3.40056074 48.2582785,3.74504011 L69.0557088,8.16567037 C70.6763568,8.51014974 71.7108959,10.1032002 71.3664165,11.7238482 L66.9888786,32.318545 C66.6443992,33.939193 65.0513487,34.9737321 63.4307007,34.6292527 L42.6332705,30.2086225 C41.0126225,29.8641431 39.9780834,28.2710926 40.3225627,26.6504446 Z M48.4043477,26.3896299 L60.5881543,28.9793779 L61.2518084,25.8571308 L54.4204255,24.4050755 L57.8388868,22.751683 C61.0900715,21.3080965 62.3833747,19.8409282 62.8424437,17.6811783 C63.4861383,14.6528333 61.44682,12.0111071 58.0193908,11.2825846 C55.4136056,10.7287078 53.1317192,11.4214143 51.1062526,13.100999 L52.8588744,15.7063222 C54.3170747,14.6177103 55.6839833,14.0740257 57.2568447,14.4083477 C58.5714751,14.6877811 59.5286451,15.7254638 59.244222,17.0635697 C59.0047077,18.1903957 58.169799,19.1170582 55.9204622,20.2337983 L49.0031334,23.5725648 L48.4043477,26.3896299 Z" id="Combined-Shape" fill="#FFFFFF"></path>
        <path d="M43.9419259,70.9316661 L41.7411006,49.992212 C41.5679121,48.3444341 42.763303,46.8682493 44.4110809,46.6950609 L65.5566623,44.4725707 C67.2044401,44.2993823 68.6806249,45.4947732 68.8538134,47.142551 L71.0546387,68.0820052 C71.2278271,69.729783 70.0324362,71.2059678 68.3846584,71.3791562 L47.239077,73.6016464 C45.5912991,73.7748348 44.1151143,72.5794439 43.9419259,70.9316661 Z M57.932393,67.2207786 L61.4649347,66.8494935 L61.1137191,63.5078999 L63.2857549,63.2796098 L62.9746782,60.3199126 L60.8026424,60.5482028 L59.7439781,50.475685 L55.471512,50.9247393 L48.965072,62.0337035 L49.5852213,64.7195939 L57.5811773,63.879185 L57.932393,67.2207786 Z M52.6396067,61.4061724 L56.6027909,54.5704601 L57.2701006,60.9194879 L52.6396067,61.4061724 Z" id="Combined-Shape" fill="#FFFFFF"></path>
    </g>
</svg>