<?xml version="1.0" encoding="UTF-8"?>
<svg width="75px" height="75px" viewBox="0 0 75 75" version="1.1" xmlns="http://www.w3.org/2000/svg" xmlns:xlink="http://www.w3.org/1999/xlink">
    <!-- Generator: Sketch 52.5 (67469) - http://www.bohemiancoding.com/sketch -->
    <title>card-order-z-a</title>
    <desc>Created with Sketch.</desc>
    <g id="card-order-z-a" stroke="none" stroke-width="1" fill="none" fill-rule="evenodd">
        <g id="sort-reverse-alphabetical-order" transform="translate(5.000000, 2.000000)" fill="#FFFFFF">
            <path d="M26.6055374,56.5718608 L19.012678,56.5718608 L19.012678,1.28570172 C19.012678,0.910939934 18.8943902,0.602320859 18.6569835,0.361533244 C18.4197153,0.120886359 18.1167932,0 17.7473862,0 L10.1545269,0 C9.78567386,0 9.4819207,0.120323443 9.24492953,0.361392515 C9.00821537,0.602743046 8.889235,0.910939934 8.889235,1.28556099 L8.889235,56.5717201 L1.29623718,56.5717201 C0.716709952,56.5717201 0.321262958,56.839387 0.110173214,57.3750022 C-0.10105504,57.8845825 -0.00839162897,58.3530699 0.386778345,58.781731 L13.0412207,71.6394519 C13.3315383,71.8796766 13.6341834,72 13.950818,72 C14.2934926,72 14.5968302,71.8796766 14.8604154,71.6394519 L27.4753822,58.8221203 C27.7393829,58.5013985 27.8709677,58.1788472 27.8709677,57.8589698 C27.8709677,57.4823786 27.7526799,57.1751668 27.5152732,56.932409 C27.2778665,56.692325 26.9750829,56.5718608 26.6055374,56.5718608 Z" id="Path"></path>
            <path d="M62.2561637,67.6721869 L53.1430574,40.6451613 L46.7243019,40.6451613 L37.6116121,67.6726159 L34.8387097,67.6726159 L34.8387097,72 L46.20983,72 L46.20983,67.6721869 L43.2381891,67.6721869 L45.1003915,61.7937623 L54.7293575,61.7937623 L56.5911435,67.6721869 L53.6203353,67.6721869 L53.6203353,72 L65.0322581,72 L65.0322581,67.6721869 L62.2561637,67.6721869 Z M46.4074583,57.3030807 L49.2998536,48.4029372 C49.4053294,48.0764851 49.505115,47.6815397 49.5972675,47.2192447 C49.6888649,46.7568067 49.7354963,46.5117174 49.7354963,46.4846919 L49.8541565,45.6674893 L50.0127865,45.6674893 C50.0127865,45.7771646 50.0392942,46.0491365 50.0907831,46.4846919 L50.5672282,48.4029372 L53.4197925,57.3030807 L46.4074583,57.3030807 Z" id="Shape" fill-rule="nonzero"></path>
            <path d="M61.5483871,21.8423962 L56.7374615,21.8423962 L56.7374615,26.7007903 L46.8740681,26.7007903 C46.3167379,26.7007903 45.9196001,26.7146612 45.6822367,26.741974 L45.1244886,26.8640953 L45.1244886,26.741974 L45.5621621,26.3332826 C45.9592999,25.8439397 46.238174,25.49016 46.3973913,25.2720864 L61.071571,3.6336069 L61.071571,0 L38.5223336,0 L38.5223336,9.35028157 L43.2945344,9.35028157 L43.2945344,4.65490641 L52.5205014,4.65490641 C52.9977354,4.65490641 53.395709,4.61372268 53.71289,4.53207019 C53.792429,4.53207019 53.8920268,4.52520624 54.0112657,4.51147833 C54.1303653,4.49803641 54.2168691,4.49088646 54.2695237,4.49088646 L54.2695237,4.61315068 L53.8319895,4.98037234 C53.594069,5.22532979 53.315195,5.59283745 52.9967604,6.08289534 L38.3225806,27.6801911 L38.3225806,31.3548387 L61.5483871,31.3548387 L61.5483871,21.8423962 Z" id="Path"></path>
        </g>
    </g>
</svg>