<?xml version="1.0" encoding="UTF-8"?>
<svg width="75px" height="75px" viewBox="0 0 75 75" version="1.1" xmlns="http://www.w3.org/2000/svg" xmlns:xlink="http://www.w3.org/1999/xlink">
    <!-- Generator: Sketch 52.5 (67469) - http://www.bohemiancoding.com/sketch -->
    <title>image-filter-corduroy</title>
    <desc>Created with Sketch.</desc>
    <g id="image-filter-corduroy" stroke="none" stroke-width="1" fill="none" fill-rule="evenodd">
        <g id="noun_plaid_160788_000000" transform="translate(2.000000, 2.000000)" fill="#FFFFFF">
            <path d="M63.2208395,8.77769136 L63.2208395,1 L59.3320371,1 L59.3320371,8.77769136 L53.4988334,8.77769136 L53.4988334,8.6431373 L45.855781,1 L44.4208129,1 L52.1984178,8.77769136 L50.7533388,8.77769136 L42.9757339,1 L41.5407658,1 L49.3183707,8.77769136 L47.8732917,8.77769136 L40.0956868,1 L39.8880247,1 L39.8880247,2.2273197 L46.4383236,8.77769136 L44.9932446,8.77769136 L39.8888025,3.67241475 L39.8888025,5.10739881 L43.5590542,8.77769136 L42.1139752,8.77769136 L39.8888025,6.55327163 L39.8888025,7.98825569 L40.6790071,8.77846913 L39.8888025,8.77846913 L39.8888025,9.43412851 L39.8888025,10.8691126 L39.8888025,12.3142076 L39.8888025,12.6673148 L39.8888025,13.7491917 L44.6401413,18.5005833 L43.1950623,18.5005833 L39.8888025,15.1942867 L39.8888025,16.6292708 L41.7600942,18.5005833 L40.3150152,18.5005833 L39.8888025,18.0743658 L39.8888025,18.5005833 L39.4268127,18.5005833 L39.8786916,18.9524672 L39.8786916,20.3890068 L37.9902891,18.5005833 L37.4349681,18.5005833 L36.5428768,18.5005833 L39.8779138,21.8356574 L39.8779138,23.272197 L35.1063532,18.5005833 L34.5541432,18.5005833 L33.6597187,18.5005833 L39.8779138,24.7196253 L39.8779138,26.1561649 L32.223195,18.5013611 L32.1104198,18.5013611 L31.6740961,18.5013611 L25.8408924,12.6680926 L27.2859714,12.6680926 L32.1104198,17.4925945 L32.1104198,16.0576105 L28.7209395,12.6680926 L30.1660185,12.6680926 L32.1104198,14.6125154 L32.1104198,13.1767536 L31.6009866,12.6673148 L32.1104198,12.6673148 L32.1104198,11.7316585 L32.1104198,10.2966745 L32.1104198,8.85157943 L32.1104198,8.77846913 L32.1104198,7.41659537 L25.6946735,1.00077777 L24.2597053,1.00077777 L32.0373103,8.77846913 L30.5922313,8.77846913 L22.8146263,1.00077777 L21.3796582,1.00077777 L29.1572632,8.77846913 L27.7121842,8.77846913 L19.9345792,1.00077777 L18.4996111,1.00077777 L26.2772161,8.77846913 L24.8321371,8.77846913 L18.4996111,2.44587282 L18.4996111,3.88085688 L23.397169,8.77846913 L21.95209,8.77846913 L18.4996111,5.32595193 L18.4996111,6.76093599 L20.5171218,8.77846913 L19.0720428,8.77846913 L18.4996111,8.20680881 L18.4996111,8.77846913 L12.6664074,8.77846913 L12.6664074,1.00077777 L8.77760494,1.00077777 L8.77760494,8.77846913 L1,8.77846913 L1,12.6673148 L8.77760494,12.6673148 L8.77760494,19.5801269 L7.69807338,18.5005833 L6.26310526,18.5005833 L8.77760494,21.0151109 L8.77760494,22.4563172 L4.82191507,18.5005833 L3.38694696,18.5005833 L8.77760494,23.8913012 L8.77760494,25.3325074 L1.94653452,18.5013611 L1,18.5013611 L1,18.9898001 L8.77760494,26.7674915 L8.77760494,28.2086977 L1,20.4310063 L1,21.8659904 L8.77760494,29.6436817 L8.77760494,31.0848879 L1,23.3071966 L1,24.7421806 L8.3708362,32.1130987 L8.77760494,32.1130987 L9.80502655,32.1130987 L11.2462168,32.1130987 L12.6664074,32.1130987 L12.6811849,32.1130987 L12.6664074,32.0983211 L12.6664074,30.6571149 L14.1223751,32.1130987 L15.5573432,32.1130987 L12.6664074,29.2221309 L12.6664074,27.7809247 L16.9977556,32.112321 L18.4327237,32.112321 L12.6664074,26.3459406 L12.6664074,24.9047344 L18.4996111,30.7380029 L18.4996111,32.112321 L18.4996111,32.1753203 L26.2142175,39.8900123 L26.2181063,39.8931234 L24.7815826,39.8931234 L24.7769161,39.8884568 L18.4988334,33.6103043 L18.4988334,33.6126376 L18.4988334,35.0538438 L18.4988334,35.0577327 L23.3302815,39.8892346 L23.3349481,39.8931234 L21.8984245,39.8931234 L21.8937579,39.8884568 L18.4988334,36.4934945 L18.4988334,37.9292563 L18.4988334,37.9401451 L20.4471234,39.8884568 L20.45179,39.8931234 L19.0152663,39.8931234 L19.0105998,39.8884568 L18.4988334,39.3766847 L18.4988334,39.8884568 L18.4988334,40.8054466 L17.5818537,39.8884568 L16.1468856,39.8884568 L18.4980556,42.2396529 L18.4980556,43.6808591 L14.7056954,39.8884568 L13.2722828,39.8884568 L18.4996111,45.1158432 L18.4996111,46.5570494 L12.6664074,40.7237808 L12.6664074,39.8884568 L11.8310926,39.8884568 L10.3961245,39.8884568 L8.95493433,39.8884568 L8.77760494,39.8884568 L7.52074398,39.8884568 L8.77760494,41.1453317 L8.77760494,42.5865379 L6.07955379,39.8884568 L4.64458568,39.8884568 L8.77760494,44.021522 L8.77760494,45.4627282 L3.20339548,39.8884568 L1.76842737,39.8884568 L8.77760494,46.8977122 L8.77760494,48.3389185 L1,40.5612271 L1,41.9962112 L8.77760494,49.7739025 L8.77760494,51.2151087 L1,43.4374174 L1,44.8724014 L8.77760494,52.6500928 L8.77760494,59.333463 L1,59.333463 L1,63.2223086 L8.77760494,63.2223086 L8.77760494,71 L12.6664074,71 L12.6664074,63.2223086 L19.3504811,63.2223086 L27.128086,71 L28.5630542,71 L20.7854492,63.2223086 L22.2305282,63.2223086 L30.0081332,71 L31.4431013,71 L23.6654963,63.2223086 L25.1105753,63.2223086 L32.1104198,70.2222309 L32.1104198,68.7872468 L26.5455434,63.2223086 L27.9906224,63.2223086 L32.1104198,67.3421518 L32.1104198,65.9071677 L29.4255905,63.2223086 L30.8706695,63.2223086 L32.1104198,64.4620726 L32.1104198,63.2223086 L32.1104198,63.0270886 L32.1104198,61.5819935 L32.1104198,60.1462317 L32.1104198,59.3326852 L31.2968823,59.3326852 L25.4636786,53.4994167 L26.9087576,53.4994167 L32.1104198,58.7011367 L32.1104198,57.2661526 L28.3437257,53.4994167 L29.7888047,53.4994167 L32.109642,55.8202798 L32.109642,54.3852957 L31.2237728,53.4986389 L32.109642,53.4986389 L32.6214084,53.4986389 L32.109642,52.9868668 L32.0909758,52.9682004 L32.0909758,51.5316608 L32.109642,51.5503272 L34.057932,53.4986389 L34.1038199,53.4986389 L35.5045666,53.4986389 L32.109642,50.1036766 L32.0909758,50.0850102 L32.0909758,48.6484706 L32.109642,48.667137 L36.9410902,53.4986389 L36.983867,53.4986389 L38.3877247,53.4986389 L32.109642,47.2204864 L32.0909758,47.20182 L32.0909758,45.7652804 L32.109642,45.7839468 L39.8242484,53.4986389 L39.8639141,53.4986389 L39.887247,53.4986389 L41.3089931,53.4986389 L47.1421968,59.3319074 L45.6971178,59.3319074 L39.887247,53.521972 L39.887247,54.956956 L44.2621497,59.3319074 L42.8170707,59.3319074 L39.887247,56.4020511 L39.887247,57.8370351 L41.3821026,59.3319074 L39.9370236,59.3319074 L39.887247,59.2821302 L39.887247,59.3319074 L39.887247,60.7171143 L39.887247,62.1622093 L39.887247,63.2199753 L39.887247,63.5964156 L47.2884158,70.9976667 L48.7233839,70.9976667 L40.945779,63.2199753 L42.390858,63.2199753 L50.1684629,70.9976667 L51.603431,70.9976667 L43.8258261,63.2199753 L45.2709051,63.2199753 L53.04851,70.9976667 L53.4863892,70.9976667 L53.4863892,70.0005667 L46.7058732,63.2199753 L48.1509522,63.2199753 L53.4856114,68.5546938 L53.4856114,67.1197098 L49.5851426,63.2191976 L51.0302216,63.2191976 L53.4848337,65.673837 L53.4848337,64.2388529 L52.4644119,63.2184198 L59.3297038,63.2184198 L59.3297038,70.9961112 L63.2185063,70.9961112 L63.2185063,63.2184198 L70.9961112,63.2184198 L70.9961112,59.3295741 L63.2185063,59.3295741 L63.2185063,53.4963056 L63.8033821,53.4963056 L63.2185063,52.9114232 L63.2185063,51.4741058 L65.2445723,53.5001944 L66.6795405,53.5001944 L63.2185063,50.0391218 L63.2185063,48.5979156 L68.1199529,53.4994167 L69.554921,53.4994167 L63.2185063,47.1629315 L63.2185063,45.7217253 L70.9961112,53.4994167 L70.9961112,52.0652104 L63.2185063,44.287519 L63.2185063,42.8463128 L70.9961112,50.6240042 L70.9961112,49.1890201 L63.2185063,41.4113288 L63.2185063,39.9701226 L70.9961112,47.7478139 L70.9961112,46.3128299 L64.5718095,39.8884568 L63.2185063,39.8884568 L63.1368414,39.8884568 L61.6956512,39.8884568 L60.2606831,39.8884568 L59.328926,39.8884568 L59.328926,40.3978956 L58.8194929,39.8884568 L57.3845248,39.8884568 L59.328926,41.8328796 L59.328926,43.2740858 L55.9433346,39.8884568 L54.5083665,39.8884568 L59.328926,44.7090699 L59.328926,46.1502761 L53.4957223,40.3170076 L53.4957223,39.8892346 L53.4957223,39.776458 L45.8308926,32.1115432 L45.8293371,32.1068766 L47.2658608,32.1068766 L47.2705273,32.1115432 L53.4996111,38.3406962 L53.4996111,37.4415951 L53.4996111,36.8940456 L48.7179396,32.112321 L48.713273,32.1076544 L50.1497967,32.1076544 L50.1544632,32.112321 L53.4996111,35.457506 L53.4996111,34.5654048 L53.4996111,34.0100777 L51.6010978,32.1115432 L51.5964312,32.1068766 L53.0329548,32.1068766 L53.0376214,32.1115432 L53.4996111,32.5735381 L53.4996111,32.1115432 L53.9219351,32.1115432 L53.4996111,31.6899923 L53.4996111,30.2487861 L55.3623475,32.1115432 L56.7973156,32.1115432 L53.4996111,28.8138021 L53.4996111,27.3725959 L58.2385058,32.1115432 L59.3328148,32.1115432 L59.6734739,32.1115432 L61.1146641,32.1115432 L62.5496322,32.1115432 L63.2223951,32.1115432 L63.2223951,31.3431073 L63.9908224,32.1115432 L65.4257905,32.1115432 L63.2223951,29.9081232 L63.2223951,28.466917 L66.8669807,32.1115432 L68.3019488,32.1115432 L63.2223951,27.031933 L63.2223951,25.5907268 L69.743139,32.1115432 L71,32.1115432 L71,31.9342118 L63.2223951,24.1565205 L63.2223951,22.7153143 L71,30.4930056 L71,29.0580216 L63.2223951,21.2803302 L63.2223951,19.839124 L71,27.6168154 L71,26.1818313 L63.3188374,18.5005833 L63.2223951,18.5005833 L63.2223951,12.6673148 L71,12.6673148 L71,8.77846913 L63.2208395,8.77846913 L63.2208395,8.77769136 Z M12.6664074,42.1587649 L18.4996111,47.9920334 L18.4996111,49.4332396 L12.6664074,43.5999711 L12.6664074,42.1587649 Z M12.6664074,45.0349552 L18.4996111,50.8682237 L18.4996111,52.3094299 L12.6664074,46.4761614 L12.6664074,45.0349552 Z M22.656741,59.3326852 L18.4996111,55.1755092 L18.487167,55.1630649 L18.487167,56.5980489 L18.4996111,56.6104932 L21.2217728,59.3326852 L19.7766939,59.3326852 L18.4996111,58.0555883 L18.487167,58.043144 L18.487167,59.3319074 L12.6664074,59.3319074 L12.6664074,53.4986389 L13.9380458,53.4986389 L12.6664074,52.2269864 L12.6664074,50.7857802 L15.379236,53.4986389 L16.8142041,53.4986389 L12.6664074,49.3507961 L12.6664074,47.9095899 L18.2553943,53.4986389 L18.4996111,53.4986389 L18.4996111,53.7296363 L24.10182,59.3319074 L22.656741,59.3319074 L22.656741,59.3326852 Z M25.5367881,59.3326852 L19.7035844,53.4994167 L21.1486634,53.4994167 L26.9818671,59.3326852 L25.5367881,59.3326852 Z M29.8619142,59.3326852 L28.4168352,59.3326852 L22.5836315,53.4994167 L24.0287105,53.4994167 L29.8619142,59.3326852 Z M41.4987667,32.1068766 L41.5034333,32.1115432 L49.2810382,39.8892346 L49.284927,39.8931234 L47.8484034,39.8931234 L47.8437368,39.8884568 L40.0661319,32.1107654 L40.0622431,32.1060988 L41.4987667,32.1060988 L41.4987667,32.1068766 Z M51.4579898,59.3326852 L45.6247861,53.4994167 L47.0698651,53.4994167 L52.9030688,59.3326852 L51.4579898,59.3326852 Z M32.0917535,19.8157909 L32.1104198,19.8344574 L39.8779138,27.6020378 L39.8779138,29.0385773 L32.1104198,21.270997 L32.0917535,21.2523305 L32.0917535,19.8157909 Z M32.0917535,22.6989811 L32.1104198,22.7176476 L39.8779138,30.4852279 L39.8779138,31.9217675 L32.1104198,24.1541872 L32.0917535,24.1355207 L32.0917535,22.6989811 Z M32.0917535,25.5821713 L32.1104198,25.6008378 L46.39788,39.8884568 L46.4017688,39.8931234 L44.9652452,39.8931234 L44.9605787,39.8884568 L32.1104198,27.0381551 L32.0917535,27.0194887 L32.0917535,25.5821713 Z M32.0917535,28.4661393 L32.1104198,28.4848057 L43.5147219,39.8884568 L43.5186107,39.8931234 L42.0820871,39.8931234 L42.0774205,39.8884568 L32.1104198,29.9213453 L32.0917535,29.9026789 L32.0917535,28.4661393 Z M24.4059243,12.666537 L30.239128,18.4998056 L28.794049,18.4998056 L22.9608453,12.666537 L24.4059243,12.666537 Z M21.5250994,12.666537 L27.3583031,18.4998056 L25.9132242,18.4998056 L20.0800204,12.666537 L21.5250994,12.666537 Z M18.4996111,29.3014633 L12.6664074,23.4681948 L12.6664074,22.0277664 L18.4996111,27.8610349 L18.4996111,29.3014633 Z M18.4996111,26.4260508 L12.6664074,20.5927823 L12.6664074,19.1515761 L18.4996111,24.9848446 L18.4996111,26.4260508 Z M18.4996111,18.4998056 L17.7669607,18.4998056 L18.4996111,19.2324641 L18.4996111,20.6736703 L16.3257705,18.4998056 L14.8908024,18.4998056 L18.4996111,22.1086543 L18.4996111,23.5498606 L13.4496122,18.4998056 L12.6664074,18.4998056 L12.6664074,12.666537 L18.6458301,12.666537 L24.4790338,18.4998056 L23.033177,18.4998056 L18.4996111,13.9661893 L18.4996111,15.4011733 L21.5982089,18.4998056 L20.1531299,18.4998056 L18.4996111,16.8462684 L18.4996111,18.2812524 L18.7181618,18.4998056 L18.4996111,18.4998056 Z M27.6655185,39.8931234 L27.660852,39.8884568 L19.883247,32.1107654 L19.8785805,32.1060988 L21.3151041,32.1060988 L21.3189929,32.1107654 L29.0965979,39.8884568 L29.1020422,39.8931234 L27.6655185,39.8931234 Z M30.5486767,39.8931234 L30.5440101,39.8884568 L22.7664052,32.1107654 L22.7617386,32.1060988 L24.1982623,32.1060988 L24.2021511,32.1107654 L31.979756,39.8884568 L31.9852003,39.8931234 L30.5486767,39.8931234 Z M39.8779138,52.1056544 L32.1104198,44.338074 L32.0917535,44.3194076 L32.0917535,42.882868 L32.1104198,42.9015344 L39.8779138,50.6691148 L39.8779138,52.1056544 Z M39.8779138,49.2224642 L32.1104198,41.4548838 L32.0917535,41.4362174 L32.0917535,39.9996778 L32.1104198,40.0183442 L39.8779138,47.7859246 L39.8779138,49.2224642 Z M39.8779138,46.3384962 L25.6503411,32.1107654 L25.6456745,32.1060988 L27.0821982,32.1060988 L27.0868647,32.1107654 L39.8779138,44.9019566 L39.8779138,46.3384962 Z M39.8779138,43.4553061 L28.5334993,32.1107654 L28.5288327,32.1060988 L29.9653563,32.1060988 L29.9700229,32.1107654 L39.8779138,42.0187665 L39.8779138,43.4553061 Z M39.8880247,39.8931234 L39.8779138,39.8931234 L39.8779138,40.5721159 L31.4166574,32.1107654 L31.4119908,32.1060988 L32.0909758,32.1060988 L32.0909758,31.3485517 L32.109642,31.3672181 L40.6300082,39.887679 L40.6354525,39.8931234 L39.8880247,39.8931234 Z M42.744739,53.4994167 L44.189818,53.4994167 L50.0230217,59.3326852 L48.5779427,59.3326852 L42.744739,53.4994167 Z M59.3320371,59.3326852 L53.4863892,59.3326852 L53.4863892,58.4818058 L48.5048332,53.5001944 L49.9499122,53.5001944 L53.4863892,57.0367107 L53.4863892,55.6017266 L51.3848803,53.5001944 L52.8299593,53.5001944 L53.4863892,54.1566316 L53.4863892,53.5001944 L53.4988334,53.5001944 L53.4988334,53.2551972 L53.7430502,53.4994167 L55.1780183,53.4994167 L53.4988334,51.8202131 L53.4988334,50.3790069 L56.6192085,53.4994167 L58.0541766,53.4994167 L53.4988334,48.9448006 L53.4988334,47.5035944 L59.3320371,53.3368629 L59.3320371,59.3326852 Z M59.3320371,51.9018789 L53.4988334,46.0686103 L53.4988334,44.6274041 L59.3320371,50.4606727 L59.3320371,51.9018789 Z M59.3320371,47.5852602 L59.3320371,49.0264664 L53.4988334,43.1931979 L53.4988334,41.7519916 L59.3320371,47.5852602 Z M52.1641964,39.8884568 L52.1688629,39.8931234 L50.7323393,39.8931234 L50.7276727,39.8884568 L42.9500678,32.1107654 L42.9454012,32.1060988 L44.3819248,32.1060988 L44.3865914,32.1107654 L52.1641964,39.8884568 Z M46.0743317,18.4998056 L40.241128,12.666537 L41.686207,12.666537 L47.5194107,18.4998056 L46.0743317,18.4998056 Z M48.9543788,18.4998056 L43.1211751,12.666537 L44.5662541,12.666537 L50.3994578,18.4998056 L48.9543788,18.4998056 Z M51.8344259,18.4998056 L46.0012222,12.666537 L47.4463012,12.666537 L53.2795049,18.4998056 L51.8344259,18.4998056 Z M59.3320371,31.7708803 L53.4988334,25.9376118 L53.4988334,24.4964056 L59.3320371,30.3296741 L59.3320371,31.7708803 Z M59.3320371,28.8946901 L53.4988334,23.0614215 L53.4988334,21.6202153 L59.3320371,27.4534839 L59.3320371,28.8946901 Z M59.3320371,26.0184998 L53.4988334,20.1852313 L53.4988334,18.7440251 L59.3320371,24.5772936 L59.3320371,26.0184998 Z M59.3320371,20.266897 L57.5649652,18.4998056 L56.1299971,18.4998056 L59.3312593,21.7011033 L59.3312593,23.1423095 L54.6888069,18.4998056 L53.4980556,18.4998056 L53.4980556,17.2841524 L48.8804915,12.666537 L50.3255705,12.666537 L53.4972778,15.8382796 L53.4972778,14.4032955 L51.7605387,12.666537 L53.2056177,12.666537 L53.4972778,12.9582005 L53.4972778,12.666537 L59.3304815,12.666537 L59.3304815,18.4998056 L59.0045999,18.4998056 L59.3304815,18.8256908 L59.3304815,20.266897 L59.3320371,20.266897 Z" id="Shape" fill-rule="nonzero"></path>
            <polygon id="Path" points="18 70 19 70 18 69"></polygon>
            <polygon id="Path" points="18 66 18 67.3297278 18.0115357 67.3412655 20.6697909 70 22 70 18.0115357 66.0108167"></polygon>
            <polygon id="Path" points="18 63 18 64.3960653 18.0121068 64.4081721 23.6039347 70 25 70 18.0121068 63.0121068"></polygon>
            <polygon id="Path" points="39.3745 70.6255 39.6255 70.6255 39.3745 70.3745"></polygon>
            <polygon id="Path" points="40 68.3998483 41.6001517 70 43 70 40 67"></polygon>
            <polygon id="Path" points="39 65.4457359 43.5542641 70 45 70 39 64"></polygon>
            <polygon id="Path" points="53 5.61086711 48.3891329 1 47 1 53 7"></polygon>
            <polygon id="Path" points="53 2.70253165 51.2974684 1 50 1 53 4"></polygon>
            <polygon id="Path" points="52.7815 0.2185 52.2185 0.2185 52.7815 0.7815"></polygon>
            <polygon id="Path" points="1 52 1 53 2 53"></polygon>
            <polygon id="Path" points="5 53 1 49 1 50.3316492 3.66835078 53"></polygon>
            <polygon id="Path" points="8 53 1 46 1 47.3977273 6.60227273 53"></polygon>
            <polygon id="Path" points="65 39 70 44 70 42.5603933 66.4398314 39"></polygon>
            <polygon id="Path" points="68 39 70 41 70 39.6383764 69.3616236 39"></polygon>
            <polygon id="Path" points="64 18 70 24 70 22.6203888 65.3796112 18"></polygon>
            <polygon id="Path" points="67 18 70 21 70 19.720527 68.279473 18"></polygon>
            <polygon id="Path" points="70.814 18.8145 70.814 18.1855 70.186 18.1855"></polygon>
            <polygon id="Path" points="0.386 31.386 0.386 31.614 0.614 31.614"></polygon>
            <polygon id="Path" points="4 32 1 29 1 30.4098319 2.59016811 32"></polygon>
            <polygon id="Path" points="7 32 1 26 1 27.4513971 5.5480063 32"></polygon>
            <polygon id="Path" points="32 4.55656392 28.4434361 1 27 1 32 6"></polygon>
            <polygon id="Path" points="32 1.62723214 31.3727679 1 30 1 32 3"></polygon>
        </g>
    </g>
</svg>