<?xml version="1.0" encoding="UTF-8"?>
<svg width="75px" height="75px" viewBox="0 0 75 75" version="1.1" xmlns="http://www.w3.org/2000/svg" xmlns:xlink="http://www.w3.org/1999/xlink">
    <!-- Generator: Sketch 52.5 (67469) - http://www.bohemiancoding.com/sketch -->
    <title>image-filter-disco</title>
    <desc>Created with Sketch.</desc>
    <g id="image-filter-disco" stroke="none" stroke-width="1" fill="none" fill-rule="evenodd">
        <g id="noun_Disco-Ball_1844496_000000" transform="translate(2.000000, 2.000000)" fill="#FFFFFF">
            <path d="M69.8,16.2 C70.4627417,16.2 71,15.6627417 71,15 C71,14.3372583 70.4627417,13.8 69.8,13.8 C67.8141903,13.7941808 66.2058192,12.1858097 66.2,10.2 C66.2,9.5372583 65.6627417,9 65,9 C64.3372583,9 63.8,9.5372583 63.8,10.2 C63.7941808,12.1858097 62.1858097,13.7941808 60.2,13.8 C59.5372583,13.8 59,14.3372583 59,15 C59,15.6627417 59.5372583,16.2 60.2,16.2 C62.1858206,16.205793 63.794207,17.8141794 63.8,19.8 C63.8,20.4627417 64.3372583,21 65,21 C65.6627417,21 66.2,20.4627417 66.2,19.8 C66.205793,17.8141794 67.8141794,16.205793 69.8,16.2 Z" id="Path"></path>
            <rect id="Rectangle" x="3" y="48" width="2" height="2"></rect>
            <rect id="Rectangle" x="3" y="54" width="2" height="2"></rect>
            <rect id="Rectangle" x="0" y="50" width="2" height="2"></rect>
            <rect id="Rectangle" x="5" y="50" width="2" height="2"></rect>
            <path d="M35,10 C31.2472594,12.5968289 28.164998,16.0215638 26,20 C28.9768079,19.5245621 31.9846079,19.2608162 35,19.2108142 L35,10 Z" id="Path"></path>
            <path d="M59,47 C55.5817504,48.213104 52.0611425,49.1680514 48.4733109,49.8553121 C46.2763134,54.1800766 43.0370888,57.9907979 39,61 C47.7523232,59.5935325 55.2122274,54.3715996 59,47 Z" id="Path"></path>
            <path d="M35,61 L35,51.7891858 C31.9846079,51.7391838 28.9768079,51.4754379 26,51 C28.164998,54.9784362 31.2472594,58.4031711 35,61 Z" id="Path"></path>
            <path d="M9.04544363,37.0207513 C9.05206463,37.100726 9.05604409,37.1814262 9.06337408,37.261202 C9.12821187,37.9616449 9.22286132,38.6533122 9.34192501,39.3366837 C9.35624192,39.4192442 9.3701243,39.5019453 9.38520738,39.5842835 C9.51362508,40.2815867 9.6685916,40.9690378 9.85010692,41.6466369 C9.86085604,41.6866301 9.87243994,41.7262021 9.88339489,41.7661836 C9.97692369,42.1061961 10.0969708,42.4345664 10.2036844,42.7688572 C10.3175281,42.7742451 10.4299182,42.7972403 10.537033,42.837061 C13.6004317,44.1573612 16.7656121,45.2153034 20,46 C18.8713731,42.7866062 18.2397118,39.4126867 18.1278116,36 L9,36 C9.01515169,36.3403635 9.01738156,36.6838746 9.04544363,37.0207513 Z" id="Path"></path>
            <path d="M9.88339489,29.2338164 C9.87243994,29.2737394 9.86085604,29.3133816 9.85010692,29.3533631 C9.66751669,30.0300261 9.51255017,30.7174772 9.38520738,31.4157165 C9.3701243,31.4980547 9.35624192,31.5806972 9.34192501,31.6633163 C9.22286132,32.346641 9.12821187,33.0383551 9.06337408,33.738798 C9.05604409,33.8185738 9.05206463,33.899274 9.04544363,33.9792487 C9.01738156,34.3161254 9.01515169,34.6596365 9,35 L18.1278116,35 C18.2397118,31.5873133 18.8713731,28.2133938 20,25 C16.7656121,25.7846966 13.6004317,26.8426388 10.537033,28.162939 C10.4299182,28.2027597 10.3175281,28.2257549 10.2036844,28.2311428 C10.0969708,28.5653868 9.97692369,28.8937571 9.88339489,29.2338164 Z" id="Path"></path>
            <path d="M31.9477403,60.9914674 L32,61 C27.9581612,57.997627 24.7179947,54.1935163 22.525397,49.8763624 C18.9368768,49.1816751 15.4166475,48.2196729 12,47 C15.7585373,54.3535032 23.2013339,59.5739264 31.9477403,60.9914674 Z" id="Path"></path>
            <path d="M24.3442242,46.8894948 C27.8586558,47.5659533 31.4234574,47.9374636 35,48 L35,36 L22,36 C22.1323161,39.7430581 22.9263449,43.4315159 24.3442242,46.8894948 Z" id="Path"></path>
            <path d="M59.7865018,28.2238515 C59.7352408,28.2170091 59.6845147,28.2064979 59.6346989,28.1923956 C56.517074,26.8530793 53.2940246,25.7851426 50,25 C51.1367165,28.2123469 51.7728582,31.5866369 51.8852608,35 L61,35 C60.8991909,32.6955163 60.4909326,30.4158105 59.7865018,28.2238515 Z" id="Path"></path>
            <path d="M49,36 L36,36 L36,48 C39.5600003,47.937735 43.1085729,47.5776448 46.6086558,46.9234902 C48.0552032,43.4558742 48.8652822,39.7554906 49,36 Z" id="Path"></path>
            <path d="M45,50 C42.0222344,50.4630899 39.0147618,50.7200477 36,50.7689581 L36,60 C39.7442598,57.3856185 42.8236177,53.9641098 45,50 Z" id="Path"></path>
            <path d="M46.6088721,24.0765098 C43.1087165,23.4223546 39.560072,23.0622644 36,23 L36,35 L49,35 C48.8653007,31.2445292 48.0552969,27.5441549 46.6088721,24.0765098 Z" id="Path"></path>
            <path d="M22.525397,21.1236376 C24.7179947,16.8064837 27.9581612,13.002373 32,10 L31.9477403,10.0085326 C23.2013339,11.4260736 15.7585373,16.6464968 12,24 C15.4166475,22.7803271 18.9368768,21.8183249 22.525397,21.1236376 Z" id="Path"></path>
            <path d="M50,46 C53.29403,45.2148561 56.5170875,44.1469171 59.6347244,42.807597 C59.6844448,42.7936264 59.735078,42.7832896 59.786239,42.7766653 C60.4908611,40.5845708 60.89921,38.3046788 61,36 L51.8854311,36 C51.7730057,39.4133794 51.1368052,42.7876763 50,46 Z" id="Path"></path>
            <path d="M22,35 L35,35 L35,23 C31.4234574,23.0625364 27.8586558,23.4340467 24.3442242,24.1105052 C22.9263449,27.5684841 22.1323161,31.2569419 22,35 Z" id="Path"></path>
            <path d="M39,10 C43.0368752,13.0093574 46.275905,16.8200627 48.4727924,21.1447017 C52.0608041,21.8319449 55.5815866,22.786888 59,24 C55.2125317,16.6284188 47.752541,11.4064253 39,10 Z" id="Path"></path>
            <path d="M36,20.2309844 C39.0147622,20.2799224 42.0222339,20.5368993 45,21 C42.8237212,17.0357974 39.7443417,13.6142646 36,11 L36,20.2309844 Z" id="Path"></path>
            <rect id="Rectangle" x="35" y="66" width="2" height="5"></rect>
            <rect id="Rectangle" x="35" y="0" width="2" height="9"></rect>
            <rect id="Rectangle" x="0" y="35" width="5" height="2"></rect>
            <rect id="Rectangle" x="66" y="35" width="5" height="2"></rect>
            <polygon id="Rectangle" transform="translate(13.016678, 10.649996) rotate(-45.000000) translate(-13.016678, -10.649996) " points="11.8334692 8.97650803 14.1998874 8.97650803 14.1998874 12.3234835 11.8334692 12.3234835"></polygon>
            <polygon id="Rectangle" transform="translate(57.983342, 10.649999) rotate(-45.000000) translate(-57.983342, -10.649999) " points="56.3098545 9.46678944 59.65683 9.46678944 59.65683 11.8332076 56.3098545 11.8332076"></polygon>
            <polygon id="Rectangle" transform="translate(10.650009, 57.983335) rotate(-45.000000) translate(-10.650009, -57.983335) " points="8.97652113 56.8001257 12.3234966 56.8001257 12.3234966 59.1665439 8.97652113 59.1665439"></polygon>
            <polygon id="Rectangle" transform="translate(60.350003, 57.983329) rotate(-45.000000) translate(-60.350003, -57.983329) " points="59.1667937 56.3098414 61.5332118 56.3098414 61.5332118 59.6568169 59.1667937 59.6568169"></polygon>
        </g>
    </g>
</svg>