<?xml version="1.0" encoding="UTF-8"?>
<svg width="75px" height="75px" viewBox="0 0 75 75" version="1.1" xmlns="http://www.w3.org/2000/svg" xmlns:xlink="http://www.w3.org/1999/xlink">
    <!-- Generator: Sketch 52.5 (67469) - http://www.bohemiancoding.com/sketch -->
    <title>image-filter-lensflare</title>
    <desc>Created with Sketch.</desc>
    <g id="image-filter-lensflare" stroke="none" stroke-width="1" fill="none" fill-rule="evenodd">
        <g id="noun_Camera-Lens_1284270_000000" transform="translate(2.000000, 2.000000)" fill="#FFFFFF" fill-rule="nonzero">
            <path d="M65.6164232,16.8043393 C66.4050591,19.2497633 66.4839227,21.9318412 65.5375596,24.5350345 C63.3293788,30.7669214 56.5471094,34.0011918 50.3168851,31.7924217 C44.0866609,29.5836517 40.8532534,22.7995723 43.0614341,16.5676854 C45.2696149,10.3357985 52.0518843,7.10152812 58.2821085,9.31029815 C59.0707445,9.62583673 59.8593805,9.94137531 60.4902893,10.4146832 C56.9414274,6.78598954 52.4462023,3.86725771 47.3200684,2.05291089 C28.8659865,-4.49451457 8.59804182,5.12941201 2.05236318,23.6673034 C-4.49331545,42.1263101 5.12804351,62.3996636 23.660989,68.9470891 C42.115071,75.4945146 62.3830156,65.870588 68.9286943,47.3326966 C72.714147,36.7621543 71.136875,25.6394195 65.6164232,16.8043393 Z M44.2443881,33.7645378 C43.5346157,35.8155386 41.326435,36.841039 39.2759814,36.1310772 C37.2255279,35.4211154 36.2003011,33.2123453 36.9100735,31.1613446 C37.6198459,29.1103438 39.8280266,28.0848435 41.8784802,28.7948052 C43.9289337,29.5836517 44.9541605,31.7924217 44.2443881,33.7645378 Z" id="Shape"></path>
        </g>
    </g>
</svg>