<?xml version="1.0" encoding="UTF-8"?>
<svg width="75px" height="75px" viewBox="0 0 75 75" version="1.1" xmlns="http://www.w3.org/2000/svg" xmlns:xlink="http://www.w3.org/1999/xlink">
    <!-- Generator: Sketch 52.5 (67469) - http://www.bohemiancoding.com/sketch -->
    <title>image-filter-blueprint</title>
    <desc>Created with Sketch.</desc>
    <g id="image-filter-blueprint" stroke="none" stroke-width="1" fill="none" fill-rule="evenodd">
        <g id="Group" transform="translate(7.000000, 2.000000)" fill="#FFFFFF">
            <g transform="translate(31.000000, 0.000000)" id="Path">
                <path d="M0.551842105,44.8432 C0.552631579,50.36 0.553421053,55.3824 0.554210526,59.4368 L7.43131579,56.3088 L0.551842105,44.8432 Z"></path>
                <polygon points="19.1202632 50.9904 15.1807895 35.4272 1.13921053 39.2936 10.5110526 54.9072"></polygon>
                <polygon points="17.5634211 31.188 29.5476316 27.8896 29.5476316 17.508 14.1 17.508"></polygon>
                <path d="M16.8497368,65.8512 C18.7752632,65.0736 20.6589474,64.3136 22.3255263,63.6392 L19.9831579,54.3872 L12.2984211,57.8832 L17.0178947,65.748 L16.8497368,65.8512 Z"></path>
                <path d="M0.552631579,17.508 C0.551842105,22.8448 0.550263158,29.1944 0.549473684,35.8728 L14.3313158,32.0784 L10.6413158,17.508 L0.552631579,17.508 Z"></path>
                <polygon points="29.5492105 35.6576 29.5476316 35.6576 29.5476316 31.472 18.4113158 34.5376 22.2221053 49.5792 29.5492105 46.2792"></polygon>
                <path d="M13.2402632,14.1144 L29.5476316,14.1144 L29.5476316,13.4896 C29.5476316,13.4896 29.7094737,11.3328 28.1826316,10.756 C26.9139474,10.2048 17.6313158,6.4616 10.5836842,3.6256 L13.2402632,14.1144 Z"></path>
                <path d="M9.21789474,59.2848 L0.554210526,63.2264 C0.555789474,66.8336 0.556578947,69.1296 0.556578947,69.5224 C0.556578947,72.0816 2.48684211,71.6296 2.48684211,71.6296 C2.48684211,71.6296 7.965,69.4312 13.8781579,67.048 L9.21789474,59.2848 Z"></path>
                <path d="M29.5492105,50.0448 L23.0826316,52.9776 L25.4605263,62.368 C26.8460526,61.8032 27.8281579,61.3984 28.1834211,61.2456 C29.7102632,60.668 29.5492105,58.5112 29.5492105,58.5112 L29.5492105,50.0448 Z"></path>
                <path d="M9.78315789,14.1144 L6.73342105,2.0768 C4.19526316,1.056 2.48605263,0.3704 2.48605263,0.3704 C2.48605263,0.3704 0.555789474,-0.0808 0.555789474,2.4776 C0.555789474,3.0392 0.554210526,7.4952 0.553421053,14.1144 L9.78315789,14.1144 Z"></path>
            </g>
            <path d="M29,35.6454833 L15.2195701,31.8654681 L18.909192,17.3472444 L28.9976318,17.3472444 C28.9976318,16.1682814 28.9968424,15.0387408 28.9968424,13.9657968 L19.7688407,13.9657968 L22.8087924,2 C21.6673304,2.45755562 20.3577278,2.98207059 18.9597131,3.54325378 L16.3113003,13.9665939 L0.00481354179,13.9665939 L0.00481354179,13.3440313 C0.00481354179,13.3440313 7.71850725e-05,13.2754777 7.71850725e-05,13.1606902 C-0.000712207714,13.2914204 0.00481354179,13.3703368 0.00481354179,13.3703368 L0.00481354179,17.551311 L0.00481354179,17.3488386 L15.4508622,17.3488386 L11.9870067,30.980648 L0.00402414901,27.6932624 L0.00402414901,27.3879596 L0.00402414901,31.4366094 L0.00402414901,31.2628339 L11.1384094,34.317456 L7.32958921,49.3035981 L0.00323475622,46.0162125 L0.00323475622,46.0114297 L0.00323475622,49.5507101 C0.132695173,49.603321 0.236105628,49.7141228 0.257419234,49.8831154 L6.46915107,52.6890314 L4.15780899,61.7867357 C4.16017717,61.8855804 4.1349166,61.9860195 4.08202729,62.0689215 C4.94720178,62.419661 5.97104423,62.8333742 7.09592895,63.2885384 C7.12592587,63.1594025 7.1993394,63.0470065 7.30827561,62.9943955 L9.56909655,54.0951779 L17.2530459,57.5786589 L12.5332665,65.4152952 L12.7021965,65.5189228 C12.5964179,65.4766746 12.492218,65.4344264 12.3872288,65.3921783 C12.38565,65.4009468 12.3840712,65.4089181 12.3824924,65.4160923 C13.6920951,65.9422016 15.0245901,66.4770793 16.3270882,67 C16.3294564,66.9920286 16.3310352,66.9840573 16.3341927,66.9768831 C16.1139521,66.8891982 15.894501,66.8007162 15.6742604,66.7114371 L20.3332566,58.9752398 L28.9952636,62.902725 C28.9952636,61.7676044 28.9952636,60.5041451 28.9952636,59.1274926 L22.1196525,56.0106939 L28.9976318,44.5845577 C28.9976318,41.8719065 28.9984212,39.0380908 28.9984212,36.1405043 L29,36.1405043 C29,35.9754973 29,35.8096932 29,35.6454833 Z M19.0394418,54.6125187 L10.4311135,50.7089475 L14.3709729,35.2006819 L28.4095342,39.0532364 L19.0394418,54.6125187 Z" id="Shape" fill-rule="nonzero"></path>
        </g>
    </g>
</svg>