<?xml version="1.0" encoding="UTF-8"?>
<svg width="75px" height="75px" viewBox="0 0 75 75" version="1.1" xmlns="http://www.w3.org/2000/svg" xmlns:xlink="http://www.w3.org/1999/xlink">
    <!-- Generator: Sketch 52.5 (67469) - http://www.bohemiancoding.com/sketch -->
    <title>text-transformation-scrambbled</title>
    <desc>Created with Sketch.</desc>
    <g id="text-transformation-scrambbled" stroke="none" stroke-width="1" fill="none" fill-rule="evenodd">
        <path d="M31.0838056,4.96527489 C30.5778192,3.20585104 29.019872,2 27.251691,2 L22.7409688,2 C20.9731838,2 19.4152366,3.20585104 18.9088543,4.96527489 L1.16726078,66.6561533 C0.805785359,67.9138247 1.03739885,69.2747255 1.79241924,70.3271719 C2.54704372,71.3800295 3.7363889,71.9998172 4.99977121,71.9998172 L8.30729106,71.9998172 C10.0818067,71.9998172 11.644109,70.7853295 12.1441566,69.0164463 L15.9616221,55.5234174 L33.9696701,55.5234174 L37.8532543,69.0337198 C38.3592407,70.7935549 39.9171878,71.9998172 41.6853688,71.9998172 L44.9928886,71.9998172 C44.9956601,71.9998172 44.9980356,72.0002285 45.000807,71.9998172 C47.2096475,71.9998172 49,70.1400429 49,67.8451422 C49,67.3355755 48.9117097,66.8469838 48.7501742,66.3962291 L31.0838056,4.96527489 Z M19.5454545,44.2222222 L25.5657048,24.2222222 L31.5454545,44.2222222 L19.5454545,44.2222222 Z" id="Shape" fill="#FFFFFF" fill-rule="nonzero"></path>
        <g id="noun_swap_1259611_000000" transform="translate(40.000000, 2.000000)" fill="#FFFFFF" fill-rule="nonzero">
            <path d="M1.47987471,10.8276201 L31.5201253,10.8276201 C32.1184338,10.8276201 32.6580951,10.4737331 32.8873032,9.93128255 C33.1165113,9.38830377 32.9895322,8.76345563 32.566089,8.3482987 L24.4953812,0.42545662 C23.9175185,-0.141818873 22.9813164,-0.141818873 22.4029157,0.42545662 C21.824515,0.992732113 21.825053,1.91178179 22.4029157,2.47958548 L27.94803,7.92310618 L1.47987471,7.92310618 C0.66258103,7.92310618 0.000244942168,8.57330742 0.000244942168,9.37562722 C0.000244942168,10.177947 0.66258103,10.8276201 1.47987471,10.8276201 Z M31.5201253,14.1721158 L1.47987471,14.1721158 C0.881566236,14.1721158 0.341904906,14.5260028 0.112696804,15.0684534 C-0.116511298,15.6114321 0.0104678387,16.2362803 0.433910975,16.6514372 L8.50461879,24.5742793 C8.79355013,24.857917 9.1717973,25 9.55058252,25 C9.92936774,25 10.3076149,24.857917 10.5965463,24.5742793 C11.1744089,24.0070038 11.1744089,23.0879541 10.5965463,22.5201504 L5.05196999,17.0771579 L31.5201253,17.0771579 C32.337419,17.0771579 32.9997551,16.4269567 32.9997551,15.6246369 C32.9997551,14.8223171 32.337419,14.1721158 31.5201253,14.1721158 Z" id="Shape"></path>
        </g>
    </g>
</svg>