<?xml version="1.0" encoding="UTF-8"?>
<svg width="75px" height="75px" viewBox="0 0 75 75" version="1.1" xmlns="http://www.w3.org/2000/svg" xmlns:xlink="http://www.w3.org/1999/xlink">
    <!-- Generator: Sketch 52.5 (67469) - http://www.bohemiancoding.com/sketch -->
    <title>text-transformation-bubbles</title>
    <desc>Created with Sketch.</desc>
    <g id="text-transformation-bubbles" stroke="none" stroke-width="1" fill="none" fill-rule="evenodd">
        <g id="letter-a" transform="translate(2.000000, 2.000000)" fill="#FFFFFF" fill-rule="nonzero">
            <path d="M36,0 C16.1496,0 0,16.1496 0,36 C0,55.8504 16.1496,72 36,72 C55.8504,72 72,55.8504 72,36 C72,16.1496 55.8504,0 36,0 Z M36,64.8 C20.11944,64.8 7.2,51.88032 7.2,36 C7.2,20.11968 20.11944,7.2 36,7.2 C51.88056,7.2 64.8,20.11968 64.8,36 C64.8,51.88032 51.88056,64.8 36,64.8 Z" id="Shape"></path>
            <path d="M39.6996115,17.298647 C39.3919171,16.2715238 38.4445168,15.5675676 37.3692716,15.5675676 L34.6262648,15.5675676 C33.5512604,15.5675676 32.6038601,16.2715238 32.2959249,17.298647 L21.507118,53.3127814 C21.2873019,54.0469896 21.428148,54.8414614 21.887282,55.4558625 C22.3461752,56.0705037 23.0694257,56.4323257 23.8376987,56.4323257 L25.8490283,56.4323257 C26.9281257,56.4323257 27.8781744,55.7233275 28.1822574,54.6906822 L30.5036891,46.8136707 L41.4545291,46.8136707 L43.8161681,54.7007661 C44.1238626,55.7281293 45.0712629,56.4323257 46.146508,56.4323257 L48.1578377,56.4323257 C48.159523,56.4323257 48.1609676,56.4325658 48.1626529,56.4323257 C49.5058667,56.4323257 50.5945946,55.3466196 50.5945946,54.0068938 C50.5945946,53.7094171 50.5409046,53.4241851 50.4426735,53.1610418 L39.6996115,17.298647 Z M32.4471237,40.2302869 L35.9901842,28.3504244 L39.5094091,40.2302869 L32.4471237,40.2302869 Z" id="Shape"></path>
        </g>
    </g>
</svg>