<?xml version="1.0" encoding="UTF-8"?>
<svg width="75px" height="75px" viewBox="0 0 75 75" version="1.1" xmlns="http://www.w3.org/2000/svg" xmlns:xlink="http://www.w3.org/1999/xlink">
    <!-- Generator: Sketch 52.5 (67469) - http://www.bohemiancoding.com/sketch -->
    <title>text-transformation-flipped</title>
    <desc>Created with Sketch.</desc>
    <g id="text-transformation-flipped" stroke="none" stroke-width="1" fill="none" fill-rule="evenodd">
        <path d="M43.469244,5.04999703 C42.9399556,3.24030392 41.3102608,2 39.4606505,2 L34.7421976,2 C32.8930014,2 31.2633067,3.24030392 30.7336041,5.04999703 L12.1749636,68.503472 C11.7968413,69.7970768 12.0391212,71.1968605 12.8289122,72.2793768 C13.6182892,73.3623161 14.8624068,73.999812 16.1839712,73.999812 L19.643811,73.999812 C21.5000478,73.999812 23.1342983,72.7506246 23.6573744,70.9312019 L27.6506441,57.0526579 L46.4880101,57.0526579 L50.5504436,70.9489689 C51.079732,72.759085 52.7094267,73.999812 54.5590371,73.999812 L58.0188769,73.999812 C58.021776,73.999812 58.0242609,74.000235 58.02716,73.999812 C60.3377234,73.999812 62.2105263,72.0869012 62.2105263,69.726432 C62.2105263,69.2023063 62.11817,68.6997547 61.9491953,68.2361213 L43.469244,5.04999703 Z M30.9473684,45.5789474 L37.1260463,24.7368421 L43.2631579,45.5789474 L30.9473684,45.5789474 Z" id="Shape" fill="#FFFFFF" fill-rule="nonzero" transform="translate(37.105263, 38.000000) scale(1, -1) translate(-37.105263, -38.000000) "></path>
    </g>
</svg>