<?xml version="1.0" encoding="UTF-8" standalone="no"?>
<svg
   xmlns:dc="http://purl.org/dc/elements/1.1/"
   xmlns:cc="http://creativecommons.org/ns#"
   xmlns:rdf="http://www.w3.org/1999/02/22-rdf-syntax-ns#"
   xmlns:svg="http://www.w3.org/2000/svg"
   xmlns="http://www.w3.org/2000/svg"
   xmlns:sodipodi="http://sodipodi.sourceforge.net/DTD/sodipodi-0.dtd"
   xmlns:inkscape="http://www.inkscape.org/namespaces/inkscape"
   width="16"
   height="16"
   viewBox="0 0 16 16"
   version="1.1"
   id="svg872"
   sodipodi:docname="wobbly-windows-symbolic.svg"
   inkscape:version="0.92.3 (2405546, 2018-03-11)">
  <metadata
     id="metadata878">
    <rdf:RDF>
      <cc:Work
         rdf:about="">
        <dc:format>image/svg+xml</dc:format>
        <dc:type
           rdf:resource="http://purl.org/dc/dcmitype/StillImage" />
        <dc:title>icon/wobbly_windows</dc:title>
      </cc:Work>
    </rdf:RDF>
  </metadata>
  <defs
     id="defs876" />
  <sodipodi:namedview
     pagecolor="#ffffff"
     bordercolor="#666666"
     borderopacity="1"
     objecttolerance="10"
     gridtolerance="10"
     guidetolerance="10"
     inkscape:pageopacity="0"
     inkscape:pageshadow="2"
     inkscape:window-width="1853"
     inkscape:window-height="1025"
     id="namedview874"
     showgrid="false"
     viewbox-height="16"
     showborder="true"
     inkscape:zoom="12.057143"
     inkscape:cx="-4.3471558"
     inkscape:cy="15.094787"
     inkscape:window-x="67"
     inkscape:window-y="27"
     inkscape:window-maximized="1"
     inkscape:current-layer="svg872" />
  <!-- Generator: Sketch 53 (72520) - https://sketchapp.com -->
  <title
     id="title863">icon/wobbly_windows</title>
  <desc
     id="desc865">Created with Sketch.</desc>
  <g
     id="icon/wobbly_windows"
     style="fill:#bebebe;fill-opacity:1;fill-rule:evenodd;stroke:none;stroke-width:1"
     transform="matrix(0.23250706,0,0,0.23250706,-0.1589137,-0.57797298)">
    <path
       d="m 15.124371,21.493943 c 5.16482,1.556558 10.141682,1.654639 14.930584,0.294244 6.106685,-1.734741 11.930212,-4.75319 17.47058,-9.055347 0.87243,-0.677445 2.128853,-0.519384 2.806303,0.353043 0.212865,0.27413 0.350729,0.598936 0.400038,0.942488 0.688195,4.794854 1.677043,9.101899 2.966544,12.921133 1.152671,3.41397 3.51388,7.005331 7.083626,10.774083 1.519176,1.603869 1.450521,4.135597 -0.153347,5.654774 -0.268849,0.254653 -0.571757,0.470739 -0.900046,0.642068 -4.166928,2.174654 -8.438926,6.232885 -12.815994,12.174693 -5.99002,8.131369 -13.458952,11.673203 -22.406795,10.6255 l -3e-6,2.2e-5 C 23.445505,66.696488 22.669604,65.761402 22.743189,64.696341 23.178074,58.401849 21.093935,52.016723 16.490772,45.540962 12.904631,40.495955 10.339766,34.430834 8.7961776,27.345598 8.2083542,24.64746 9.919109,21.983667 12.617248,21.395851 c 0.830462,-0.180925 1.693336,-0.147164 2.507123,0.09809 z m 2.911005,14.211128 c -0.587233,-1.68952 -1.218205,-4.218964 -1.88676,-7.57567 2.862515,0.781559 5.095943,1.198404 6.724328,1.246218 l 5.232665,-0.06639 c 0.05296,3.217435 0.276535,5.655432 0.680355,7.335911 0.279372,1.162591 0.949045,2.632079 2.007725,4.43709 -2.148849,0.685024 -3.782491,1.080875 -4.876529,1.18901 -1.185787,0.117205 -2.800988,-1.04e-4 -4.83003,-0.360103 -1.536694,-2.702241 -2.55549,-4.778276 -3.051754,-6.206069 z m 4.854062,-8.328939 c -1.397623,-0.04193 -3.491037,-0.432642 -6.214014,-1.176107 -0.2992,-0.08169 -0.613298,-0.09268 -0.917475,-0.0321 -1.083348,0.215771 -1.786648,1.268937 -1.57078,2.352275 0.684952,3.439033 1.335924,6.048653 1.959066,7.841485 0.544604,1.566875 1.610509,3.738903 3.202349,6.538118 0.294129,0.51722 0.803278,0.876623 1.389128,0.980581 2.194132,0.389284 3.980992,0.519059 5.376171,0.381159 1.261923,-0.12473 3.016213,-0.549815 5.287264,-1.273795 0.141055,-0.04497 0.276682,-0.105457 0.404386,-0.180358 0.952759,-0.558815 1.272121,-1.784179 0.713343,-2.736955 -0.967837,-1.650127 -1.563493,-2.957196 -1.78827,-3.892593 -0.362873,-1.510081 -0.574509,-3.817899 -0.625269,-6.901532 -0.01813,-1.101606 -0.923776,-1.981079 -2.025441,-1.966915 z m 11.60754,2.576136 0.138556,-2.187591 2.946256,-1.504506 c 1.958313,-1.000013 3.776137,-2.254015 5.406419,-3.729548 l 2.025281,-1.83301 c -0.02094,1.692136 -0.0034,3.345337 0.0525,4.959614 0.03875,1.118247 0.347115,2.661765 0.920741,4.658766 -2.223223,0.767174 -4.108961,1.831707 -5.649638,3.195848 -1.318132,1.167095 -2.650733,2.443761 -3.99794,3.829968 l -1.038867,-2.523803 c -0.633845,-1.539851 -0.908564,-3.203865 -0.803305,-4.865738 z m 2.175241,-5.473299 -2.946256,1.504506 c -0.628868,0.321132 -1.041795,0.950076 -1.086429,1.654781 l -0.138557,2.187591 c -0.124462,1.965064 0.200377,3.93266 0.94986,5.753441 l 1.038868,2.523804 c 0.104191,0.253122 0.259234,0.482161 0.455528,0.672935 0.792069,0.769799 2.0582,0.751764 2.828055,-0.04024 1.313259,-1.351252 2.609841,-2.593412 3.889622,-3.72655 1.336258,-1.183144 2.992472,-2.118108 4.976214,-2.802643 1.005501,-0.346971 1.563486,-1.420285 1.269911,-2.442644 -0.532353,-1.853301 -0.812319,-3.25469 -0.844248,-4.175996 -0.05485,-1.582572 -0.07201,-3.204443 -0.05145,-4.865598 0.0062,-0.504521 -0.178435,-0.992759 -0.517016,-1.36685 -0.741224,-0.818961 -2.006003,-0.881979 -2.824964,-0.140755 l -2.02524,1.833039 c -1.499852,1.357483 -3.17225,2.511165 -4.973898,3.431177 z m -13.19559,24.801773 c 0,0.275946 0.0571,0.548906 0.167717,0.801711 l 0.676197,1.545423 c 0.763792,1.74562 1.239155,3.603651 1.407542,5.501601 l 0.176775,1.992492 c 0.09762,1.100248 1.068674,1.913043 2.168922,1.815428 0.03918,-0.0037 0.03918,-0.0037 0.07825,-0.0085 l 2.284742,-0.293704 c 2.335537,-0.300234 4.568243,-1.143508 6.519112,-2.462214 l 3.137474,-2.1208 c 0.843899,-0.57044 1.124254,-1.683999 0.651073,-2.586033 l -4.179392,-7.967261 c -0.513113,-0.978156 -1.722025,-1.355149 -2.700181,-0.842037 -0.04484,0.02401 -0.04484,0.02401 -0.08884,0.04953 l -2.115499,1.250826 c -1.465407,0.866447 -3.136575,1.32354 -4.838969,1.32354 h -1.344924 c -1.10457,0 -2,0.89543 -2,2 z m 2.676196,1.545423 -0.676196,-1.545423 h 1.344924 c 2.060506,0 4.083218,-0.553246 5.856884,-1.601957 l 2.1155,-1.250826 4.179393,7.967261 -3.137475,2.1208 c -1.692004,1.143724 -3.628448,1.875103 -5.654078,2.135498 L 27.897035,58.945222 27.72026,56.95273 C 27.532744,54.839179 27.003382,52.770082 26.152825,50.826165 Z M 41.28025,43.150605 40.73238,42.69539 c 1.27736,-1.422547 2.437958,-2.524588 3.475405,-3.30476 0.88004,-0.661799 2.515903,-1.669138 4.887117,-3.005237 l 0.366933,0.674405 c 0.615109,1.130565 1.41024,2.153405 2.354169,3.028354 l 0.751549,0.696627 c -1.47246,0.964721 -2.708953,1.855933 -3.711027,2.67584 -1.030441,0.843116 -2.634363,2.300491 -4.822613,4.380507 l -0.531559,-1.502711 c -0.439851,-1.243457 -1.207628,-2.344903 -2.222104,-3.18781 z m 1.725479,-5.35843 c -1.151918,0.866254 -2.403609,2.054793 -3.761461,3.566981 -0.02546,0.02873 -0.02546,0.02873 -0.05019,0.0581 -0.70591,0.849594 -0.589431,2.110578 0.260163,2.816488 l 0.547905,0.455196 c 0.737148,0.61248 1.295067,1.412865 1.614692,2.316445 l 0.531555,1.502704 c 0.09373,0.264981 0.242262,0.507229 0.435906,0.71095 0.761013,0.800611 2.026964,0.832706 2.827554,0.07167 2.154778,-2.048199 3.728787,-3.478393 4.71117,-4.282189 0.942598,-0.771243 2.123311,-1.622251 3.540586,-2.550816 0.13584,-0.089 0.260334,-0.194212 0.370733,-0.313315 0.750882,-0.810081 0.702892,-2.075492 -0.10719,-2.826374 l -0.751539,-0.696638 c -0.784674,-0.727332 -1.445646,-1.577593 -1.95697,-2.517402 L 50.85172,35.429558 c -0.0071,-0.01302 -0.0071,-0.01302 -0.01438,-0.02597 -0.542238,-0.962325 -1.761931,-1.302871 -2.724251,-0.760619 -2.44289,1.376486 -4.138524,2.42063 -5.10736,3.149206 z"
       id="Combined-Shape"
       style="fill:#bebebe;fill-opacity:1;stroke:none"
       inkscape:connector-curvature="0" />
    <path
       d="M 15.190706,15.828478 C 9.6418726,14.786879 4.2692896,18.286469 3.1907057,23.64503"
       id="Shape"
       style="fill:#bebebe;fill-opacity:1;stroke:none;stroke-width:5;stroke-linecap:round;stroke-opacity:1"
       inkscape:connector-curvature="0" />
    <path
       d="M 20.190706,11.64503 C 16.799397,7.1161477 10.531383,6.3131631 6.1907057,9.8515138"
       id="Shape-Copy-2"
       style="fill:#bebebe;fill-opacity:1;stroke:none;stroke-width:5;stroke-linecap:round;stroke-opacity:0"
       inkscape:connector-curvature="0" />
    <path
       d="m 59,50 c 5.172217,-0.830641 8.701032,-5.755506 7.881898,-11.000004"
       id="Shape-Copy"
       style="fill:#bebebe;fill-opacity:1;stroke:none;stroke-width:5;stroke-linecap:round;stroke-opacity:1"
       inkscape:connector-curvature="0" />
  </g>
</svg>
