<svg id="Layer_1" data-name="Layer 1" xmlns="http://www.w3.org/2000/svg" viewBox="0 0 16 16"><defs><style>.cls-1{fill:#bebebe;}</style></defs><title>hack_tlbx_instructions</title><path class="cls-1" d="M3.37,13l3.15-4.9a.11.11,0,0,0,0-.11L3.37,3.05a.1.1,0,0,0-.08,0H1.13a.1.1,0,0,0-.08.16L4.12,8a.11.11,0,0,1,0,.11L1.05,12.85a.09.09,0,0,0,.08.15H3.29A.09.09,0,0,0,3.37,13Z"/><path class="cls-1" d="M11.82,13,15,8.06A.11.11,0,0,0,15,8l-3.15-4.9a.1.1,0,0,0-.08,0H9.58a.11.11,0,0,0-.09.16L12.57,8a.11.11,0,0,1,0,.11L9.49,12.85a.1.1,0,0,0,.09.15h2.16A.09.09,0,0,0,11.82,13Z"/><path class="cls-1" d="M7.6,13l3.14-4.9a.11.11,0,0,0,0-.11L7.6,3.05a.11.11,0,0,0-.09,0H5.35a.11.11,0,0,0-.08.16L8.35,8a.11.11,0,0,1,0,.11L5.27,12.85a.1.1,0,0,0,.08.15H7.51A.1.1,0,0,0,7.6,13Z"/></svg>