<svg id="Layer_1" data-name="Layer 1" xmlns="http://www.w3.org/2000/svg" viewBox="0 0 16 16"><defs><style>.cls-1{fill:#bebebe;}</style></defs><title>sidetrackArtboard 47</title><path class="cls-1" d="M12,10.42a1.24,1.24,0,0,1-.1.2l-.11.21h0a4.2,4.2,0,0,1-2.28,1.84h0l-.44.13a5.16,5.16,0,0,1-1,.1H7.82l-.29,0-.2,0-.1,0-.1,0-.29-.09h0a4.83,4.83,0,0,1-.58-.25h0l-.37-.22-.1.2-.11.21h0l0,0,.19.11.13.08.49.22.22.08.27.08a1.31,1.31,0,0,0,.27.06l.26.05.21,0h.2a4.41,4.41,0,0,0,1.31-.11h0L9.78,15a6.66,6.66,0,0,1-4.67-.41l-.21-.1-.2-.11a6.64,6.64,0,0,1-3-3.6,3.22,3.22,0,0,1-.14-.44A6.66,6.66,0,0,1,2,5.69l.1-.21.12-.2a6.62,6.62,0,0,1,3.59-3l.65,2.05a4.71,4.71,0,0,0-2.29,2L4,6.5a2,2,0,0,0-.1.21,4.68,4.68,0,0,0-.32,3c0,.15.08.3.13.45h0L4,10.09,4.18,10a3.74,3.74,0,0,1-.12-.45,4.17,4.17,0,0,1,.28-2.64h0l1.84,1a2,2,0,0,0-.1,1,2.25,2.25,0,0,0,.14.44,2,2,0,0,0,.68.81l.2.12.21.09a2,2,0,0,0,1,.1,2.25,2.25,0,0,0,.44-.14,1.89,1.89,0,0,0,.81-.68l.12-.2a.78.78,0,0,0,.09-.21,2,2,0,0,0,.1-1,1.71,1.71,0,0,0-.09-.3,1.21,1.21,0,0,0-.05-.14l-.06-.11a1,1,0,0,0-.13-.22l.7-1.07.21-.33.39-.6,0,0,.13.12h0l.16.17a4.35,4.35,0,0,1,.84,1.29,3.81,3.81,0,0,1,.15.44A4.23,4.23,0,0,1,12,10.42Z"/><path class="cls-1" d="M13.81,11.88a6.64,6.64,0,0,1-3.59,3l-.56-1.78a4.72,4.72,0,0,0,2.56-2.06Z"/><path class="cls-1" d="M9.33,7.92a.85.85,0,0,1,.09.22,1.74,1.74,0,0,1,.05.22h0a1.49,1.49,0,0,1-.06.69l-.09.21a1.37,1.37,0,0,1-.13.2,1.51,1.51,0,0,1-1,.58A1.35,1.35,0,0,1,7.53,10a.85.85,0,0,1-.22-.09l-.2-.12a1.52,1.52,0,0,1-.44-.54,1.41,1.41,0,0,1-.14-.44,1.61,1.61,0,0,1,.06-.69l.09-.22a1.27,1.27,0,0,1,.13-.19L4.55,6.52a4.21,4.21,0,0,1,2-1.74A3.12,3.12,0,0,1,7,4.63L6.22,2.14a6.65,6.65,0,0,1,4.45.31l.22.1h0l.21.1L11,2.8,10,4.36h0l-.23.35L9.55,5l-.19.29-.54.83-.19.29-.5.77,0,.67,0,.45.4-.15.72-.27"/><path class="cls-1" d="M14,11.47l-1.61-.84a4.7,4.7,0,0,0,.25-3.27c-.05-.15-.1-.29-.16-.44a4.64,4.64,0,0,0-1-1.55l-.17-.16-.18-.15,0,0,.2-.3.65-1,.2-.3.18.15.18.16A6.68,6.68,0,0,1,14.3,6.36a4.43,4.43,0,0,1,.14.44A6.66,6.66,0,0,1,14,11.47Z"/><path class="cls-1" d="M13.7,2,12.58,3.71l-.18-.16-.18-.15.84-1.29-1.13-.74L11.1,2.65l-.21-.1h0l-.22-.1L11.79.73Z"/></svg>