<?xml version="1.0" encoding="UTF-8" standalone="no"?>
<svg
   xmlns:dc="http://purl.org/dc/elements/1.1/"
   xmlns:cc="http://creativecommons.org/ns#"
   xmlns:rdf="http://www.w3.org/1999/02/22-rdf-syntax-ns#"
   xmlns:svg="http://www.w3.org/2000/svg"
   xmlns="http://www.w3.org/2000/svg"
   id="Layer_1"
   data-name="Layer 1"
   viewBox="0 0 16 16"
   version="1.1"
   width="16"
   height="16">
  <metadata
     id="metadata5054">
    <rdf:RDF>
      <cc:Work
         rdf:about="">
        <dc:format>image/svg+xml</dc:format>
        <dc:type
           rdf:resource="http://purl.org/dc/dcmitype/StillImage" />
        <dc:title>panel_ltspeed_Spawn</dc:title>
      </cc:Work>
    </rdf:RDF>
  </metadata>
  <defs
     id="defs5037">
    <style
       id="style5035">.cls-1{fill:none;}</style>
  </defs>
  <title
     id="title5039">panel_ltspeed_Spawn</title>
  <path
     id="circle5041"
     d="M 6.4181333,4.8256001 A 2.7637334,2.7637334 0 0 1 3.6543999,7.5893335 2.7637334,2.7637334 0 0 1 0.89066648,4.8256001 2.7637334,2.7637334 0 0 1 3.6543999,2.0618668 2.7637334,2.7637334 0 0 1 6.4181333,4.8256001 Z"
     style="fill:#bebebe;fill-opacity:1;stroke-width:0.10666667" />
  <path
     id="circle5043"
     d="M 16,2.7637331 A 2.7637334,2.7637334 0 0 1 13.236267,5.5274665 2.7637334,2.7637334 0 0 1 10.472534,2.7637331 2.7637334,2.7637334 0 0 1 13.236267,-2.3841858e-7 2.7637334,2.7637334 0 0 1 16,2.7637331 Z"
     style="fill:#bebebe;fill-opacity:1;stroke-width:0.10666667" />
  <path
     id="circle5045"
     d="M 15.326933,10.127999 A 2.7637334,2.7637334 0 0 1 12.5632,12.891733 2.7637334,2.7637334 0 0 1 9.7994666,10.127999 2.7637334,2.7637334 0 0 1 12.5632,7.3642659 2.7637334,2.7637334 0 0 1 15.326933,10.127999 Z"
     style="fill:#bebebe;fill-opacity:1;stroke-width:0.10666667" />
  <path
     d="M 10.052267,11.565866 7.9733336,10.898133 A 0.10666667,0.10666667 0 0 0 7.8368002,11.021866 L 8.0000003,11.776 5.3802668,12.3424 a 2.7552001,2.7552001 0 0 0 -0.4128,-0.776534 L 10.122667,6.6186661 10.656,7.1733328 a 0.10666667,0.10666667 0 0 0 0.1792,-0.043733 l 0.609067,-2.0970667 a 0.10666667,0.10666667 0 0 0 -0.128,-0.1333333 l -2.1205334,0.5216 a 0.10666667,0.10666667 0 0 0 -0.0512,0.1770667 L 9.677867,6.1567994 4.5237335,11.104 A 2.7530668,2.7530668 0 0 0 3.3760001,10.539733 l 0.0768,-0.7178668 0.768,0.082133 A 0.10666667,0.10666667 0 0 0 4.3274668,9.7546662 L 3.4464001,7.7578661 a 0.10666667,0.10666667 0 0 0 -0.1834667,-0.0192 L 1.9744001,9.5018662 a 0.10666667,0.10666667 0 0 0 0.075733,0.1685333 l 0.7669334,0.082133 -0.077867,0.7189335 A 2.7637334,2.7637334 0 1 0 5.5274668,13.2352 c 0,-0.09067 0,-0.1792 -0.0128,-0.266667 l 2.6197335,-0.5664 0.1632,0.754133 a 0.10666667,0.10666667 0 0 0 0.176,0.05653 l 1.6170667,-1.466667 a 0.10666667,0.10666667 0 0 0 -0.0384,-0.180267 z M 2.7637334,15.36 A 2.1237334,2.1237334 0 1 1 4.8874668,13.236266 2.1258667,2.1258667 0 0 1 2.7637334,15.36 Z"
     id="path5047"
     style="stroke-width:0.10666667;fill:#bebebe;fill-opacity:1" />
</svg>
