<svg id="Layer_1" data-name="Layer 1" xmlns="http://www.w3.org/2000/svg" viewBox="0 0 16 16"><defs><style>.cls-1{fill:#bebebe;}</style></defs><title>sidetrackArtboard 46</title><path class="cls-1" d="M13.15,4.93H2.85a.12.12,0,0,0-.12.12v9.13a.12.12,0,0,0,.12.12h10.3a.12.12,0,0,0,.12-.12V5.05A.12.12,0,0,0,13.15,4.93ZM4.78,8.51a.88.88,0,0,1,1.76,0,.88.88,0,1,1-1.76,0Zm5.56,3.09H5.66v-.35h4.68Zm0-2.21a.88.88,0,0,1,0-1.76.88.88,0,1,1,0,1.76Z"/><path class="cls-1" d="M2.37,7.26V12H1.09A.12.12,0,0,1,1,11.84V7.38a.13.13,0,0,1,.12-.12Z"/><path class="cls-1" d="M15,7.38v4.46a.12.12,0,0,1-.12.12H13.63V7.26h1.28A.13.13,0,0,1,15,7.38Z"/><path class="cls-1" d="M8,3.81a1.34,1.34,0,0,0,.35-.05V4.93h-.7V3.76A1.34,1.34,0,0,0,8,3.81Z"/><path class="cls-1" d="M8.88,2.58a.89.89,0,0,1-.53.81.91.91,0,0,1-.7,0,.89.89,0,0,1-.53-.81.88.88,0,0,1,1.76,0Z"/></svg>