<?xml version="1.0" encoding="UTF-8"?>
<svg width="25px" height="17px" viewBox="0 0 25 17" version="1.1" xmlns="http://www.w3.org/2000/svg" xmlns:xlink="http://www.w3.org/1999/xlink">
    <!-- Generator: Sketch 52.3 (67297) - http://www.bohemiancoding.com/sketch -->
    <title>eye</title>
    <desc>Created with Sketch.</desc>
    <g id="Hack-Panels" stroke="none" stroke-width="1" fill="none" fill-rule="evenodd">
        <g id="fizzics_panel_v04" transform="translate(-999.000000, -458.000000)" fill="#FFFFFF">
            <g id="Object-Module" transform="translate(838.000000, 326.000000)">
                <g id="Asset-Options" transform="translate(21.000000, 88.000000)">
                    <g id="eye" transform="translate(140.000000, 44.000000)">
                        <path d="M0.276639344,9.05983607 C1.8954918,11.0885246 6.71106557,16.4983607 12.4077869,16.4983607 C18.1045082,16.4983607 22.920082,11.0887295 24.5389344,9.05983607 C24.8870902,8.60901639 24.8870902,7.97377049 24.5389344,7.54364754 C22.920082,5.51495902 18.1045082,0.105122951 12.4077869,0.105122951 C6.71106557,0.0846311475 1.8954918,5.49446721 0.276639344,7.52315574 C-0.0922131148,7.97397541 -0.0922131148,8.60901639 0.276639344,9.05983607 Z M12.4077869,3.36331967 C15.1331967,3.36331967 17.3258197,5.55594262 17.3258197,8.28135246 C17.3258197,11.0067623 15.1331967,13.1993852 12.4077869,13.1993852 C9.68237705,13.1993852 7.4897541,11.0067623 7.4897541,8.28135246 C7.4897541,5.55594262 9.68237705,3.36331967 12.4077869,3.36331967 Z" id="Shape" fill-rule="nonzero"></path>
                        <circle id="Oval" cx="12.4077869" cy="8.28135246" r="2.45901639"></circle>
                    </g>
                </g>
            </g>
        </g>
    </g>
</svg>