<?xml version="1.0" encoding="UTF-8"?>
<svg width="25px" height="20px" viewBox="0 0 25 20" version="1.1" xmlns="http://www.w3.org/2000/svg" xmlns:xlink="http://www.w3.org/1999/xlink">
    <!-- Generator: Sketch 52.3 (67297) - http://www.bohemiancoding.com/sketch -->
    <title>speaker</title>
    <desc>Created with Sketch.</desc>
    <g id="Hack-Panels" stroke="none" stroke-width="1" fill="none" fill-rule="evenodd">
        <g id="fizzics_panel_v04" transform="translate(-999.000000, -505.000000)" fill="#FFFFFF" fill-rule="nonzero">
            <g id="speaker" transform="translate(999.000000, 505.000000)">
                <path d="M12.3795213,17.6917553 C12.3795213,18.1276596 12.1276596,18.5236702 11.7335106,18.7085106 C11.581117,18.7805851 11.4178191,18.8154255 11.2555851,18.8154255 C10.9986702,18.8154255 10.7441489,18.7271277 10.5385638,18.5566489 L4.39547872,13.4662234 L1.12367021,13.4662234 C0.503191489,13.4667553 0,12.9632979 0,12.3428191 L0,7.86595745 C0,7.24521277 0.503191489,6.74202128 1.12367021,6.74202128 L4.39574468,6.74202128 L10.5388298,1.65159574 C10.8744681,1.37340426 11.3398936,1.31409574 11.7337766,1.50026596 C12.1276596,1.68510638 12.3797872,2.08138298 12.3797872,2.51702128 L12.3795213,17.6917553 Z M16.6978723,15.9359043 C16.6704787,15.937766 16.6441489,15.9388298 16.6170213,15.9388298 C16.3202128,15.9388298 16.0340426,15.8215426 15.8226064,15.6098404 L15.6723404,15.4590426 C15.2781915,15.0656915 15.2319149,14.4425532 15.5638298,13.9952128 C16.4053191,12.8606383 16.8494681,11.5156915 16.8494681,10.1047872 C16.8494681,8.58723404 16.3452128,7.16382979 15.3909574,5.98829787 C15.0276596,5.54148936 15.0611702,4.89255319 15.4683511,4.4856383 L15.6183511,4.33537234 C15.8428191,4.11090426 16.143617,3.98856383 16.4691489,4.00797872 C16.7861702,4.02393617 17.0821809,4.1731383 17.2832447,4.41888298 C18.6069149,6.03856383 19.306117,8.00505319 19.306117,10.1050532 C19.306117,12.0609043 18.687766,13.9226064 17.5175532,15.4880319 C17.3220745,15.7489362 17.0231383,15.912766 16.6978723,15.9359043 Z M21.343617,19.4085106 C21.1404255,19.6486702 20.8465426,19.7928191 20.5319149,19.806117 C20.5164894,19.8066489 20.5007979,19.8071809 20.4848404,19.8071809 C20.187234,19.8071809 19.9015957,19.6896277 19.6901596,19.4781915 L19.5425532,19.3305851 C19.1300532,18.9183511 19.1021277,18.2590426 19.4771277,17.812766 C21.2893617,15.6574468 22.287766,12.9202128 22.287766,10.1047872 C22.287766,7.17632979 21.218883,4.35718085 19.2787234,2.16675532 C18.8853723,1.72207447 18.9053191,1.04893617 19.3239362,0.628723404 L19.4712766,0.481117021 C19.6898936,0.26143617 19.9739362,0.140425532 20.299734,0.150797872 C20.6090426,0.159574468 20.9015957,0.296276596 21.1071809,0.527659574 C23.4523936,3.16808511 24.7441489,6.56968085 24.7441489,10.1047872 C24.7446809,13.506117 23.5369681,16.8103723 21.343617,19.4085106 Z" id="Shape"></path>
            </g>
        </g>
    </g>
</svg>