<?xml version="1.0" encoding="UTF-8" standalone="no"?>
<svg
   xmlns:dc="http://purl.org/dc/elements/1.1/"
   xmlns:cc="http://creativecommons.org/ns#"
   xmlns:rdf="http://www.w3.org/1999/02/22-rdf-syntax-ns#"
   xmlns:svg="http://www.w3.org/2000/svg"
   xmlns="http://www.w3.org/2000/svg"
   xmlns:sodipodi="http://sodipodi.sourceforge.net/DTD/sodipodi-0.dtd"
   xmlns:inkscape="http://www.inkscape.org/namespaces/inkscape"
   version="1.1"
   x="0px"
   y="0px"
   viewBox="0 0 16 16"
   xml:space="preserve"
   id="svg154"
   sodipodi:docname="lightspeed-asteroid-symbolic.svg"
   width="16"
   height="16"
   inkscape:version="0.92.4 5da689c313, 2019-01-14"><metadata
     id="metadata160"><rdf:RDF><cc:Work
         rdf:about=""><dc:format>image/svg+xml</dc:format><dc:type
           rdf:resource="http://purl.org/dc/dcmitype/StillImage" /><dc:title></dc:title></cc:Work></rdf:RDF></metadata><defs
     id="defs158" /><sodipodi:namedview
     pagecolor="#ffffff"
     bordercolor="#666666"
     borderopacity="1"
     objecttolerance="10"
     gridtolerance="10"
     guidetolerance="10"
     inkscape:pageopacity="0"
     inkscape:pageshadow="2"
     inkscape:window-width="3200"
     inkscape:window-height="1648"
     id="namedview156"
     showgrid="false"
     inkscape:zoom="21.015385"
     inkscape:cx="-0.59956076"
     inkscape:cy="24.88653"
     inkscape:window-x="0"
     inkscape:window-y="0"
     inkscape:window-maximized="1"
     inkscape:current-layer="svg154" /><style
     type="text/css"
     id="style114">
	.st0{fill:none;stroke:#000000;stroke-width:2;stroke-linecap:round;stroke-miterlimit:10;}
</style><g
     id="g148"
     transform="matrix(0.3308771,0,0,0.33255189,-0.60280461,-0.646349)"
     style="fill:#bebebe;fill-opacity:1"><g
       id="g118"
       style="fill:#bebebe;fill-opacity:1"><path
         d="m 15.702576,45.449463 c -2.377442,0 -4.754883,-0.905273 -6.5649417,-2.715332 -3.6201172,-3.620117 -3.6201172,-9.510254 0,-13.130371 3.6201177,-3.620606 9.5102537,-3.620606 13.1303707,0 3.620118,3.620117 3.620118,9.510254 0,13.130371 -1.810058,1.810059 -4.1875,2.715332 -6.565429,2.715332 z m 4.88e-4,-16.562012 c -1.865723,0 -3.730957,0.710449 -5.151367,2.130371 -2.8403322,2.840332 -2.8403322,7.461914 0,10.302246 2.840332,2.839356 7.460937,2.840332 10.302246,0 2.840332,-2.840332 2.840332,-7.461914 0,-10.302246 -1.42041,-1.419922 -3.285645,-2.130371 -5.150879,-2.130371 z"
         id="path116"
         inkscape:connector-curvature="0"
         style="fill:#bebebe;fill-opacity:1" /></g><g
       id="g122"
       style="fill:#bebebe;fill-opacity:1"><path
         d="m 15.702576,50.056396 c -3.709473,0 -7.1967776,-1.444824 -9.8198245,-4.067871 -5.4145508,-5.41455 -5.4145508,-14.224609 0,-19.63916 L 29.995544,2.2365722 c 0.390625,-0.390625 1.023438,-0.390625 1.414063,0 0.390625,0.390625 0.390625,1.0234375 0,1.4140625 L 7.296814,27.763428 c -4.6347656,4.634765 -4.6347656,12.176269 0,16.811035 2.2456055,2.245117 5.230957,3.481933 8.405762,3.481933 3.175293,0 6.160644,-1.236816 8.405761,-3.481933 L 48.47113,20.212158 c 0.390625,-0.390625 1.023438,-0.390625 1.414063,0 0.390625,0.390625 0.390625,1.023438 0,1.414063 L 25.5224,45.988525 c -2.623047,2.623047 -6.110352,4.067871 -9.819824,4.067871 z"
         id="path120"
         inkscape:connector-curvature="0"
         style="fill:#bebebe;fill-opacity:1" /></g><g
       id="g126"
       style="fill:#bebebe;fill-opacity:1"><path
         d="m 17.815369,34.056396 c -0.827149,0 -1.5,-0.672851 -1.5,-1.5 0,-0.827148 0.672851,-1.5 1.5,-1.5 0.827148,0 1.5,0.672852 1.5,1.5 0,0.827149 -0.672852,1.5 -1.5,1.5 z m 0,-2 c -0.275879,0 -0.5,0.224122 -0.5,0.5 0,0.275879 0.224121,0.5 0.5,0.5 0.275879,0 0.5,-0.224121 0.5,-0.5 0,-0.275878 -0.224121,-0.5 -0.5,-0.5 z"
         id="path124"
         inkscape:connector-curvature="0"
         style="fill:#bebebe;fill-opacity:1" /></g><g
       id="g130"
       style="fill:#bebebe;fill-opacity:1"><path
         d="m 18.815369,40.056396 c -1.103028,0 -2,-0.896972 -2,-2 0,-1.103027 0.896972,-2 2,-2 1.103027,0 2,0.896973 2,2 0,1.103028 -0.896973,2 -2,2 z m 0,-2 h 0.0098 z m 0,0 h 0.0098 z m 0,0 h 0.0098 z m 0,-4.88e-4 h 0.0098 z m 0,0 h 0.0098 z m 0,-4.88e-4 h 0.0098 z m 0,0 h 0.0098 z m 0,0 h 0.0098 z"
         id="path128"
         inkscape:connector-curvature="0"
         style="fill:#bebebe;fill-opacity:1" /></g><g
       id="g134"
       style="fill:#bebebe;fill-opacity:1"><path
         d="m 12.815369,38.556396 c -1.378418,0 -2.5,-1.121581 -2.5,-2.5 0,-1.378418 1.121582,-2.5 2.5,-2.5 1.378418,0 2.5,1.121582 2.5,2.5 0,1.378419 -1.121582,2.5 -2.5,2.5 z m 0,-3 c -0.275879,0 -0.5,0.224122 -0.5,0.5 0,0.275879 0.224121,0.5 0.5,0.5 0.275879,0 0.5,-0.224121 0.5,-0.5 0,-0.275878 -0.224121,-0.5 -0.5,-0.5 z"
         id="path132"
         inkscape:connector-curvature="0"
         style="fill:#bebebe;fill-opacity:1" /></g><g
       id="g138"
       style="fill:#bebebe;fill-opacity:1"><path
         d="m 23.101013,22.485107 c -0.255859,0 -0.511719,-0.09766 -0.707031,-0.292968 -0.390625,-0.390625 -0.390625,-1.023438 0,-1.414063 l 10,-10 c 0.390625,-0.390625 1.023437,-0.390625 1.414062,0 0.390625,0.390625 0.390625,1.023438 0,1.414063 l -10,10 c -0.195312,0.195312 -0.451171,0.292968 -0.707031,0.292968 z"
         id="path136"
         inkscape:connector-curvature="0"
         style="fill:#bebebe;fill-opacity:1" /></g><g
       id="g142"
       style="fill:#bebebe;fill-opacity:1"><path
         d="m 30.601013,29.985107 c -0.255859,0 -0.511719,-0.09766 -0.707031,-0.292968 -0.390625,-0.390625 -0.390625,-1.023438 0,-1.414063 l 10,-10 c 0.390625,-0.390625 1.023437,-0.390625 1.414062,0 0.390625,0.390625 0.390625,1.023438 0,1.414063 l -10,10 c -0.195312,0.195312 -0.451171,0.292968 -0.707031,0.292968 z"
         id="path140"
         inkscape:connector-curvature="0"
         style="fill:#bebebe;fill-opacity:1" /></g><g
       id="g146"
       style="fill:#bebebe;fill-opacity:1"><path
         d="m 24.996521,27.999756 c -0.255859,0 -0.511719,-0.09766 -0.707031,-0.292969 -0.390625,-0.390625 -0.390625,-1.023437 0,-1.414062 l 4.166992,-4.166504 c 0.390625,-0.390625 1.023437,-0.390625 1.414062,0 0.390625,0.390625 0.390625,1.023437 0,1.414062 l -4.166992,4.166504 C 25.50824,27.9021 25.25238,27.999756 24.996521,27.999756 Z"
         id="path144"
         inkscape:connector-curvature="0"
         style="fill:#bebebe;fill-opacity:1" /></g></g></svg>