<?xml version="1.0" encoding="UTF-8" standalone="no"?>
<svg
   xmlns:dc="http://purl.org/dc/elements/1.1/"
   xmlns:cc="http://creativecommons.org/ns#"
   xmlns:rdf="http://www.w3.org/1999/02/22-rdf-syntax-ns#"
   xmlns:svg="http://www.w3.org/2000/svg"
   xmlns="http://www.w3.org/2000/svg"
   id="Layer_1"
   data-name="Layer 1"
   viewBox="0 0 16 16"
   version="1.1"
   width="16"
   height="16">
  <metadata
     id="metadata881">
    <rdf:RDF>
      <cc:Work
         rdf:about="">
        <dc:format>image/svg+xml</dc:format>
        <dc:type
           rdf:resource="http://purl.org/dc/dcmitype/StillImage" />
        <dc:title>panel_ltspeed_Asteroid</dc:title>
      </cc:Work>
    </rdf:RDF>
  </metadata>
  <defs
     id="defs870">
    <style
       id="style868">.cls-1{fill:none;}</style>
  </defs>
  <title
     id="title872">panel_ltspeed_Asteroid</title>
  <path
     d="m 12.292528,1.143291 -1.981241,1.9801526 a 0.39816954,0.39816547 0 0 1 -0.5401439,0 l -0.080061,-0.08006 a 0.4003045,0.40030041 0 0 1 0,-0.5401386 L 11.672323,0.52309217 a 0.39816954,0.39816547 0 0 1 0.540144,0 l 0.08006,0.08006 a 0.4003045,0.40030041 0 0 1 0,0.54013873 z m 1.200913,4.0019366 -0.08006,-0.08006 a 0.39923702,0.39923294 0 0 0 -0.541211,0 L 11.972285,5.965043 a 0.4003045,0.40030041 0 0 0 0,0.5401386 l 0.08006,0.08006 a 0.4003045,0.40030041 0 0 0 0.540144,0 l 0.900952,-0.8998753 a 0.4003045,0.40030041 0 0 0 0,-0.5401387 z m 1.199846,-3.0220012 -3.36149,3.361456 a 1.2318704,1.2318578 0 0 0 0,1.7410399 v 0 a 1.2318704,1.2318578 0 0 0 1.741058,0 l 1.680211,-1.6812617 a 0.77605699,0.77604906 0 0 1 1.120853,0 v 0 a 0.77392204,0.77391413 0 0 1 0,1.1208411 L 8.5702296,13.968917 v 0 c -0.059779,0.05978 -0.1195576,0.139838 -0.1793364,0.199616 A 4.852758,4.8527084 0 0 1 1.5280728,7.3057824 1.7741496,1.7741314 0 0 1 1.7276913,7.1253803 v 0 L 6.8697361,1.9833881 a 0.77392204,0.77391413 0 0 1 1.1208526,0 v 0 a 0.77392204,0.77391413 0 0 1 0,1.1208411 L 6.9700791,4.1247284 a 1.2308029,1.2307903 0 0 0 0,1.7399725 v 0 a 1.2318704,1.2318578 0 0 0 1.7410577,0 L 13.572435,1.0034527 a 0.77392204,0.77391413 0 0 1 1.120852,0 v 0 a 0.80914883,0.80914056 0 0 1 0,1.1197737 z m -9.4674681,3.7222601 -0.039497,0.039496 h 0.080061 z m 2.0410192,7.1829905 a 3.2544125,3.2543793 0 0 0 -4.602968,-4.6018535 3.2355279,3.2354948 0 0 0 0,4.6018535 3.2728896,3.2728562 0 0 0 4.6061705,0 z M 9.828787,10.44734 9.78929,10.406776 v 0.08006 z"
     id="path874"
     style="stroke-width:0.10674732;fill:#bebebe;fill-opacity:1" />
</svg>
