<?xml version="1.0" encoding="UTF-8" standalone="no"?>
<svg
   xmlns:dc="http://purl.org/dc/elements/1.1/"
   xmlns:cc="http://creativecommons.org/ns#"
   xmlns:rdf="http://www.w3.org/1999/02/22-rdf-syntax-ns#"
   xmlns:svg="http://www.w3.org/2000/svg"
   xmlns="http://www.w3.org/2000/svg"
   xmlns:sodipodi="http://sodipodi.sourceforge.net/DTD/sodipodi-0.dtd"
   xmlns:inkscape="http://www.inkscape.org/namespaces/inkscape"
   version="1.1"
   x="0px"
   y="0px"
   viewBox="0 0 16 16"
   xml:space="preserve"
   id="svg4788"
   sodipodi:docname="lightspeed-astronaut-symbolic.svg"
   width="16"
   height="16"
   inkscape:version="0.92.4 5da689c313, 2019-01-14"><metadata
     id="metadata4794"><rdf:RDF><cc:Work
         rdf:about=""><dc:format>image/svg+xml</dc:format><dc:type
           rdf:resource="http://purl.org/dc/dcmitype/StillImage" /><dc:title></dc:title></cc:Work></rdf:RDF></metadata><defs
     id="defs4792" /><sodipodi:namedview
     pagecolor="#ffffff"
     bordercolor="#666666"
     borderopacity="1"
     objecttolerance="10"
     gridtolerance="10"
     guidetolerance="10"
     inkscape:pageopacity="0"
     inkscape:pageshadow="2"
     inkscape:window-width="3200"
     inkscape:window-height="1648"
     id="namedview4790"
     showgrid="false"
     inkscape:zoom="38.636314"
     inkscape:cx="17.740527"
     inkscape:cy="12.071345"
     inkscape:window-x="0"
     inkscape:window-y="0"
     inkscape:window-maximized="1"
     inkscape:current-layer="svg4788" /><g
     id="g4782"
     transform="matrix(0.11379801,0,0,0.11194318,-1.1038407,-0.95151684)"
     style="fill:#bebebe;fill-opacity:1"><path
       d="M 148.7,73.2 H 146 c -0.8,0 -1.5,0.7 -1.5,1.5 0,0.8 0.7,1.5 1.5,1.5 h 2.8 c 0.8,0 1.5,-0.7 1.5,-1.5 0,-0.8 -0.8,-1.5 -1.6,-1.5 z"
       id="path4768"
       inkscape:connector-curvature="0"
       style="fill:#bebebe;fill-opacity:1" /><path
       d="m 64.2,114.6 c -1.8,0 -3.5,0.5 -5.1,1.4 -1.5,0.9 -2.8,2.2 -3.7,3.7 l -1.6,2.9 H 74.6 L 73,119.7 c -1.8,-3.2 -5.1,-5.1 -8.8,-5.1 z"
       id="path4770"
       inkscape:connector-curvature="0"
       style="fill:#bebebe;fill-opacity:1" /><path
       d="M 42,97.6 V 73.2 h -8.2 v 38.6 c 0,0.8 0.1,1.5 0.2,2.2 l 6.7,-11.8 c 0.9,-1.4 1.3,-3 1.3,-4.6 z"
       id="path4772"
       inkscape:connector-curvature="0"
       style="fill:#bebebe;fill-opacity:1" /><path
       d="m 42,46.9 c 0,-12.2 9.9,-22.1 22.1,-22.1 12.2,0 22.1,9.9 22.1,22.1 0,3.1 -0.7,6.1 -1.9,8.8 H 94.8 V 29.2 C 94.8,23.3 90,18.5 84.1,18.5 H 51.5 V 10 C 51.5,9.2 50.8,8.5 50,8.5 49.2,8.5 48.5,9.2 48.5,10 v 8.5 h -3.9 c -5.9,0 -10.7,4.8 -10.7,10.7 v 26.5 h 10 C 42.7,53 42,50.1 42,46.9 Z"
       id="path4774"
       inkscape:connector-curvature="0"
       style="fill:#bebebe;fill-opacity:1" /><path
       d="m 85.1,103.7 c -1.1,-1.9 -1.6,-4 -1.6,-6.2 V 71.7 c 0,-0.8 0.7,-1.5 1.5,-1.5 h 28 c 1.5,0 3,-0.6 4,-1.7 1,-1.1 1.7,-2.5 1.7,-4 0,-3.1 -2.6,-5.7 -5.7,-5.7 H 82.8 C 78.9,64.9 72,69 64.1,69 56.2,69 49.4,64.9 45.4,58.7 h -30 c -1.5,0 -3,0.6 -4,1.7 -1.1,1.1 -1.7,2.5 -1.7,4 0,3.2 2.6,5.7 5.7,5.7 h 28 c 0.8,0 1.5,0.7 1.5,1.5 v 25.9 c 0,2.2 -0.6,4.3 -1.7,6.2 l -20.6,36.2 c -1,1.8 -1.3,3.9 -0.8,5.8 0.5,2 1.8,3.6 3.5,4.6 0,0 0.1,0 0.1,0.1 3.7,2.1 8.4,0.9 10.5,-2.8 l 16.8,-29.5 c 1.2,-2 2.8,-3.7 4.8,-4.8 2,-1.2 4.3,-1.8 6.6,-1.8 4.7,0 9,2.5 11.4,6.6 l 16.8,29.5 c 2.1,3.7 6.8,4.9 10.5,2.8 1.8,-1 3.1,-2.7 3.6,-4.7 0.5,-2 0.3,-4.1 -0.8,-5.8 z m -29,-26.8 h 16.3 c 0.6,0 1,0.4 1,1 v 5.6 c 0,0.6 -0.4,1 -1,1 H 56.1 c -0.6,0 -1,-0.4 -1,-1 v -5.6 c 0,-0.6 0.4,-1 1,-1 z m 8.1,18 H 53.6 c -0.8,0 -1.5,-0.7 -1.5,-1.5 0,-0.8 0.7,-1.5 1.5,-1.5 h 10.6 c 0.8,0 1.5,0.7 1.5,1.5 0,0.8 -0.6,1.5 -1.5,1.5 z m 10.7,0 h -2.5 c -0.8,0 -1.5,-0.7 -1.5,-1.5 0,-0.8 0.7,-1.5 1.5,-1.5 h 2.5 c 0.8,0 1.5,0.7 1.5,1.5 0,0.8 -0.7,1.5 -1.5,1.5 z"
       id="path4776"
       inkscape:connector-curvature="0"
       style="fill:#bebebe;fill-opacity:1" /><path
       d="M 64.1,27.8 C 53.6,27.8 45,36.4 45,46.9 45,57.4 53.6,66 64.1,66 74.6,66 83.2,57.4 83.2,46.9 83.2,36.4 74.7,27.8 64.1,27.8 Z m 0.1,32.6 c -7.1,0 -12.8,-5.7 -12.8,-12.8 0,-8.8 8.9,-9.7 12.8,-9.7 3.9,0 12.8,0.9 12.8,9.7 0,7 -5.7,12.8 -12.8,12.8 z"
       id="path4778"
       inkscape:connector-curvature="0"
       style="fill:#bebebe;fill-opacity:1" /><path
       d="m 138,73.2 c -7.2,0 -13,5.8 -13,13 v 16.9 c 0,3.6 -3,6.6 -6.6,6.6 -3.6,0 -6.6,-3 -6.6,-6.6 v -5.7 c 0,-6.3 -5.1,-11.5 -11.5,-11.5 H 94.8 V 73.2 h -8.4 v 24.4 c 0,1.6 0.4,3.3 1.2,4.7 l 6.9,12 c 0.2,-0.8 0.3,-1.6 0.3,-2.5 V 88.9 h 5.5 c 4.7,0 8.5,3.8 8.5,8.5 v 5.7 c 0,5.3 4.3,9.6 9.6,9.6 5.3,0 9.6,-4.3 9.6,-9.6 v -17 c 0,-5.5 4.5,-10 10,-10 0.8,0 1.5,-0.7 1.5,-1.5 0,-0.8 -0.7,-1.4 -1.5,-1.4 z"
       id="path4780"
       inkscape:connector-curvature="0"
       style="fill:#bebebe;fill-opacity:1" /></g></svg>