<?xml version="1.0" encoding="UTF-8" standalone="no"?>
<svg
   xmlns:dc="http://purl.org/dc/elements/1.1/"
   xmlns:cc="http://creativecommons.org/ns#"
   xmlns:rdf="http://www.w3.org/1999/02/22-rdf-syntax-ns#"
   xmlns:svg="http://www.w3.org/2000/svg"
   xmlns="http://www.w3.org/2000/svg"
   xmlns:sodipodi="http://sodipodi.sourceforge.net/DTD/sodipodi-0.dtd"
   xmlns:inkscape="http://www.inkscape.org/namespaces/inkscape"
   data-name="Layer 1 copy 3"
   viewBox="0 0 16 16"
   x="0px"
   y="0px"
   version="1.1"
   id="svg1057"
   sodipodi:docname="lightspeed-beam-symbolic.svg"
   width="16"
   height="16"
   inkscape:version="0.92.4 5da689c313, 2019-01-14">
  <metadata
     id="metadata1063">
    <rdf:RDF>
      <cc:Work
         rdf:about="">
        <dc:format>image/svg+xml</dc:format>
        <dc:type
           rdf:resource="http://purl.org/dc/dcmitype/StillImage" />
        <dc:title>factory-industry-laser-robotics</dc:title>
      </cc:Work>
    </rdf:RDF>
  </metadata>
  <defs
     id="defs1061" />
  <sodipodi:namedview
     pagecolor="#ffffff"
     bordercolor="#666666"
     borderopacity="1"
     objecttolerance="10"
     gridtolerance="10"
     guidetolerance="10"
     inkscape:pageopacity="0"
     inkscape:pageshadow="2"
     inkscape:window-width="3200"
     inkscape:window-height="1648"
     id="namedview1059"
     showgrid="false"
     inkscape:zoom="17.075"
     inkscape:cx="32.556369"
     inkscape:cy="37.657394"
     inkscape:window-x="0"
     inkscape:window-y="0"
     inkscape:window-maximized="1"
     inkscape:current-layer="svg1057" />
  <title
     id="title1021">factory-industry-laser-robotics</title>
  <g
     id="g1080"
     transform="matrix(0,-0.26666667,0.26664456,0,-0.53262582,16.5335)"
     style="fill:#bebebe;fill-opacity:1">
    <rect
       id="rect1023"
       height="2"
       width="31"
       y="27"
       x="6"
       style="fill:#bebebe;fill-opacity:1" />
    <rect
       id="rect1025"
       height="2"
       width="21"
       y="35"
       x="2"
       style="fill:#bebebe;fill-opacity:1" />
    <rect
       id="rect1027"
       height="2"
       width="2"
       y="27"
       x="2"
       style="fill:#bebebe;fill-opacity:1" />
    <rect
       id="rect1029"
       height="2"
       width="2"
       y="31"
       x="17"
       style="fill:#bebebe;fill-opacity:1" />
    <rect
       id="rect1031"
       height="2"
       width="6"
       y="31"
       x="21"
       style="fill:#bebebe;fill-opacity:1" />
    <rect
       id="rect1033"
       height="2"
       width="6"
       y="31"
       x="29"
       style="fill:#bebebe;fill-opacity:1" />
    <rect
       id="rect1035"
       height="2"
       width="13"
       y="31"
       x="2"
       style="fill:#bebebe;fill-opacity:1" />
    <rect
       id="rect1037"
       height="2"
       width="2"
       y="27"
       x="39"
       style="fill:#bebebe;fill-opacity:1" />
    <rect
       id="rect1039"
       height="2"
       width="2"
       y="31"
       x="37"
       style="fill:#bebebe;fill-opacity:1" />
    <rect
       id="rect1041"
       height="2"
       width="2"
       y="35"
       x="25"
       style="fill:#bebebe;fill-opacity:1" />
    <rect
       id="rect1043"
       height="2"
       width="7"
       y="35"
       x="29"
       style="fill:#bebebe;fill-opacity:1" />
    <rect
       id="rect1045"
       height="2"
       width="2"
       y="35"
       x="39"
       style="fill:#bebebe;fill-opacity:1" />
    <path
       id="path1047"
       d="m 44.5,27 c -1.727,0 -2.5,2.511 -2.5,5 0,2.489 0.773,5 2.5,5 1.727,0 2.5,-2.511 2.5,-5 0,-2.489 -0.773,-5 -2.5,-5 z m 0,7.773 A 6.636,6.636 0 0 1 44,32 6.636,6.636 0 0 1 44.5,29.227 6.636,6.636 0 0 1 45,32 6.636,6.636 0 0 1 44.5,34.773 Z"
       inkscape:connector-curvature="0"
       style="fill:#bebebe;fill-opacity:1" />
    <path
       id="path1049"
       d="m 60.8,22.02 -5,1 A 1,1 0 0 0 55,24 v 0.166 l -4.615,0.839 C 48.174,25.178 48,30.386 48,32 c 0,1.614 0.174,6.822 2.385,6.995 L 55,39.834 V 40 a 1,1 0 0 0 0.8,0.98 l 5,1 A 1,1 0 0 0 62,41 V 23 A 1,1 0 0 0 60.8,22.02 Z M 50.781,37.035 A 11.878,11.878 0 0 1 50,32 11.878,11.878 0 0 1 50.781,26.965 L 55,26.2 V 37.8 Z M 60,39.78 57,39.18 V 24.819 l 3,-0.6 z"
       inkscape:connector-curvature="0"
       style="fill:#bebebe;fill-opacity:1" />
    <path
       id="path1051"
       d="m 53.35,34.438 -0.2,-1.027 -1.961,0.387 0.333,1.693 a 1,1 0 0 0 0.8,0.79 l 1.437,0.265 0.363,-1.967 z"
       inkscape:connector-curvature="0"
       style="fill:#bebebe;fill-opacity:1" />
  </g>
</svg>
