<?xml version="1.0" encoding="UTF-8" standalone="no"?>
<svg
   xmlns:dc="http://purl.org/dc/elements/1.1/"
   xmlns:cc="http://creativecommons.org/ns#"
   xmlns:rdf="http://www.w3.org/1999/02/22-rdf-syntax-ns#"
   xmlns:svg="http://www.w3.org/2000/svg"
   xmlns="http://www.w3.org/2000/svg"
   xmlns:sodipodi="http://sodipodi.sourceforge.net/DTD/sodipodi-0.dtd"
   xmlns:inkscape="http://www.inkscape.org/namespaces/inkscape"
   id="Layer_1"
   data-name="Layer 1"
   viewBox="0 0 16 16"
   version="1.1"
   sodipodi:docname="powerup-symbolic.svg"
   inkscape:version="0.92.4 5da689c313, 2019-01-14">
  <metadata
     id="metadata151">
    <rdf:RDF>
      <cc:Work
         rdf:about="">
        <dc:format>image/svg+xml</dc:format>
        <dc:type
           rdf:resource="http://purl.org/dc/dcmitype/StillImage" />
      </cc:Work>
    </rdf:RDF>
  </metadata>
  <sodipodi:namedview
     pagecolor="#ffffff"
     bordercolor="#666666"
     borderopacity="1"
     objecttolerance="10"
     gridtolerance="10"
     guidetolerance="10"
     inkscape:pageopacity="0"
     inkscape:pageshadow="2"
     inkscape:window-width="1360"
     inkscape:window-height="692"
     id="namedview149"
     showgrid="false"
     inkscape:zoom="20.85965"
     inkscape:cx="3.359097"
     inkscape:cy="7.8586201"
     inkscape:window-x="0"
     inkscape:window-y="0"
     inkscape:window-maximized="1"
     inkscape:current-layer="Layer_1" />
  <defs
     id="defs138">
    <style
       id="style136">.cls-1{fill:none;}.cls-2{fill:#bebebe;}</style>
  </defs>
  <title
     id="title140">symbolic_hack_tlbx_topic_pwrup</title>
  <path
     class="cls-2"
     d="M11.42,2,9.31,7.09h2.33a.27.27,0,0,1,.19.47L5.15,14.24a.11.11,0,0,0,0,.17A7,7,0,0,0,11.56,2,.1.1,0,0,0,11.42,2Z"
     id="path144" />
  <path
     class="cls-2"
     d="M6.69,8.9H4.36a.27.27,0,0,1-.19-.46l6.68-6.68a.1.1,0,0,0,0-.17A6.94,6.94,0,0,0,8,1,7.12,7.12,0,0,0,1,7.88,7,7,0,0,0,4.44,14a.12.12,0,0,0,.15,0Z"
     id="path146" />
</svg>
