<?xml version="1.0" encoding="UTF-8" standalone="no"?>
<svg
   xmlns:dc="http://purl.org/dc/elements/1.1/"
   xmlns:cc="http://creativecommons.org/ns#"
   xmlns:rdf="http://www.w3.org/1999/02/22-rdf-syntax-ns#"
   xmlns:svg="http://www.w3.org/2000/svg"
   xmlns="http://www.w3.org/2000/svg"
   height="16"
   width="16"
   version="1.1"
   viewBox="0 0 16 16"
   data-name="Layer 1"
   id="Layer_1">
  <metadata
     id="metadata4905">
    <rdf:RDF>
      <cc:Work
         rdf:about="">
        <dc:format>image/svg+xml</dc:format>
        <dc:type
           rdf:resource="http://purl.org/dc/dcmitype/StillImage" />
        <dc:title>panel_ltspeed_Game</dc:title>
      </cc:Work>
    </rdf:RDF>
  </metadata>
  <defs
     id="defs4892">
    <style
       id="style4890">.cls-1{fill:none;}</style>
  </defs>
  <title
     id="title4894">panel_ltspeed_Game</title>
  <path
     style="stroke-width:0.10666667;fill:#bebebe;fill-opacity:1"
     id="path4896"
     d="m 1.7728001,4.519466 3.7994667,2.0800001 a 3.5008001,3.5008001 0 0 0 -0.1205333,0.3392 c -0.039467,0.1408 -0.08,0.24 -0.1397333,0.4 v 0 a 2.6592001,2.6592001 0 0 0 3.2800001,3.2799999 l 0.039467,-0.02027 a 1.5701334,1.5701334 0 0 0 0.4,-0.139734 C 9.1317336,10.4192 9.2309336,10.398933 9.3312003,10.3584 l 2.1002667,3.819733 c 0.16,0.379733 0.679467,0.520533 0.859733,0.200533 l 2.0192,-3.400533 A 1.4250667,1.4250667 0 0 0 14.4512,9.9786662 L 14.170667,6.7786661 C 15.5104,5.2991994 15.930667,3.399466 15.9904,0.90026591 V 0.29973256 A 0.30720001,0.30720001 0 0 0 15.690667,-7.8e-7 H 15.0912 C 12.570667,0.03946589 10.666667,0.47999923 9.1509336,1.7994659 L 5.9509335,1.5199993 A 1.3973334,1.3973334 0 0 0 4.9504002,1.6597326 L 1.552,3.6799993 C 1.2522667,3.8591993 1.3728,4.359466 1.7728001,4.519466 Z M 13.4912,2.4597326 a 1.6832001,1.6832001 0 1 1 -2.379733,0 1.6789334,1.6789334 0 0 1 2.379733,0 z" />
  <path
     style="stroke-width:0.10666667;fill:#bebebe;fill-opacity:1"
     id="path4898"
     d="M 6.4917335,12.0384 A 2.5376001,2.5376001 0 0 0 1.552,11.218133 l -1.51893333,4.3552 a 0.30826668,0.30826668 0 0 0 0.40000001,0.4 L 4.7914668,14.4544 a 2.5984001,2.5984001 0 0 0 1.7002667,-2.416 z m -1.8197334,1.460266 -2.2794667,0.359467 c -0.16,0.05973 -0.3402667,-0.100267 -0.2602667,-0.260267 L 2.4928001,11.3184 a 1.7152001,1.7152001 0 0 1 3.3386667,0.56 1.7738667,1.7738667 0 0 1 -1.1594667,1.620266 z" />
</svg>
