<?xml version="1.0" encoding="UTF-8" standalone="no"?>
<svg
   xmlns:dc="http://purl.org/dc/elements/1.1/"
   xmlns:cc="http://creativecommons.org/ns#"
   xmlns:rdf="http://www.w3.org/1999/02/22-rdf-syntax-ns#"
   xmlns:svg="http://www.w3.org/2000/svg"
   xmlns="http://www.w3.org/2000/svg"
   height="16"
   width="16"
   version="1.1"
   viewBox="0 0 16 16"
   data-name="Layer 1"
   id="Layer_1">
  <metadata
     id="metadata5161">
    <rdf:RDF>
      <cc:Work
         rdf:about="">
        <dc:format>image/svg+xml</dc:format>
        <dc:type
           rdf:resource="http://purl.org/dc/dcmitype/StillImage" />
        <dc:title>panel_ltspeed_Spinner</dc:title>
      </cc:Work>
    </rdf:RDF>
  </metadata>
  <defs
     id="defs5150">
    <style
       id="style5148">.cls-1{fill:none;}</style>
  </defs>
  <title
     id="title5152">panel_ltspeed_Spinner</title>
  <path
     style="stroke-width:0.10668243;fill:#bebebe;fill-opacity:1"
     id="path5154"
     d="M 15.890308,8.067518 13.432226,6.5114884 a 0.23461088,0.23479185 0 0 0 -0.09811,-0.03095 0.22501316,0.22518673 0 0 1 0,-0.088581 L 13.775611,3.6075401 A 0.21328262,0.21344714 0 0 0 13.400233,3.4165049 L 9.467302,7.3492684 8.8978374,6.7793646 12.816905,2.8562062 A 0.21861468,0.21878332 0 0 0 12.624951,2.4858754 L 9.8629412,2.9671987 A 0.2282124,0.22838844 0 0 1 9.7701632,2.9618625 0.21328262,0.21344714 0 0 0 9.7392372,2.864744 L 8.1769421,0.35353846 A 0.21328262,0.21344714 0 0 0 7.9935191,0.2500166 0.2196811,0.21985055 0 0 0 7.8090296,0.35674017 L 6.2478009,2.8124495 a 0.21328262,0.21344714 0 0 0 -0.030926,0.097118 0.21328262,0.21344714 0 0 1 -0.088512,0.00534 L 3.3460912,2.4730685 A 0.21328262,0.21344714 0 0 0 3.1573361,2.8433993 L 7.0892011,6.7793646 6.5197365,7.3492684 2.5868048,3.4165049 A 0.21328262,0.21344714 0 0 0 2.2167594,3.6054056 l 0.4446943,2.7822835 a 0.20688414,0.20704372 0 0 1 0,0.08858 0.23461088,0.23479185 0 0 0 -0.1066413,0.035219 L 0.10206228,8.067518 a 0.21328262,0.21344714 0 0 0 0,0.3703308 L 2.608133,10.001349 a 0.21328262,0.21344714 0 0 0 0.097044,0.03095 0.23141164,0.23159014 0 0 1 0.00533,0.09392 l -0.4756203,2.763073 a 0.21328262,0.21344714 0 0 0 0.3700454,0.192102 L 6.378968,9.299108 6.949499,9.8700791 3.1573358,13.661968 a 0.21328262,0.21344714 0 0 0 0.1887551,0.37033 l 2.7822717,-0.441835 a 0.22607957,0.22625397 0 0 1 0.088512,0 0.22074751,0.22091779 0 0 0 0.030926,0.09819 l 1.5590959,2.454643 A 0.2196811,0.21985055 0 0 0 7.991386,16.250019 0.21328262,0.21344714 0 0 0 8.1769418,16.143296 L 9.7392373,13.63209 a 0.21328262,0.21344714 0 0 0 0.030926,-0.09712 0.2282124,0.22838844 0 0 1 0.092778,0 l 2.7620097,0.481324 a 0.21328262,0.21344714 0 0 0 0.191954,-0.370331 L 9.0375376,9.8700791 9.6080686,9.299108 13.387436,13.081391 a 0.21328262,0.21344714 0 0 0 0.370046,-0.192102 L 13.27653,10.126216 a 0.23141164,0.23159014 0 0 1 0,-0.09392 0.21328262,0.21344714 0 0 0 0.09704,-0.03095 l 2.511403,-1.5635002 a 0.21328262,0.21344714 0 0 0 0.0053,-0.3703308 z M 7.9935191,10.161434 6.2286054,8.3951594 7.9935191,6.6288843 9.7584327,8.3951594 Z m 0,-9.1003183 L 9.1868353,2.9896106 7.9935191,5.0429721 6.8002029,2.9373161 Z M 2.6806491,7.0600475 4.7846821,8.2585532 2.7297041,9.448521 0.80589491,8.2500153 Z m 5.31287,8.3874055 -1.1933162,-1.876201 1.1933162,-2.105656 1.1890506,2.056564 z M 13.2616,9.448521 11.202356,8.2585532 13.306389,7.0600475 15.181143,8.2500153 Z" />
</svg>
