<?xml version="1.0" encoding="UTF-8" standalone="no"?>
<svg
   xmlns:dc="http://purl.org/dc/elements/1.1/"
   xmlns:cc="http://creativecommons.org/ns#"
   xmlns:rdf="http://www.w3.org/1999/02/22-rdf-syntax-ns#"
   xmlns:svg="http://www.w3.org/2000/svg"
   xmlns="http://www.w3.org/2000/svg"
   xmlns:sodipodi="http://sodipodi.sourceforge.net/DTD/sodipodi-0.dtd"
   xmlns:inkscape="http://www.inkscape.org/namespaces/inkscape"
   version="1.1"
   x="0px"
   y="0px"
   viewBox="0 0 16 16"
   xml:space="preserve"
   id="svg873"
   sodipodi:docname="lightspeed-spinner-symbolic.svg"
   width="16"
   height="16"
   inkscape:version="0.92.4 5da689c313, 2019-01-14"><metadata
     id="metadata879"><rdf:RDF><cc:Work
         rdf:about=""><dc:format>image/svg+xml</dc:format><dc:type
           rdf:resource="http://purl.org/dc/dcmitype/StillImage" /><dc:title></dc:title></cc:Work></rdf:RDF></metadata><defs
     id="defs877" /><sodipodi:namedview
     pagecolor="#ffffff"
     bordercolor="#666666"
     borderopacity="1"
     objecttolerance="10"
     gridtolerance="10"
     guidetolerance="10"
     inkscape:pageopacity="0"
     inkscape:pageshadow="2"
     inkscape:window-width="3200"
     inkscape:window-height="1648"
     id="namedview875"
     showgrid="false"
     inkscape:zoom="21.856"
     inkscape:cx="25.434663"
     inkscape:cy="23.929356"
     inkscape:window-x="0"
     inkscape:window-y="0"
     inkscape:window-maximized="1"
     inkscape:current-layer="svg873" /><path
     d="M 15.521111,7.3586887 10.213703,5.7860598 8.6411109,0.47889986 C 8.5562959,0.19259686 8.2985181,0 7.9996292,0 7.7011108,0 7.4433329,0.19259686 7.3585184,0.47889986 L 5.7866663,5.787171 0.47888887,7.3586887 C 0.19259259,7.4435055 0,7.7012894 0,8.0001853 0,8.2990811 0.19259259,8.5568647 0.47888887,8.6416815 L 5.7866663,10.2132 7.3585184,15.52147 C 7.4433333,15.807773 7.7011108,16 7.9996292,16 8.2985181,16 8.5562961,15.807773 8.6411109,15.52147 l 1.5729631,-5.30753 5.307407,-1.5722585 c 0.286296,-0.085187 0.478889,-0.3433411 0.478518,-0.6422369 0,-0.2985257 -0.192592,-0.5559391 -0.478888,-0.6407559 z M 10.768935,7.8105513 9.837083,7.5344335 c -1.388e-4,-4.63e-5 -2.776e-4,-1.388e-4 -4.172e-4,-1.851e-4 L 8.9858557,7.2820898 9.8241889,6.4437371 c 0.04051,0.021899 0.082084,0.042293 0.1272919,0.055672 l 4.4245132,1.3111418 h -3.60706 z M 8.5725924,8.4450102 C 8.5107404,8.4631582 8.4625921,8.5113081 8.4444442,8.5731614 L 8.2179627,9.3374848 8.1018517,9.7291139 c -0.02037,0.068891 -0.078148,0.076298 -0.1022225,0.076298 -0.024053,0 -0.081667,-0.00748 -0.1021065,-0.07609 L 7.5551848,8.5727909 C 7.5370372,8.5109376 7.4888887,8.4627884 7.4270369,8.44464 L 6.2710183,8.1023635 c -0.06875,-0.020348 -0.076204,-0.078127 -0.076204,-0.1021782 0,-0.024053 0.00745,-0.081831 0.076204,-0.1021786 L 7.4270369,7.5557305 C 7.4888889,7.5375826 7.5370368,7.4894326 7.5551848,7.4275793 L 7.8975227,6.271048 c 0.020438,-0.068613 0.078056,-0.07609 0.1021065,-0.07609 0.024075,0 0.081852,0.00741 0.1022225,0.076668 l 0.1346294,0.4537609 0.2079631,0.7018214 c 0.018148,0.061853 0.066296,0.1100029 0.1281482,0.1281513 l 0.8503471,0.2519273 0.3059492,0.090673 c 0.068889,0.020371 0.076296,0.07815 0.076296,0.1022249 0,0.024076 -0.00741,0.081854 -0.076667,0.1022245 L 9.2996521,8.2296117 Z M 9.5003702,6.0479178 c 0.01338,0.045325 0.033818,0.087016 0.05574,0.1275953 L 8.7177543,7.0138892 8.5680554,6.5093402 8.1892588,5.2308155 V 1.6235096 Z M 7.8099996,1.6264959 V 5.2308387 L 7.5339117,6.1633833 c -4.62e-5,1.62e-4 -1.619e-4,3.012e-4 -2.082e-4,4.551e-4 L 7.2818746,7.0142514 6.4443515,6.1767089 c 0.021967,-0.04051 0.042477,-0.082085 0.056019,-0.1273176 z m -1.76,4.8740248 c 0.044815,-0.013403 0.086042,-0.033797 0.1262501,-0.055603 l 0.8375,0.8375194 L 6.309097,7.491192 5.2303468,7.8105513 H 1.625 Z M 1.625,8.1898193 H 5.2303472 L 6.309097,8.5091785 7.0137497,8.7179334 6.1764815,9.555221 C 6.1359026,9.5332538 6.0941666,9.5128591 6.0488888,9.4994793 Z M 6.4999998,9.9498601 C 6.4865738,9.904998 6.4661588,9.8637931 6.4444208,9.8235839 l 0.8374537,-0.8374731 0.2518289,0.850413 c 4.63e-5,1.623e-4 1.62e-4,3.011e-4 2.082e-4,4.551e-4 l 0.2760879,0.9325451 v 3.604342 z m 1.689259,4.4269539 V 10.769555 L 8.5172915,9.6624227 8.717708,8.986435 9.555995,9.8247414 C 9.534097,9.8652514 9.513703,9.9068958 9.50037,9.9520822 Z M 9.95037,9.5009607 C 9.905532,9.5144095 9.864352,9.5348255 9.8241662,9.5566099 L 8.9859255,8.7183498 9.7239116,8.499456 10.768935,8.1898193 h 3.606921 z"
     id="path867"
     inkscape:connector-curvature="0"
     style="stroke-width:0.37926364;fill:#bebebe;fill-opacity:1" /></svg>