<?xml version="1.0" encoding="UTF-8" standalone="no"?>
<svg
   xmlns:dc="http://purl.org/dc/elements/1.1/"
   xmlns:cc="http://creativecommons.org/ns#"
   xmlns:rdf="http://www.w3.org/1999/02/22-rdf-syntax-ns#"
   xmlns:svg="http://www.w3.org/2000/svg"
   xmlns="http://www.w3.org/2000/svg"
   xmlns:sodipodi="http://sodipodi.sourceforge.net/DTD/sodipodi-0.dtd"
   xmlns:inkscape="http://www.inkscape.org/namespaces/inkscape"
   xml:space="preserve"
   version="1.1"
   style="clip-rule:evenodd;fill-rule:evenodd;image-rendering:optimizeQuality;shape-rendering:geometricPrecision;text-rendering:geometricPrecision"
   viewBox="0 0 16 16"
   x="0px"
   y="0px"
   id="svg1374"
   sodipodi:docname="lightspeed-squid-symbolic.svg"
   width="16"
   height="16"
   inkscape:version="0.92.4 5da689c313, 2019-01-14"><metadata
     id="metadata1378"><rdf:RDF><cc:Work
         rdf:about=""><dc:format>image/svg+xml</dc:format><dc:type
           rdf:resource="http://purl.org/dc/dcmitype/StillImage" /><dc:title></dc:title></cc:Work></rdf:RDF></metadata><sodipodi:namedview
     pagecolor="#ffffff"
     bordercolor="#666666"
     borderopacity="1"
     objecttolerance="10"
     gridtolerance="10"
     guidetolerance="10"
     inkscape:pageopacity="0"
     inkscape:pageshadow="2"
     inkscape:window-width="3200"
     inkscape:window-height="1648"
     id="namedview1376"
     showgrid="false"
     inkscape:zoom="41.564621"
     inkscape:cx="-3.2587552"
     inkscape:cy="12.037331"
     inkscape:window-x="0"
     inkscape:window-y="0"
     inkscape:window-maximized="1"
     inkscape:current-layer="svg1374" /><defs
     id="defs1322"><style
       type="text/css"
       id="style1320">
   
    .str0 {stroke:black;stroke-width:6.94488;stroke-linecap:round;stroke-linejoin:round}
    .fil0 {fill:none}
    .fil1 {fill:black}
   
  </style></defs><path
     style="fill:#bebebe;stroke-width:0.05565482;fill-opacity:1"
     inkscape:connector-curvature="0"
     id="path1366"
     d="M 10.472352,9.0835325 C 15.092831,8.3045554 9.358983,0.90427257 7.9672721,0.01401298 7.4105879,-0.37547559 0.95304932,7.469937 5.406524,9.1391738 l 0.6123528,0.055641 -0.055668,0.6676944 c 0,0 -2.282406,2.0587258 -3.9524589,0.2225648 0,0 -1.22470548,-0.1112824 -0.7236896,0.89026 0,0 1.5030476,2.170008 4.7874852,0.333847 0,0 -1.1133685,1.613596 -2.7834217,2.225649 0,0 -0.8906949,0.834619 0.2783421,1.168466 0,0 2.5607481,-0.945901 3.7854539,-3.227191 l 0.055669,4.061809 c 0,0 0.6123526,1.001542 1.2803738,0.05564 v -4.117451 c 0,0 1.0577003,2.114366 3.8411214,3.17155 0,0 1.057701,-0.333848 0.334011,-1.168466 0,0 -2.004063,-0.834618 -2.8947585,-2.225649 0,0 2.9504265,1.83616 4.8431525,-0.44513 0,0 0.222674,-1.1128245 -0.890694,-0.8346184 0,0 -1.169037,1.8918014 -3.89679,-0.2225648 v -0.55641 z M 6.6312295,9.8625094 c -0.1113368,-0.1112824 -0.1113368,-0.3338471 0,-0.4451295 0.1113372,-0.1669237 0.3340108,-0.1669237 0.4453477,-0.055641 0.1670053,0.1669236 0.1670053,0.333847 0,0.5007707 -0.1113369,0.1112824 -0.3340105,0.1112824 -0.4453477,-2e-7 z m 2.3380744,-0.055641 c -0.1113368,-0.1112825 -0.1113368,-0.3338471 0,-0.4451295 0.1113368,-0.1112825 0.3340106,-0.1112825 0.4453474,0 0.1670053,0.1112824 0.1670053,0.333847 0,0.4451295 -0.1113368,0.1112824 -0.3340106,0.1669236 -0.4453474,0 z"
     class="fil1" /></svg>