<?xml version="1.0" encoding="UTF-8" standalone="no"?>
<svg
   xmlns:dc="http://purl.org/dc/elements/1.1/"
   xmlns:cc="http://creativecommons.org/ns#"
   xmlns:rdf="http://www.w3.org/1999/02/22-rdf-syntax-ns#"
   xmlns:svg="http://www.w3.org/2000/svg"
   xmlns="http://www.w3.org/2000/svg"
   height="16"
   width="16"
   version="1.1"
   viewBox="0 0 16 16"
   data-name="Layer 1"
   id="Layer_1">
  <metadata
     id="metadata5292">
    <rdf:RDF>
      <cc:Work
         rdf:about="">
        <dc:format>image/svg+xml</dc:format>
        <dc:type
           rdf:resource="http://purl.org/dc/dcmitype/StillImage" />
        <dc:title>panel_ltspeed_Squid</dc:title>
      </cc:Work>
    </rdf:RDF>
  </metadata>
  <defs
     id="defs5275">
    <style
       id="style5273">.cls-1{fill:none;}.cls-2{fill-rule:evenodd;}</style>
  </defs>
  <title
     id="title5277">panel_ltspeed_Squid</title>
  <path
     style="display:inline;fill-rule:evenodd;stroke-width:0.10640322;fill:#bebebe;fill-opacity:1"
     id="path5285"
     d="M 15.948703,0.22197853 C 15.786571,-0.53374596 4.0533088,0.50112957 6.2730286,5.494006 l 0.439464,0.5965128 -0.53973,0.4776349 c 0,0 -3.3375798,-0.2589842 -3.4133127,-2.7851419 A 0.63999612,0.63684648 0 0 0 2.4746517,3.2459379 C 2.1749201,3.0071205 1.534924,3.0071205 1.4154581,3.5643611 a 0.24853183,0.24730872 0 0 0 -0.020267,0.118878 c -0.039466,0.4574681 -0.159999,3.0037926 3.638378,4.1395022 0,0 -2.1333204,0.3587568 -3.9978424,-0.4373013 A 0.4021309,0.40015187 0 0 0 0.775462,7.3461678 C 0.4554639,7.3652732 -0.2239986,7.5244848 0.1354659,8.3205429 A 0.51839686,0.51584565 0 0 0 0.436264,8.5986326 C 1.1157266,8.8756608 3.5541118,9.7311579 5.9732971,9.0539778 L 2.7551833,12.216982 a 0.50026363,0.49780167 0 0 0 -0.159999,0.358757 c -0.020267,0.337528 0.059733,0.894769 0.8394615,0.874602 A 0.49919697,0.49674025 0 0 0 3.7941103,13.29113 l 3.2586469,-3.202277 c 0,0 -0.819195,2.466719 0.439464,5.554363 a 0.52586348,0.52327552 0 0 0 0.3605312,0.318423 C 8.17275,16.041249 8.671947,16.060349 8.751947,15.364065 A 0.56532991,0.56254772 0 0 0 8.731677,15.106142 C 8.552479,14.628507 7.8922158,12.65959 8.23248,11.008035 c 0,0 0.878928,3.73935 4.197308,3.659745 a 0.57492985,0.57210042 0 0 0 0.360531,-0.139045 c 0.239999,-0.218651 0.55893,-0.676119 -0.0608,-1.153754 a 0.46613051,0.46383652 0 0 0 -0.319997,-0.09871 c -0.559997,0.03927 -2.459719,-0.09977 -2.819183,-3.3965146 l 0.436264,-0.5466266 0.440531,0.3184233 C 14.80951,12.814556 16.308168,2.0921844 15.948703,0.22197853 Z M 6.6932928,7.1052276 A 0.37973103,0.37786224 0 1 1 7.0730238,7.4830898 0.36799777,0.36618673 0 0 1 6.6932928,7.1052276 Z M 8.632481,8.9945388 A 0.37973103,0.37786224 0 1 1 9.012212,9.372401 0.37866437,0.37680083 0 0 1 8.632481,8.9945388 Z"
     class="cls-2" />
</svg>
