<svg version="1.1" xmlns="http://www.w3.org/2000/svg" x="0px" y="0px"
	 viewBox="0 0 100 100" style="enable-background:new 0 0 100 100;" xml:space="preserve">
<style type="text/css">
	.st0{fill:#bebebe;}
</style>
<path class="st0" d="M79.6,4.5c-8-8.9-55.9,2.7-65.1,10.5C3,24.8-5,44.1,3.6,58.5C10.6,70.2,19,71.4,28.7,80
	c12.1,10.7,24.9,20.8,44,18.2c19.6-2.7,25.8-15.8,26.6-33.6C99.9,47.9,104.4,3.2,79.6,4.5z M60,39.2c0.2-0.3,0.4-0.6,0.6-1
	c0.4-0.6,0.7-1.3,1-2c0.1-0.4,0.2-0.7,0.2-1.1c0-0.6,0.1-1.2,0.3-1.7c0.4-1,1.5-1.6,2.6-1.2c0.1,0,0.2,0.1,0.4,0.2
	c0.7,0.3,0.7,0.3,0.9-0.4c0.2-0.6,0.2-1.3,0.1-1.9c-0.1-0.4,0.1-0.8,0.4-1.1c0.3-0.3,0.4-0.2,0.6,0.1c0.2,0.5,0.3,1.1,0.4,1.6
	c0.2,1.1,0.3,2.2,0.2,3.2c0,0.2,0,0.3,0.1,0.5c0.9,1.5,1.3,3.3,1.2,5.1c-0.1,2-1.5,3.8-3.5,4.4c-1.1,0.4-2.4,0.3-3.4-0.4
	c-0.5-0.3-1.1-0.6-1.5-1c-0.1-0.1-0.2-0.2-0.3-0.4C59.6,41.3,59.6,40.1,60,39.2z M49.9,34.4c0.2-0.5,0.4-0.9,0.7-1.3
	c0.7-1.2,1.7-2.1,2.8-2.8c0.4-0.2,0.4-0.7,0.6-1c0.5-1,1-1.8,1.8-2.6c0.1-0.2,0.3-0.3,0.5-0.4c0.3-0.1,0.5,0,0.5,0.3
	c0.1,0.5-0.1,1-0.4,1.3C56.2,28.2,56,28.6,56,29c0,0.3-0.2,0.7-0.1,0.9s0.5,0.2,0.8,0.2c1.1,0.1,1.9,1.1,1.8,2.2
	c0,0.3-0.1,0.6-0.3,0.8c-0.6,1.3-0.8,2.8-0.5,4.3c0.2,0.9,0.1,1.8-0.3,2.6c-0.2,0.4-0.6,0.7-0.9,1c-1.5,1-3.5,0.9-4.9-0.3
	c-0.9-0.7-1.6-1.7-1.9-2.8C49.3,36.7,49.4,35.5,49.9,34.4z M38,46.2c-0.6-1.7-0.5-3.5,0.1-5.2c0-0.1,0-0.1,0.1-0.2l0.2-0.4
	c0.2-0.3,0.4-0.7,0.4-1.2c0-1.3,0.4-2.6,1.2-3.7c0.1-0.2,0.2-0.5,0.5-0.4s0.3,0.4,0.3,0.6c0.1,0.4,0.1,0.8-0.1,1.2
	c-0.1,0.4-0.2,0.8-0.1,1.2c0,0.1,0.1,0.1,0.2,0.1l0.3-0.1c1.2-0.4,2.5,0.2,3,1.4c0.1,0.2,0.2,0.5,0.3,0.7c0.5,1.4,1.2,2.8,1.9,4.1
	c0.3,0.5,0.6,1.1,0.7,1.7c0.3,1.1-0.1,2.2-1,2.9c-1.6,1.3-3.7,1.4-5.5,0.4C39.3,48.7,38.4,47.5,38,46.2z M65.4,64.1
	c-0.2,0.4-0.4,0.7-0.6,1.1c-0.5,1-1.3,1.9-2.3,2.4c-0.7,0.4-1.5,0.5-2.2,0.4c-3.9-0.5-7.8-1.3-11.6-2.5c-1.5-0.4-2.9-1.1-4.2-1.8
	C42.9,62.8,41.9,61,42,59c0-0.8,0-1.6,0.2-2.3c0.2-0.8,0.8-1.4,1.6-1.7c0.4-0.2,0.8-0.3,1.2-0.4c1.1-0.1,2.2-0.7,3-1.5
	c0.3-0.4,0.6-0.8,0.8-1.2c0.4-0.7,0.9-1.3,1.5-1.9c0.9-0.8,2-1.3,3.2-1.2c2,0.1,3.9,0.6,5.8,1.4c1.6,0.7,2.7,2,3,3.7
	c0.1,0.5,0.1,1,0,1.6c-0.1,1.6,0.5,3.1,1.8,4.2c0.3,0.3,0.7,0.5,1.1,0.8c0.2,0.2,0.4,0.4,0.5,0.7C66,62.1,65.9,63.2,65.4,64.1z
	 M76.3,48.5c-0.2,0.5-0.3,1.1-0.2,1.6c0.1,1.2-0.2,2.5-0.8,3.6c-0.1,0.3-0.3,0.6-0.4,0.8c-0.6,1.2-1.7,2.1-2.9,2.5
	c-1.2,0.4-2.6,0.3-3.7-0.3c-1.2-0.6-2.1-1.6-2.6-2.9c-0.5-1.4,0.1-2.9,1.3-3.6c1.5-1,3-2,4.3-3.1c0.6-0.5,1.3-0.8,2.1-0.8
	c0.5,0,1,0.3,1.3,0.7c0.1,0.1,0.2,0.1,0.3,0c0.5-0.4,0.8-1,0.8-1.6c0-0.4,0.2-0.9,0.4-1.2c0.1-0.1,0.2-0.2,0.3-0.2
	c0.1,0,0.3,0.1,0.3,0.3c0,0.2,0.1,0.4,0.1,0.6C77,46.2,76.8,47.4,76.3,48.5z"/>
</svg>
