<svg xmlns="http://www.w3.org/2000/svg" viewBox="0 0 100 100" version="1.1">
  <path style="fill:black" d="M 25 0 A 25 25 0 0 0 0 25 A 25 25 0 0 0 25 50 A 25 25 0 0 0 50 25 A 25 25 0 0 0 25 0 z M 12.660156 17.279297 L 19.660156 17.279297 L 19.660156 18.140625 A 10.805 10.805 0 0 0 18.089844 18.320312 C 17.65651 18.410312 17.439453 18.559531 17.439453 18.769531 A 1.875 1.875 0 0 0 17.474609 19.089844 L 17.535156 19.410156 C 17.721823 20.12349 18.055156 21.299453 18.535156 22.939453 C 19.015156 24.579453 19.717292 27.040313 20.640625 30.320312 L 24.955078 17.5 L 26.144531 17.5 L 30.5 30.599609 C 31.083333 28.599609 31.583333 26.843411 32 25.330078 C 32.416667 23.816745 32.764922 22.530703 33.044922 21.470703 C 33.238255 20.71737 33.360156 20.199922 33.410156 19.919922 A 4.22 4.22 0 0 0 33.5 19.210938 C 33.5 18.937604 33.312214 18.706198 32.935547 18.519531 A 5.335 5.335 0 0 0 31.109375 18.144531 L 31.109375 17.279297 L 37.335938 17.279297 L 37.335938 18.140625 A 2.74 2.74 0 0 0 36.630859 18.279297 A 3.395 3.395 0 0 0 35.890625 18.615234 A 2.53 2.53 0 0 0 35.205078 19.230469 A 3.21 3.21 0 0 0 34.75 20.195312 C 34.176667 22.065313 33.51 24.247474 32.75 26.744141 C 31.99 29.240807 31.16849 31.907474 30.285156 34.744141 L 29.164062 34.744141 L 24.814453 21.480469 L 20.314453 34.744141 L 19.220703 34.744141 C 18.420703 31.910807 17.58737 28.972448 16.720703 25.925781 L 15 19.779297 A 2.135 2.135 0 0 0 14.679688 19.115234 A 2.335 2.335 0 0 0 13.394531 18.269531 A 4.41 4.41 0 0 0 12.660156 18.144531 L 12.660156 17.279297 z " transform="scale(2)"/>
</svg>
