<svg version="1.1"
	 xmlns="http://www.w3.org/2000/svg" x="0px" y="0px" viewBox="0 0 100 100"
	 style="enable-background:new 0 0 100 100;" xml:space="preserve">
<style type="text/css">
	.st0{fill:black;}
</style>
	<path class="st0" d="M50,99.2C22.7,99.2,0.5,77,0.5,49.7S22.7,0.2,50,0.2s49.5,22.2,49.5,49.5S77.3,99.2,50,99.2z M50,4.4
		c-25,0-45.4,20.4-45.4,45.4S24.9,95.1,50,95.1s45.4-20.4,45.4-45.4S75,4.4,50,4.4z"/>
	<path class="st0" d="M50,75.8c-14.4,0-26-11.7-26-26s11.7-26,26-26c14.4,0,26,11.7,26,26C76,64.1,64.3,75.8,50,75.8z M50,27.8
		c-12.1,0-21.9,9.8-21.9,21.9c0,12.1,9.8,21.9,21.9,21.9c12.1,0,21.9-9.8,21.9-21.9C71.9,37.7,62,27.8,50,27.8z"/>
	<circle class="st0" cx="81.6" cy="12.6" r="9.2"/>
	<circle class="st0" cx="35.7" cy="68.4" r="6.2"/>
</svg>
