<svg version="1.1"
	 xmlns="http://www.w3.org/2000/svg" x="0px" y="0px" viewBox="0 0 100 100"
	 style="enable-background:new 0 0 100 100;" xml:space="preserve">
<style type="text/css">
	.st0{fill:black;}
</style>
	<path class="st0" d="M56.7,61.3C56.7,61.3,56.7,61.3,56.7,61.3c0.9,0,1.6-0.7,1.7-1.6c-0.1-0.9-0.8-1.6-1.7-1.5
		c-0.8,0-1.5,0.7-1.5,1.5C55.1,60.5,55.8,61.2,56.7,61.3z"/>
	<path class="st0" d="M49.6-0.1c-27.3,0-49.5,22.4-49.5,50c0,27.6,22.2,50,49.5,50c27.3,0,49.5-22.4,49.5-50
		C99.1,22.3,76.9-0.1,49.6-0.1z M48.7,26.3c2,0,3.6,1.6,3.6,3.6c0,2-1.6,3.6-3.6,3.6s-3.6-1.6-3.6-3.6
		C45.1,27.9,46.7,26.3,48.7,26.3C48.7,26.3,48.7,26.3,48.7,26.3z M41.7,21.8c0-0.2,0.1-0.3,0.3-0.3h1.7c0.5,0,1.1,0,1.6,0
		c0.2,0,0.4,0.1,0.4,0.3c0,0.4,0,0.9,0,1.3c0,0.2-0.1,0.3-0.3,0.3H42c-0.2,0-0.3-0.1-0.3-0.3C41.7,22.8,41.7,22.3,41.7,21.8z
		 M38.7,25.9c0-0.7,0.5-1.3,1.2-1.3c0,0,0,0,0.1,0h7.4c0.4,0,0.9,0.2,1.1,0.5c0.2,0.3,0.1,0.4-0.2,0.4c-2.4,0.2-4.3,2.3-4.1,4.8
		c0.1,1.3,0.8,2.5,1.8,3.3c0.7,0.5,1.5,0.8,2.3,0.8c0.3,0,0.3,0.1,0.3,0.4c0,1.8,0,3.5,0,5.3c0,0.3-0.1,0.3-0.4,0.3h-9.2
		c-0.4,0-0.5,0-0.5-0.4C38.7,35.2,38.7,30.5,38.7,25.9z M39.1,41.1h4.6c1.5,0,3.1,0,4.6,0c0.3,0,0.4,0.1,0.4,0.4c0,1.6,0,3.2,0,4.8
		c0.1,0.7-0.4,1.3-1.1,1.3c-0.1,0-0.1,0-0.2,0H40c-0.7,0.1-1.3-0.4-1.3-1.1c0-0.1,0-0.1,0-0.2c0-1.6,0-3.3,0-4.9
		C38.7,41.2,38.9,41.1,39.1,41.1z M46.7,51.2L46.7,51.2c0,0.3-0.1,0.3-0.4,0.3h-2.6c-0.9,0-1.7,0-2.6,0c-0.3,0-0.4-0.1-0.4-0.4
		c0-0.8,0-1.5,0-2.3c0-0.2,0.1-0.3,0.3-0.3h5.3c0.2,0,0.3,0.1,0.3,0.3C46.7,49.6,46.7,50.4,46.7,51.2z M32.2,57.2
		c0.2-0.6,0.8-1,1.5-1.1c0.1,0,0.3,0,0.4,0h19.5c0.2-0.1,0.3-0.1,0.5,0c-0.7,0.7-1.4,1.5-1.9,2.4c-0.3,0.6-1,0.9-1.6,0.8
		c-5.5,0-11,0-16.4,0c-0.5,0.1-1-0.1-1.4-0.5C32.2,58.4,32,57.8,32.2,57.2z M58.3,56.4L58.3,56.4c0.6,0.3,1.2,0.7,1.6,1.2L68,68.5
		c0.1,0.1,0.2,0.2,0.1,0.3s-0.2,0.1-0.3,0.1H46c-0.1,0-0.3,0.1-0.4-0.1c-0.1-0.1,0.1-0.3,0.2-0.4l8.2-10.8
		C54.9,56.2,56.7,55.7,58.3,56.4z M72.2,74.1c0,0.8-0.7,1.5-1.5,1.4c-0.1,0-0.1,0-0.2,0H51c-6.4,0-12.9,0-19.3,0
		c-0.9,0.1-1.7-0.5-1.8-1.4c0-0.1,0-0.3,0-0.4c0-0.9,0-1.7,0-2.6c0.1-0.8,0.7-1.3,1.5-1.3h39c0.7-0.1,1.4,0.4,1.7,1.1
		c0,0.1,0,0.1,0,0.2C72.2,72.1,72.2,73.1,72.2,74.1z M67.9,57.8L67.9,57.8c-1.2,1.2-2.5,2.3-4,3.2c-0.2,0.1-0.3,0.1-0.5-0.1
		c-0.7-1-1.5-2-2.3-3c-0.2-0.3-0.1-0.4,0.1-0.5c1.7-0.9,3.1-2.2,4.3-3.7c1.5-1.9,2.4-4.2,2.7-6.6c0.6-4.7-1.2-9.4-4.9-12.4
		c-2-1.7-4.4-2.7-6.9-3.1c-0.6-0.1-1.3-0.1-1.9-0.1c-0.5,0-0.9,0-1.4,0.1c-0.2,0-0.3-0.1-0.2-0.3c0.4-1.3,0.3-2.7-0.5-3.8
		c-0.2-0.3,0-0.3,0.2-0.3c1.7-0.1,3.4-0.1,5.1,0.2c3.8,0.7,7.4,2.6,10,5.4c2.6,2.7,4.3,6.1,4.8,9.8C73.4,48.1,71.7,53.7,67.9,57.8z"
		/>
</svg>
