<svg version="1.1"
	 xmlns="http://www.w3.org/2000/svg" x="0px" y="0px" viewBox="0 0 100 100"
	 style="enable-background:new 0 0 100 100;" xml:space="preserve">
<style type="text/css">
	.st0{fill:black;}
</style>
	<path class="st0" d="M18.9,96.6c0.2-1.4,0.4-2.7,0.7-3.9l3.4-19.8c0.6-3.2,1.1-6.4,1.7-9.6c0.1-0.3,0-0.7-0.3-0.9L12.4,50.8
		l-8.8-8.6l-3.2-3.1C0.2,39,0,38.9,0.1,38.7c0.1-0.2,0.3-0.2,0.5-0.2l22.6-3.3c3.5-0.5,7-1,10.5-1.5c0.4-0.1,0.7-0.3,0.9-0.7
		c3.1-6.3,6.3-12.7,9.4-19c1.8-3.6,3.5-7.1,5.3-10.7c0.1-0.2,0.1-0.5,0.4-0.5c0.3,0,0.3,0.3,0.4,0.5l11.6,23.5
		c1,2.1,2.1,4.2,3.1,6.3c0.2,0.4,0.6,0.7,1,0.7c4,0.6,8.1,1.2,12.2,1.8L90,37.2l8.6,1.2c0.2,0,0.4,0,0.4,0.2
		c0.1,0.2-0.1,0.3-0.3,0.4l-9.7,9.5L77.5,59.7c-0.9,0.9-1.9,1.8-2.8,2.7c-0.2,0.2-0.4,0.5-0.3,0.9c1.3,7.8,2.7,15.5,4,23.3
		c0.5,3.2,1.1,6.3,1.6,9.5c0,0.2,0.2,0.5,0,0.6s-0.4-0.1-0.7-0.2c-9.8-5.1-19.6-10.3-29.3-15.4c-0.4-0.2-0.9-0.2-1.3,0
		c-9.8,5.1-19.5,10.3-29.3,15.4C19.4,96.7,19,97.1,18.9,96.6z M66.4,77.9c-0.3-2-0.6-3.8-1-5.6c-0.7-4.3-1.5-8.5-2.2-12.8
		c-0.1-0.2,0-0.5,0.2-0.7c0.8-0.8,1.6-1.6,2.4-2.3l10.6-10.3c0.1-0.1,0.3-0.2,0.3-0.4c0-0.2-0.3-0.2-0.4-0.2
		c-5.8-0.8-11.6-1.7-17.5-2.5c-0.5,0-1-0.4-1.2-0.9C55.1,37.1,52.5,32,50,26.8c-0.1-0.3-0.2-0.5-0.5-0.7l-1.3,2.7l-6.8,13.8
		c-0.1,0.3-0.4,0.6-0.8,0.7c-5.9,0.8-11.8,1.7-17.7,2.6c-0.1,0-0.3,0-0.4,0.1s0.1,0.3,0.2,0.4l3.8,3.8c3,2.9,6,5.8,9,8.8
		c0.2,0.2,0.3,0.5,0.3,0.8c-1,5.9-2,11.8-3,17.7c0,0.2-0.2,0.4,0,0.5c0.2,0.1,0.3,0,0.5-0.1c5.1-2.7,10.3-5.4,15.5-8.1
		c0.5-0.3,1.1-0.3,1.5,0c4.4,2.3,8.7,4.6,13.1,6.9L66.4,77.9z M40.3,38.3c0-1.5-1.2-2.7-2.7-2.7c-1.5,0-2.7,1.2-2.8,2.8
		c0,1.5,1.2,2.7,2.7,2.7c0,0,0,0,0,0c1.5,0,2.6-1.1,2.7-2.6C40.3,38.4,40.3,38.3,40.3,38.3z M37.6,78.2c-1.5,0-2.7,1.2-2.7,2.7
		c0,1.5,1.2,2.7,2.7,2.7c1.5,0,2.7-1.2,2.7-2.7c0,0,0,0,0,0c0-1.5-1.2-2.7-2.6-2.7C37.7,78.2,37.6,78.2,37.6,78.2z M52.2,14.2
		c0-1.5-1.2-2.7-2.7-2.7c-1.5,0-2.7,1.2-2.7,2.7c0,1.5,1.2,2.7,2.7,2.7C51,16.9,52.2,15.7,52.2,14.2z M30.2,63.7
		c1.5,0.1,2.7-1.1,2.7-2.6c0,0,0-0.1,0-0.1c0-1.5-1.2-2.7-2.7-2.8c-1.5,0-2.7,1.2-2.8,2.7C27.5,62.4,28.7,63.6,30.2,63.7z M61.4,41
		c1.5,0,2.7-1.2,2.7-2.7c0,0,0,0,0,0c0-1.5-1.2-2.7-2.7-2.7c-1.5,0-2.7,1.2-2.7,2.7c0,1.5,1.1,2.7,2.6,2.7C61.4,41,61.4,41,61.4,41
		L61.4,41z M27,40.2c0-1.5-1.2-2.7-2.7-2.7c-1.5,0-2.7,1.2-2.7,2.7c0,0,0,0,0,0c0,1.5,1.2,2.7,2.7,2.7C25.8,42.9,27,41.7,27,40.2
		C27,40.2,27,40.2,27,40.2z M68.8,63.7c1.5,0,2.7-1.2,2.7-2.7c0-1.5-1.3-2.7-2.7-2.7c-1.5,0-2.7,1.3-2.7,2.7
		C66.1,62.5,67.3,63.7,68.8,63.7C68.8,63.7,68.8,63.7,68.8,63.7z M25.7,90.2c1.5,0,2.7-1.2,2.7-2.7c0-1.5-1.2-2.7-2.7-2.7
		c-1.5,0-2.7,1.2-2.7,2.6c0,0,0,0,0,0.1C23,89,24.2,90.2,25.7,90.2C25.7,90.2,25.7,90.2,25.7,90.2z M11,39.5c-1.5,0-2.7,1.1-2.7,2.6
		c0,0,0,0,0,0c0,1.5,1.1,2.8,2.7,2.8c0,0,0,0,0,0c1.5,0,2.8-1.2,2.8-2.7C13.8,40.7,12.5,39.5,11,39.5z M90.8,42.2
		c0-1.5-1.1-2.7-2.6-2.7c0,0-0.1,0-0.1,0c-1.5,0-2.7,1.2-2.8,2.7c0,1.5,1.2,2.7,2.7,2.7C89.5,44.9,90.7,43.7,90.8,42.2L90.8,42.2z
		 M67.7,73.1c0,1.5,1.2,2.8,2.7,2.8c0,0,0,0,0,0c1.5,0,2.7-1.2,2.7-2.7c0-1.5-1.2-2.7-2.7-2.7C68.9,70.5,67.7,71.6,67.7,73.1
		C67.7,73.1,67.7,73.1,67.7,73.1z M60.7,77.2c-1.5,0-2.7,1.2-2.7,2.7s1.2,2.7,2.7,2.7s2.7-1.2,2.7-2.7c0,0,0,0,0,0
		C63.5,78.4,62.3,77.2,60.7,77.2C60.8,77.2,60.7,77.2,60.7,77.2z M58.2,26.3c0-1.5-1.1-2.7-2.6-2.7c0,0-0.1,0-0.1,0
		c-1.5,0-2.7,1.2-2.7,2.7c0,0,0,0,0,0c0,1.5,1.2,2.7,2.7,2.7C57,29,58.2,27.8,58.2,26.3z M68.9,84.6c-0.1,1.5,1.1,2.7,2.6,2.7
		c0,0,0.1,0,0.1,0c1.5,0,2.7-1.2,2.8-2.7c0,0,0,0,0,0c0-1.5-1.2-2.7-2.7-2.8C70.1,81.9,68.9,83.1,68.9,84.6
		C68.9,84.6,68.9,84.6,68.9,84.6L68.9,84.6z M43.6,23.6c-1.5,0-2.7,1.1-2.7,2.6c0,0,0,0.1,0,0.1c0,1.5,1.2,2.7,2.7,2.7
		c1.5,0,2.7-1.2,2.7-2.7C46.3,24.8,45.1,23.6,43.6,23.6C43.6,23.6,43.6,23.6,43.6,23.6z M77.4,40.3c0-1.5-1.2-2.7-2.7-2.7
		c-1.5,0-2.7,1.2-2.7,2.7c0,1.5,1.2,2.7,2.7,2.7c1.5,0,2.7-1.1,2.7-2.6C77.4,40.4,77.4,40.3,77.4,40.3z M78.4,54.3
		c1.5,0,2.7-1.2,2.7-2.7c0-1.5-1.2-2.7-2.7-2.7c0,0,0,0,0,0c-1.5,0-2.7,1.2-2.7,2.7C75.7,53.1,76.9,54.3,78.4,54.3
		C78.4,54.3,78.4,54.3,78.4,54.3z M20.6,54.3c1.5,0,2.7-1.2,2.7-2.7c0-1.5-1.2-2.7-2.7-2.7c-1.5,0-2.7,1.2-2.7,2.7
		C17.9,53.1,19.1,54.3,20.6,54.3C20.6,54.3,20.6,54.3,20.6,54.3z M30.7,74.2c0.1-1.4-1-2.6-2.5-2.7c-0.1,0-0.1,0-0.2,0
		c-1.5,0-2.7,1.1-2.7,2.6c0,0.1,0,0.1,0,0.2c0,1.5,1.2,2.7,2.7,2.7C29.5,76.9,30.7,75.7,30.7,74.2C30.7,74.3,30.7,74.3,30.7,74.2
		L30.7,74.2z M46.9,75c0,1.5,1.2,2.7,2.7,2.7c1.5,0,2.7-1.2,2.7-2.7c0,0,0,0,0,0c0-1.4-1.1-2.7-2.5-2.7c-0.1,0-0.1,0-0.2,0
		c-1.4-0.1-2.6,1-2.7,2.5C46.8,74.8,46.8,74.9,46.9,75L46.9,75z"/>
	<path class="st0" d="M38.4,69.5c0.2-1.1,0.4-2.3,0.6-3.6c0.5-2.6,0.9-5.3,1.4-7.9c0.1-0.4-0.2-0.6-0.4-0.8l-6.5-6.3l-1.6-1.5
		c-0.1-0.1-0.3-0.3-0.3-0.5c0.1-0.2,0.3-0.2,0.5-0.2l6.3-0.9l4.8-0.7c0.4-0.1,0.7-0.3,0.9-0.7c1.6-3.2,3.2-6.4,4.8-9.7
		c0.1-0.1,0.1-0.2,0.2-0.3c0.1-0.1,0.1-0.4,0.4-0.4c0.2,0,0.3,0.3,0.4,0.4c1.6,3.3,3.3,6.6,4.9,9.9c0.2,0.5,0.6,0.8,1.1,0.8
		c1.7,0.2,3.4,0.5,5.1,0.7l5.8,0.8c0.2,0,0.5,0,0.5,0.2c0.1,0.2-0.2,0.4-0.3,0.5c-2.5,2.4-4.9,4.9-7.4,7.2c-0.8,0.7-1.1,1.8-0.8,2.8
		c0.6,3.3,1.1,6.6,1.7,9.9c0,0.2,0.2,0.4,0,0.6s-0.4,0-0.6-0.1c-3.2-1.7-6.4-3.3-9.6-5c-0.5-0.3-1.2-0.3-1.8,0
		c-3.1,1.7-6.2,3.3-9.3,4.9l-0.5,0.2C38.6,70,38.4,69.9,38.4,69.5z"/>
</svg>
