<?xml version="1.0" encoding="UTF-8" standalone="no"?>
<svg xmlns="http://www.w3.org/2000/svg" height="100" width="100" version="1.1"
   viewBox="0 0 100 100">
  <defs>
    <style>.cls-1{fill:#bebebe;}</style>
  </defs>
  <g transform="matrix(0.36812473,0,0,0.36865,7.5,63.123944)">
    <path class="cls-1"
       d="m 111.03,20.479989 q -0.41,-4 -0.79,-8.09 c -0.07,-0.79 -0.56,-1.63 0.25,-2.35 0,0 0,-0.27 -0.09,-0.41 l -1.36,-3.9 -0.27,-0.76 c -0.14,0.29 -0.29,0.59 -0.42,0.89 0,0.06 0,0.15 0.06,0.23 a 21.38,21.38 0 0 1 0.58,2.36 c 0.33,2.53 0.65,5.05 0.89,7.59 0.19,2.05 0.24,4.12 0.37,6.27 0.12,0.26 0.27,0.58 0.44,0.89 0,0.07 0.21,0.06 0.32,0.09 0,-0.57 0.89,-0.94 0.31,-1.67 a 2.22,2.22 0 0 1 -0.29,-1.14 z"/>
    <path class="cls-1"
       d="m 65.42,-48.800011 a 6.36,6.36 0 0 0 1.4,1.28 c 0.14,0.11 0.43,0 0.66,0 -0.09,-0.19 -0.13,-0.45 -0.27,-0.57 a 6.59,6.59 0 0 1 -2.19,-3.86 c -0.08,-0.34 -0.45,-0.62 -0.69,-0.92 -0.09,0.35 -0.2,0.71 -0.28,1.07 a 0.69,0.69 0 0 0 0,0.24 l -0.16,0.08 a 28.84,28.84 0 0 0 1.53,2.68 z"/>
    <path class="cls-1"
       d="m 107.66,21.129989 a 1.57,1.57 0 0 0 -0.32,0.41 2.32,2.32 0 0 0 0.1,2.28 c 0.29,0.42 0.6,0.84 0.9,1.26 0.1,-0.51 0.2,-1 0.25,-1.25 -0.27,-1 -0.45,-1.69 -0.65,-2.36 -0.04,-0.13 -0.18,-0.23 -0.28,-0.34 z"/>
    <path class="cls-1"
       d="m 115.83,-91.520011 c 0.67,-2.9 1.11,-5.87 2.36,-8.619999 a 18,18 0 0 0 0.85,-2.85 c 0,-0.11 -0.09,-0.26 -0.13,-0.4 -0.09,0.07 -0.21,0.13 -0.25,0.22 -0.53,1.32 -1.08,2.64 -1.57,3.999999 -0.32,0.88 -0.55,1.78 -0.82,2.68 -0.16,0.52 -0.34,1 -0.46,1.56 -0.12,0.56 -0.19,1 -0.27,1.52 -0.11,0.7 -0.22,1.41 -0.33,2.16 l 0.3,0.43 a 3,3 0 0 0 0.32,-0.7 z"/>
    <path class="cls-1"
       d="m 91.09,-112.11001 h 0.12 c 0.3,1.22 0.59,2.44 0.91,3.65 0,0.15 0.28,0.24 0.41,0.38 0.13,0.14 0.18,0.23 0.27,0.34 0,-0.15 0.11,-0.31 0.07,-0.44 -0.31,-1.22 -0.64,-2.43 -1,-3.64 -0.36,-1.21 -0.73,-2.53 -1.13,-3.78 -0.06,-0.18 -0.31,-0.29 -0.47,-0.44 a 3,3 0 0 0 0.07,0.52 c 0.23,1.12 0.49,2.26 0.75,3.41 z"/>
    <path class="cls-1"
       d="m 87.57,-65.250011 c 1.39,1.54 2.94,2.76 5.23,1.88 a 1,1 0 0 1 0.59,-0.07 3.42,3.42 0 0 0 2.89,-0.79 c 1,-0.61 1.9,-1.29 2.81,-2 a 2.28,2.28 0 0 0 0.82,-1 6.85,6.85 0 0 0 -0.11,-5 7.71,7.71 0 0 0 -4.92,-4.1 14,14 0 0 0 -6.54,-0.33 c -0.89,0.24 -1.78,0.46 -2.66,0.74 -0.88,0.28 -1,0.62 -0.72,1.55 a 3.45,3.45 0 0 1 0.19,1.38 9.45,9.45 0 0 0 2.42,7.74 z m 2.32,-1.27 c 0.2,-0.19 0.38,-0.41 0.59,-0.59 a 4.61,4.61 0 0 0 0.94,-6.54 c -0.68,-1 -0.67,-1 0.49,-1.13 2.83,-0.35 5.83,1.76 5.93,5.71 a 4.19,4.19 0 0 1 -4.42,4.3 3.54,3.54 0 0 1 -3.34,-0.63 c -0.51,-0.4 -0.67,-0.69 -0.19,-1.12 z"/>
    <path class="cls-1"
       d="m 113.95,-58.780011 a 10.38,10.38 0 0 1 -2.64,0.64 c -1.8,0 -3.62,0.45 -5.41,-0.1 a 1.24,1.24 0 0 0 -0.47,0 25.83,25.83 0 0 1 -8.39,-1 1.92,1.92 0 0 1 -1.16,-0.74 c -0.42,-0.81 -1.08,-0.68 -2.06,-0.71 -0.6,0.42 -1.42,1 -2.19,1.57 -0.09,0.07 0,0.6 0.08,0.62 a 3.75,3.75 0 0 0 1.85,0.27 c 1.08,-0.35 1.55,0.31 2.11,0.92 a 4.43,4.43 0 0 0 0.9,0.93 c 2.15,1.31 4.29,2.63 6.51,3.81 a 2.92,2.92 0 0 0 3.64,-0.35 18.76,18.76 0 0 1 2,-1.47 1.84,1.84 0 0 1 0.43,-0.17 l -0.21,0.48 c -0.06,0.14 -0.13,0.27 -0.2,0.4 a 1.25,1.25 0 0 0 0.38,-0.2 5.4,5.4 0 0 0 0.64,-0.71 4.11,4.11 0 0 1 2.43,-1.57 19.25,19.25 0 0 0 2.93,-1.25 c 0.7,-0.32 0.52,-0.75 0.1,-1.22 -0.42,-0.47 -0.8,-0.3 -1.27,-0.15 z m -8.77,3.45 c -0.06,0 -0.15,0 -0.12,0 a 4.31,4.31 0 0 1 -3.56,-0.9 1.28,1.28 0 0 1 -0.28,-0.36 c 0.13,0 0.26,-0.14 0.38,-0.13 1.22,0.13 2.44,0.26 3.64,0.46 0.3,0 0.56,0.34 0.84,0.52 z"/>
    <path class="cls-1"
       d="m 118.56,-73.920011 c -0.72,0.29 -1.49,0.61 -2.26,0.91 a 7.65,7.65 0 0 0 -5,5.62 c -0.49,2.13 0.1,3.46 2.08,4.38 0.61,0.28 1.24,0.53 1.87,0.78 2.26,0.91 4.26,-0.14 5.58,-1.83 a 7.93,7.93 0 0 0 1.84,-6.48 c -0.08,-0.41 -0.09,-0.82 0.47,-0.91 0.87,-0.13 0.58,-0.52 0.21,-0.94 -1.29,-1.46 -3.01,-1.55 -4.79,-1.53 z m 2.15,7.78 c -0.24,0.46 -0.54,0.88 -0.76,1.35 a 3,3 0 0 1 -3,1.56 c -0.91,-0.21 -1.15,-0.7 -0.59,-1.39 a 5.3,5.3 0 0 0 0.68,-5.62 c -0.47,-1.23 -0.38,-1.37 0.88,-1.76 l 0.34,-0.1 c 2,-0.65 2.84,-0.16 3.23,2.5 a 6.67,6.67 0 0 1 -0.78,3.46 z"/>
    <path class="cls-1"
       d="m 86.54,-80.840011 a 4.73,4.73 0 0 1 2.8,1.26 4.75,4.75 0 0 0 1.16,0.61 c 1.67,0.75 3.35,1.5 5,2.23 0.55,0.24 1.12,0.42 1.68,0.62 l 2.14,0.74 c 0.68,0.23 1.36,0.47 2,0.69 0.64,0.22 1.27,0.42 1.92,0.56 1.36,0.3 2.73,0.56 4.11,0.79 0.16,0 0.36,-0.19 0.55,-0.3 a 2.7,2.7 0 0 0 -0.5,-0.27 c -1.21,-0.38 -2.43,-0.73 -3.64,-1.13 a 1.43,1.43 0 0 1 -0.71,-0.57 6.13,6.13 0 0 0 -3.82,-2.91 72.18,72.18 0 0 1 -9,-3.47 17.79,17.79 0 0 0 -2,-0.58 v 0.18 a 14,14 0 0 0 -1.61,0.37 c -0.25,0.09 -0.42,0.41 -0.62,0.62 0.09,0.22 0.34,0.54 0.54,0.56 z"/>
    <path class="cls-1"
       d="m 111.22,-73.950011 a 38,38 0 0 1 9.41,-1.33 4.31,4.31 0 0 0 2.71,-1.47 0.53,0.53 0 0 0 0,-0.43 c -0.26,-0.55 -0.59,-1.11 -1.3,-1.06 -1.51,0.11 -3,0.28 -4.93,0.46 -1.39,0.49 -3.15,1.09 -4.9,1.72 a 7.47,7.47 0 0 1 -1.66,0.62 c -0.83,0.07 -0.52,1 -1.16,1.19 0,0 -0.07,0.12 -0.11,0.18 0.42,0.06 0.83,0.13 1.25,0.16 a 1.87,1.87 0 0 0 0.69,-0.04 z"/>
    <path class="cls-1"
       d="m 108.62,-62.130011 c -1,0 -1.9,-0.07 -2.85,-0.14 a 9.86,9.86 0 0 1 -1.52,-0.26 0.46,0.46 0 0 1 -0.26,-0.33 0.44,0.44 0 0 1 0.3,-0.29 5.45,5.45 0 0 1 1.07,-0.08 c 0.48,0 1,0.09 1.43,0.08 0.15,0 0.3,-0.2 0.45,-0.31 -0.1,-0.09 -0.2,-0.25 -0.32,-0.28 a 5.33,5.33 0 0 0 -4,0.4 1,1 0 0 0 -0.31,1 2,2 0 0 0 1.08,0.77 8.86,8.86 0 0 0 5.75,-0.14 c 1.08,-0.46 1.11,-0.33 1,-1.51 -0.08,-0.7 0,-1.42 -0.13,-2.11 0,-0.27 -0.31,-0.5 -0.47,-0.74 a 2.39,2.39 0 0 0 -0.28,0.69 c 0,0.43 0,0.87 0,1.3 h 0.09 a 3,3 0 0 1 0.14,0.57 c -0.08,0.78 -0.58,1.42 -1.17,1.38 z"/>
    <path class="cls-1"
       d="m 99.82,-21.630011 a 9.6,9.6 0 0 1 -0.78,-2.87 23.64,23.64 0 0 0 -1,-6.44 c -0.06,-0.24 -0.38,-0.41 -0.58,-0.61 -0.12,0.24 -0.35,0.5 -0.33,0.73 0.16,1.6 0.41,3.19 0.55,4.79 0.19,2.33 1.29,4.52 1.06,6.92 0,0.15 0.17,0.33 0.26,0.49 0.15,-0.16 0.31,-0.31 0.45,-0.48 0.14,-0.17 -0.05,-1.08 0.46,-0.16 0.06,0.1 0.22,0.16 0.33,0.23 0,-0.1 0.14,-0.21 0.14,-0.31 0,-0.28 0,-0.56 -0.07,-1 -0.07,-0.44 -0.33,-0.81 -0.49,-1.29 z"/>
    <path class="cls-1"
       d="m 164.07,-42.520011 c 0,0.07 0.1,0.17 0.16,0.26 0.08,-0.08 0.23,-0.16 0.23,-0.23 0,-0.47 -0.05,-0.94 -0.08,-1.41 l 0.15,-0.09 c -0.29,-0.65 -0.57,-1.32 -0.91,-2 0,-0.07 -0.55,-0.06 -0.62,0.06 a 2.5,2.5 0 0 0 0.43,2.29 c 0.48,0.3 0.79,0.53 0.64,1.12 z"/>
    <path class="cls-1"
       d="m 191.2,-171.23001 -191.2,31.71 39.7,239.55 191.2,-31.690001 z M 73.56,-0.62001099 c 0.16,-0.57000001 0.4,-1.11000001 0.57,-1.68000001 0.31,-1.05 0.6,-2.1 0.89,-3.16 0.06,-0.22 0.09,-0.46 0.13,-0.68 0.11,0.21 0.21,0.42 0.32,0.62 a 3.21,3.21 0 0 0 0.21,0.3 c 0,0 0,0.08 0,0.11 q -0.82,2.34 -1.68,4.66000001 c 0,0.12 -0.2,0.21 -0.31,0.31 -0.04,-0.16 -0.17,-0.38 -0.13,-0.48 z M 74.81,32.989989 c 0.23,-0.19 0.27,-0.5 0.18,-1 -0.72,-4.21 -1.46,-8.42 -2,-12.65 -0.2,-1.59 -0.58,-3.35 0.71,-4.79 a 1,1 0 0 0 0.18,-0.56 22,22 0 0 1 0.45,-2.45 c 0.48,-1.62 1,-3.2 1.58,-4.8 0.63,-1.93 1.14,-3.91 1.92,-5.76999999 1.27,-3.00000001 2.66,-6.06000001 4.13,-9.00000001 1.74,-3.5 3.63,-6.92 5.43,-10.38 0.42,-0.8 0.77,-1.63 1.11,-2.46 0.34,-0.83 0.94,-1.09 1.63,-0.4 a 3.45,3.45 0 0 1 0.87,1.39 c 0.49,1.64 0.93,3.3 1.3,5 a 19.21,19.21 0 0 1 0.84,4.8 23.32,23.32 0 0 0 0.75,5 7.47,7.47 0 0 0 1.08,2.62 0.59,0.59 0 0 1 0.13,0.33 c 0,0.9 0.09,1.81000001 0,2.72000001 0,0.74999999 -0.28,1.48999999 -0.34,2.23999999 -0.06,0.75 -0.25,1.81 1,2.08 0.12,0 0.24,0.22 0.3,0.35 0.34,0.78 0.66,1.27 1.19,0.11 0.08,-0.19 0.45,-0.24 0.69,-0.36 a 2,2 0 0 1 0.27,0.71 c 0,0.5 -0.3,1 -0.2,1.49 0.24,1.11 0,1 -0.68,0.37 -0.25,-0.22 -0.63,-0.16 -0.56,0.37 0.13,1 0.24,2 0.4,2.94 0,0.34 0.39,0.72 0.31,1 -0.5,1.55 -0.1,3.14 -0.32,4.7 0,0.26 -0.09,0.67 0,0.8 0.71,0.64 0.34,1.37 0.26,2.08 -0.06,0.55 -0.16,1.09 -0.18,1.64 -0.07,1.32 -0.06,2.64 -0.15,4 -0.08,1.15 -0.24,2.3 -0.38,3.44 0,0.46 0.05,0.73 0.35,0.82 z m -1.35,-104.17 a 3.15,3.15 0 0 1 1.27,0.23 c 1.13,0.6 2.2,1.3 3.32,1.91 a 3.15,3.15 0 0 1 1.54,2.3 2.54,2.54 0 0 1 0,0.55 c -0.18,0 -0.41,0 -0.54,-0.1 a 10,10 0 0 1 -3.05,-3 c -0.48,-0.88 -0.65,-1 -1.39,-0.81 -0.74,0.19 -1,-0.41 -1.44,-0.66 0.08,-0.12 0.17,-0.43 0.29,-0.42 z m -3.12,9.94 a 1.88,1.88 0 0 1 2.59,0.65 4.48,4.48 0 0 0 3.53,2 1.28,1.28 0 0 1 1,0.36 6.28,6.28 0 0 1 1.46,3.93 c -0.06,1.66 -0.93,3 -1.32,4.57 a 0.3,0.3 0 0 1 -0.15,0.18 22.52,22.52 0 0 1 -3.46,1 c -3,0.36 -7.18,-2.49 -7.28,-6.44 a 5.67,5.67 0 0 1 3.63,-6.25 z m 4.92,-2.23 a 2.19,2.19 0 0 1 -0.7,-1.08 c -0.34,-1 -0.08,-2.25 -1.17,-3 a 0.64,0.64 0 0 1 0.18,-0.31 1.57,1.57 0 0 1 1.91,0.41 19.57,19.57 0 0 0 1.78,1.75 23.93,23.93 0 0 0 2.5,1.58 c 0.06,0 0.4,-0.21 0.44,-0.37 0.04,-0.16 -0.11,-0.46 -0.09,-0.69 0.02,-0.23 0.18,-0.3 0.28,-0.45 a 2.27,2.27 0 0 1 0.35,0.26 c 0.19,0.2 0.32,0.5 0.55,0.59 a 0.88,0.88 0 0 0 1.18,-1.21 7.55,7.55 0 0 1 -0.4,-3 c 0,-2.22 -0.18,-4.44 -0.34,-6.66 -0.16,-2.22 -0.43,-4.59 -0.62,-6.88 -0.15,-1.78 -0.23,-3.56 -0.37,-5.34 0,-0.67 -0.18,-1.33 -0.26,-2 -0.08,-0.67 0.21,-1.06 0.94,-0.72 1.52,0.7 3,1.46 4.51,2.21 q 4,2 7.92,3.94 c 0.43,0.21 0.77,0.59 1.21,0.77 a 10.74,10.74 0 0 0 1.51,0.37 5.78,5.78 0 0 1 1,0.22 c 1,0.38 1.9,0.8 2.84,1.21 a 6.49,6.49 0 0 1 1,0.56 c 0.56,0.39 1,0.74 1.82,0.36 a 1.37,1.37 0 0 1 1.79,0.77 c 0.19,0.37 0.53,0.9 0.84,0.92 a 17.47,17.47 0 0 1 3.28,0.81 2.48,2.48 0 0 0 1.2,-0.07 c 0.92,-0.23 1.82,-0.53 2.74,-0.76 3,-0.72 6,-1.48 9.08,-2.12 a 31.64,31.64 0 0 1 4.13,-0.47 c 0.57,0 1,0.19 0.87,0.95 -0.21,1.62 -0.27,3.26 -0.5,4.87 -0.27,1.82 -0.65,3.61 -1,5.41 -0.38,2 -0.75,4.08 -1.14,6.12 -0.12,0.61 -0.3,1.21 -0.38,1.83 -0.21,1.59 -0.31,3.21 -0.6,4.79 a 3.1,3.1 0 0 1 -1,1.68 34.65,34.65 0 0 1 -8.43,5.62 2.5,2.5 0 0 1 -0.54,0.23 2.82,2.82 0 0 0 -1.82,1 c -0.83,0.91 -2.23,1.3 -3.32,1.88 l -3.67,-0.64 a 2.87,2.87 0 0 0 -1.06,-0.14 c -2,0.49 -3.69,-0.51 -5.52,-0.81 -0.43,-0.07 -0.78,-0.51 -1.21,-0.72 -2,-1 -4,-2 -6,-2.92 a 40.11,40.11 0 0 1 -7.77,-4.68 31.33,31.33 0 0 1 -3.1,-2.37 36,36 0 0 0 -4.85,-3.7 z m 36.18,57.23 a 3.25,3.25 0 0 1 -1,0.15 4.43,4.43 0 0 1 -1.1,-0.48 c 0.31,-0.26 0.61,-0.73 0.94,-0.76 a 13.41,13.41 0 0 1 2.45,0.12 c 0.15,0 0.29,0.22 0.43,0.34 -0.13,0.13 -0.24,0.33 -0.4,0.38 -0.41,0.11 -0.85,0.15 -1.28,0.22 z m -10.83,35 a 1.21,1.21 0 0 0 0.46,-1.12 c 0,-1 0.06,-2 0.14,-3 0,-0.2 0.22,-0.38 0.33,-0.57 a 4.81,4.81 0 0 1 0.44,0.47 c 0.31,0.44 0,1.28 0.85,1.38 a 0.65,0.65 0 0 1 0,0.28 c -0.81,0.3 -0.25,1.07 -0.54,1.58 -0.19,0.35 -0.06,0.58 0.24,0.64 z m 20.52,-57.49 c 0.1,0 0.24,0 0.31,0 0.8,0.5 1.59,1 2.37,1.55 0.08,0.06 0.11,0.2 0.23,0.41 a 3.33,3.33 0 0 1 -0.51,0.81 c -0.09,0.08 -0.52,-0.07 -0.66,-0.23 -0.59,-0.69 -1.13,-1.41 -1.67,-2.13 -0.09,-0.12 -0.06,-0.3 -0.08,-0.45 z m 11.28,52.21 c 0.15,-0.15 0.17,-0.37 0.07,-0.71 -1,-3.35 -2.06,-6.71 -3,-10.08 a 6.25,6.25 0 0 1 -0.06,-1.44 4.08,4.08 0 0 1 0.8,1.19 c 0.77,2.93 1.51,5.88 2.18,8.84 0.31,1.39 0.45,1.93 1,2 z m -1.7,-16 c 0,-0.06 0.07,-0.23 0.12,-0.38 a 1.67,1.67 0 0 1 0.26,0.35 q 1.38,3 2.74,6.06 a 2.29,2.29 0 0 1 0.18,0.56 0.33,0.33 0 0 1 -0.17,0.27 0.34,0.34 0 0 1 -0.29,-0.12 c -0.94,-2.26 -1.87,-4.47 -2.84,-6.74 z m 8.14,14.94 a 2.53,2.53 0 0 0 -0.07,-1.25 c -0.48,-1.37 -1,-2.72 -1.56,-4.08 a 2.37,2.37 0 0 1 -0.24,-0.8 c 0,-0.19 0.21,-0.38 0.32,-0.58 0.12,0.15 0.29,0.28 0.34,0.45 0.59,1.77 1.23,3.52 1.72,5.31 0.12,0.45 0.23,0.69 0.48,0.79 z m 2.54,-1.48 c -0.92,-2.63 -1.84,-5.27 -2.85,-7.87 -0.54,-1.39 -1.44,-2.67 -1.84,-4.09 a 24.17,24.17 0 0 0 -1.77,-4.27 7.16,7.16 0 0 1 -0.88,-2.92 5.78,5.78 0 0 0 -0.75,-2.56999999 C 132.9,-1.520011 132.52,-2.270011 132.16,-3.020011 c 0,-0.1 0,-0.27 0,-0.41 0.11,0 0.26,0 0.33,0.08 l 1.72,1.66 c 0.64,0.64 1.28,1.29000001 1.91,1.95000001 0.15,0.16 0.4,0.41 0.36,0.53 -0.35,0.90999999 0.43,1.35999999 0.78,1.99999999 0.72,1.3 2.22,1.65 3.23,2.58 a 2.41,2.41 0 0 0 2.66,0.49 1.65,1.65 0 0 1 2.18,0.47 c 0.09,0.1 0.27,0.11 0.41,0.16 0,-0.18 0,-0.43 -0.11,-0.52 -0.72,-0.58 -1,-1.19 -0.29,-2 0.12,-0.13 0.13,-0.58 0,-0.66 -0.75,-0.59 -0.17,-0.93 0.18,-1.35 0.22,-0.27 0.36,-0.62 0.57,-0.9 a 5.37,5.37 0 0 1 1.45,-1.64999999 c 0.75,-0.47000001 1.89,-1.00000001 1.57,-2.39000001 -0.05,-0.21 0.17,-0.51 0.31,-0.74 0.34,-0.52 0.73,-1 1.05,-1.55 0.57,-0.92 1.1,-1.85 1.63,-2.78 1.17,-2 2.39,-4 3.46,-6.12 1.07,-2.12 1.81,-4.08 2.8,-6.08 a 58.83,58.83 0 0 1 3,-5.33 8,8 0 0 1 2.39,-2.54 22.46,22.46 0 0 0 4.53,-3.65 c 0.72,-0.75 1.31,-1.74 2.49,-2 0.44,-0.09 0.28,-0.39 0.16,-0.74 -0.12,-0.35 -0.34,-1.14 -0.12,-1.39 1.56,-1.8 2.68,-4 4.71,-5.38 a 9,9 0 0 0 2.16,-2 c 1.57,-2.12 3,-4.29 4.5,-6.49 a 4.66,4.66 0 0 0 0.73,-1.87 c 0.23,-1.56 -0.74,-2.3 -2.17,-1.68 a 7.22,7.22 0 0 0 -1.39,0.91 c -0.35,0.26 -0.67,0.57 -1,0.84 a 1.33,1.33 0 0 1 -0.32,0.11 1.21,1.21 0 0 1 0,-0.42 3.88,3.88 0 0 1 0.3,-0.52 c 0.95,-1.7 1.95,-3.38 2.84,-5.11 a 2.55,2.55 0 0 0 -0.2,-2.84 2.36,2.36 0 0 1 -0.34,-0.87 c -0.23,-0.93 -0.39,-1.87 -0.65,-2.79 -0.43,-1.48 -1.22,-1.83 -2.49,-1 a 13.11,13.11 0 0 0 -2.14,1.88 c -0.46,0.47 -0.6,0.47 -0.84,-0.18 a 1.74,1.74 0 0 0 -2.37,-1.2 5.39,5.39 0 0 0 -2.34,1.34 58.67,58.67 0 0 0 -4.37,5.68 c -0.89,1.3 -1.47,2.8 -2.23,4.19 a 3.29,3.29 0 0 1 -0.73,0.71 3.86,3.86 0 0 1 -0.41,-0.81 c -0.31,-1.15 -0.57,-2.33 -0.88,-3.48 a 4.76,4.76 0 0 0 -2.24,-3 c -1.6,-0.94 -2.87,-0.27 -3,1.58 0,1 0,1.91 0,2.87 -0.08,2.35 -0.17,4.71 -0.32,7.06 a 2.21,2.21 0 0 1 -0.5,1.13 5.75,5.75 0 0 0 -0.54,5.63 28.9,28.9 0 0 1 2.59,7.19 4.09,4.09 0 0 1 -0.41,3.36 c -0.9,1.4 -1.8,2.79 -2.62,4.23 -1.24,2.19 -2.37,4.43 -3.62,6.61 -1.25,2.18 -2.67,4.41 -4,6.63 -1.06,1.82 -2.07,3.67 -3.12,5.5 -0.26,0.46 -0.59,0.65 -1,0.16 a 3.38,3.38 0 0 0 -2.27,-1.15 1.7,1.7 0 0 1 -0.85,-0.39 c -1,-0.87 -2,-1.77 -3.07,-2.67 a 95.64,95.64 0 0 1 -9.64,-10.48 2.12,2.12 0 0 1 -0.51,-0.91 c 0,-0.2 0.22,-0.46 0.34,-0.69 0.18,0.1 0.37,0.19 0.54,0.3 0.17,0.11 0.28,0.21 0.42,0.32 0,-0.22 0.05,-0.48 -0.06,-0.64 a 1.76,1.76 0 0 1 -0.34,-1.78 1.39,1.39 0 0 0 -1.21,-2 5.62,5.62 0 0 1 -1.88,-0.66 c -2.16,-1.31 -3.76,-3.34 -5.89,-4.71 -0.1,-0.06 -0.15,-0.18 -0.23,-0.27 a 5.57,5.57 0 0 1 -1.48,-3.81 2,2 0 0 0 -1.74,-2.06 c -1,-0.23 -1.93,-0.5 -2.9,-0.7 -0.59,-0.12 -0.77,-0.34 -0.42,-0.88 a 1.44,1.44 0 0 0 0,-1.88 c -0.52,-0.59 -0.33,-1 0.17,-1.41 0.88,-0.75 1.72,-1.56 2.63,-2.27 2.51,-2 5,-3.9 7.58,-5.84 0.36,-0.28 0.38,-0.22 0.8,0.07 0.08,0.06 0.35,-0.06 0.47,-0.16 a 12.51,12.51 0 0 0 1.27,-1.25 c 0.63,-0.76 1.19,-1.58 1.79,-2.36 a 14.79,14.79 0 0 1 1,-1.23 c 0.56,-0.61 1.49,-1 1,-2.13 0,-0.06 0.18,-0.32 0.32,-0.37 a 5.31,5.31 0 0 1 1,-0.23 c 1.7,-0.19 3.41,-0.36 5.12,-0.53 v -0.08 c 1.07,-0.17 2.14,-0.32 3.19,-0.54 a 6.13,6.13 0 0 0 1.69,-0.57 c 1.85,-1 3.67,-2.09 5.49,-3.14 a 3.85,3.85 0 0 0 0.8,-0.5 c 3,-2.85 6,-5.66 7.5,-9.66 a 2.7,2.7 0 0 1 0.33,-0.5 6.12,6.12 0 0 0 1,-3.88 1.85,1.85 0 0 0 -2.9,-1.62 24.92,24.92 0 0 1 -6.72,2.46 c -0.3,0.08 -0.89,0.08 -1,-0.06 a 1.6,1.6 0 0 1 0,-1.14 c 0.73,-1.8 1.58,-3.54 2.27,-5.35 a 11.67,11.67 0 0 0 0.75,-3.23 c 0.14,-1.78 0.52,-3.58 -0.73,-5.27 -0.62,-0.83 -0.71,-1.3 -1.73,-1.12 a 12.1,12.1 0 0 0 -3.32,1 c -1.7,0.87 -3.3,1.93 -4.91,3 -0.93,0.6 -1,0.61 -1.11,-0.43 -0.08,-1.28 -0.05,-2.56 -0.05,-3.84 a 49.08,49.08 0 0 0 0,-4.999999 49.69,49.69 0 0 0 -0.93,-5.13 c -0.52,-2.71 -1,-5.42 -1.57,-8.12 a 20.91,20.91 0 0 1 -0.55,-2.41 c 0,-0.58 0.85,-1.26 -0.22,-1.74 0,0 0,-0.18 0.05,-0.21 0.5,-0.39 0.06,-0.56 -0.16,-0.82 -0.77,-0.91 -1.7,-0.67 -2.66,-0.45 a 14.47,14.47 0 0 0 -6.1,3.38 28.42,28.42 0 0 0 -2.64,2.22 c -1.15,1.25 -2.15,2.64 -3.23,4 a 2.22,2.22 0 0 1 -0.45,0.34 2.19,2.19 0 0 1 -0.2,-0.63 25.57,25.57 0 0 0 -1.22,-7.13 19,19 0 0 0 -4.1,-7.49 3.2,3.2 0 0 0 -2.5,-1.43 7.26,7.26 0 0 0 -6.16,3.54 c -1.36,2.2 -2.57,4.5 -3.77,6.8 a 11.68,11.68 0 0 0 -1.67,5.19 3.36,3.36 0 0 1 -0.49,0.95 5.45,5.45 0 0 1 -0.63,-1.16 c -0.57,-2.15 -1,-4.35 -1.67,-6.49 a 13.18,13.18 0 0 0 -3.7,-6.31 c -0.71,-0.63 -1.22,-1.48 -1.89,-2.15 a 14.9,14.9 0 0 0 -2,-1.65 c -0.41,-0.28 -0.45,-0.2 -0.34,-0.73 0,-0.09 -0.14,-0.32 -0.21,-0.32 a 2.22,2.22 0 0 0 -1,0.18 c -0.69,0.44 -1.33,1 -2,1.49 a 11.44,11.44 0 0 0 -3.86,5.08 c -1.19,3.33 -2.68,6.58 -3.06,10.18 -0.19,1.78 -0.74,3.52 -0.22,5.32 a 3.08,3.08 0 0 1 0.1,0.95 c 0,0.85 -0.57,1.14 -1.29,0.72 a 6.16,6.16 0 0 1 -0.75,-0.6 c -1.21,-1 -2.37,-2 -3.64,-2.92 a 67.9,67.9 0 0 0 -8.72,-5.68 6.68,6.68 0 0 0 -5,-0.71 4.86,4.86 0 0 0 -1.59,1 c -0.22,0.18 -0.23,0.61 -0.44,0.83 -0.53,0.57 -0.24,-0.45 -0.57,-0.32 a 0.4,0.4 0 0 0 -0.19,0.14 5.15,5.15 0 0 0 -0.67,1.84 44.4,44.4 0 0 0 0.56,4.74 c 0.37,2.35 0.42,4.75 1.29,6.999999 0.46,1.2 0.48,2.57 1,3.76 a 46.22,46.22 0 0 0 2.54,5.6 c 1.16,2.13 2.53,4.15 3.8,6.22 a 4.22,4.22 0 0 1 0.31,0.82 7,7 0 0 1 -0.91,0.09 0.9,0.9 0 0 1 -0.55,-0.2 c -0.09,-0.08 -0.13,-0.39 -0.07,-0.43 0.6,-0.44 0.11,-0.47 -0.19,-0.49 -0.56,0 -1.12,0 -1.67,0 -2.27,-0.23 -4.53,-0.58 -6.8,-0.69 a 9.19,9.19 0 0 0 -3.27,0.53 c -1.61,0.54 -1.88,1.6 -0.91,3 0.97,1.4 1.75,2.57 2.69,3.81 a 14.69,14.69 0 0 0 2.22,2.49 c 2.84,2.32 5.71,4.62 8.67,6.8 1.56,1.15 3.35,2 5,3 a 18.65,18.65 0 0 1 1.53,1.16 19.16,19.16 0 0 0 -1.44,1.41 c -0.24,0.28 -1.08,0.33 -0.51,1 0,0 0,0.21 -0.12,0.28 a 6.25,6.25 0 0 0 -1.83,4.13 c -0.17,1.76 0.76,3.14 1.44,4.52 a 27,27 0 0 0 3,4 c 0.18,0.23 0.49,0.65 0.43,0.71 -0.42,0.46 -0.14,0.48 0.26,0.54 a 17.36,17.36 0 0 0 5.48,0.07 c 3,-0.5 4.67,-2.42 5.78,-5 a 6.93,6.93 0 0 0 0.21,-4 2,2 0 0 1 0.15,-0.73 c 0.23,0.12 0.57,0.18 0.68,0.37 a 3.5,3.5 0 0 1 0.48,1.32 8.41,8.41 0 0 0 1.42,3.78 5.12,5.12 0 0 1 0.87,3 6.52,6.52 0 0 0 1.3,4 c 0.75,1 1.15,1.76 0.39,2.93 -1,1.53 -1.86,3.13 -2.74,4.73 -0.7,1.28 -1.36,2.6 -2,3.92 a 0.85,0.85 0 0 0 0.09,0.78 c 0.78,0.81 0.4,1.68 0.1,2.47 -0.52,1.34 -1.13,2.64 -1.76,3.93 -1.54,3.11 -3.16,6.18 -4.65,9.32 -0.85,1.79 -1.5,3.68 -2.26,5.53 -0.61,1.5 -1.28,3 -1.86,4.48 -1.22,3.16 -2.4,6.34000001 -3.59,9.52 -0.78,2.09 -1.56,4.17 -2.33,6.27 a 1.39,1.39 0 0 0 -0.06,0.58 c 0,1.08 0.06,2.15 0.11,3.23 a 25.31,25.31 0 0 0 0.26,4.28 59.88,59.88 0 0 1 1.06,8.53 c 0.17,2.23 0.36,4.46 0.54,6.69 0,0.49 0.16,0.81 0.47,0.94 l -26.53,4.4 -28,-168.769999 168.76,-28 28,168.759999 -68.29,11.32 c 0.27,-0.17 -0.04,-0.61 -0.16,-0.94 z"/>
  </g>
</svg>
