<svg xmlns="http://www.w3.org/2000/svg" viewBox="0 0 100 100"><path d="M93.27,44.31C89.54,54,82.56,58.24,82.43,58.21c-1.6,6-6.87,14.21-7.64,20.08-.11.85,1.09,1.64,1.53,1.86,2.07,1,2.56,2,2.56,3.63V84a.55.55,0,0,1-.55.55H71c-2.08,0-1.68-4.23-1.64-4.61h0a157.11,157.11,0,0,1,1.13-17.77c-1.6.37-3.16.67-4.66.93a30.65,30.65,0,0,0-2.75,9.18c-.11.85,1.09,1.09,1.53,1.31,2.07,1,2.56,2,2.56,3.63v.23a.55.55,0,0,1-.55.55H59.24a1.43,1.43,0,0,1-1.33-1c.06-.45.14-.9.22-1.34.17-.9.34-1.83.53-2.73s.39-1.82.65-2.71c-.4.85-.74,1.71-1.09,2.58-.17.44-.33.87-.5,1.31s-.32.88-.47,1.33c-.3.89-.56,1.8-.79,2.72l0,.11a20.39,20.39,0,0,0-.74,3.31c-.11.85,1.09,1.64,1.53,1.86,2.07,1,2.56,2,2.56,3.63v.23a.55.55,0,0,1-.55.55H51.87c-2.09,0-1.68-4.23-1.64-4.61h0A124.54,124.54,0,0,1,51.66,64.5a39.65,39.65,0,0,1-5.91-.59c-1.41,3.62-3.09,6.2-3.69,10.83-.11.85,1.09,1.64,1.53,1.86,2.07,1,2.56,2,2.56,3.63v.23a.55.55,0,0,1-.55.55H38.23c-2.08,0-1.68-4.23-1.64-4.61h0a84.42,84.42,0,0,1,.7-14.6c-4.94-.49-19.86-.34-19.71,13.42.13,11.65,13.56,16.43,20.65,17.47s12.67.26,21-.12c8.78-.4,16.27,3.22,15.51,4.35-.61.92-6.88-1.83-14.69-.91-7.6.9-9.82,3.74-21.28,4-7.37.14-20.21.07-28.37-10.23C-1,75.29,1.79,55.36,13.41,41.46c9-10.77,21.14-17.1,36.14-16.78C68,25.08,77.87,39.08,81,41.44c1.83,1.38,5.68-6.48,6.76-16.78S85.92,7.81,85.92,7.81a10.49,10.49,0,0,1-4.66.3c-3.15-.63-4.79-3-3.94-5C78.68-.17,83.58-1,88.26,1.38S94.78,8.51,96,15.45A52.75,52.75,0,0,1,93.27,44.31Z" style="fill:#bebebe"/></svg>
