<svg
   xmlns="http://www.w3.org/2000/svg"
   xml:space="preserve"
   viewBox="0 0 100 100"
   y="0px"
   x="0px"
   version="1.1">
  <style type="text/css">
	 .st0{fill:black;}
  </style>
  <g transform="translate(0 40px) matrix(1.017294,0,0,1.0166848,-0.7121058,-20.724773)">
    <path d="m 50.4,74.9 c -0.3,-0.3 -0.2,-0.7 -0.2,-1 0,-11.3 0,-22.6 0,-33.9 0,-0.6 0,-1.2 0.5,-1.6 0.3,-0.3 0.5,-0.8 0.5,-1.3 0.2,-1.7 1,-3 2.1,-4 1.6,-1.5 3.3,-2.7 5.1,-3.7 4.1,-2.3 8.4,-4.2 12.9,-4.9 2.2,-0.3 4.4,-0.4 6.5,-0.9 2.7,-0.6 5.4,-1.6 8,-2.9 0.6,-0.3 0.9,-0.2 1.1,0.6 2.6,9.3 5.1,18.6 7.7,27.9 0.2,0.8 0.5,1.6 0.7,2.5 0.1,0.5 0.1,0.8 -0.3,1 -3.9,1.9 -7.9,3.5 -12,4.1 -3.3,0.5 -6.7,0.6 -10,1.5 -6.5,1.9 -12.7,4.8 -18.4,9.3 -0.8,0.7 -1.6,1.5 -2.3,2.4 -0.8,1.1 -1.4,2.4 -1.6,3.9 0,0.3 0,0.7 -0.3,1 z"
       class="st0" />
    <path d="M 49.1,74.4 C 49,74.3 49,74.2 49,74.1 48.5,70.7 46.6,68.7 44.5,67.1 38.3,62.4 31.6,59.2 24.4,57.7 21.6,57.1 18.8,57.1 16,56.6 12.1,55.9 8.4,54.4 4.8,52.6 4.3,52.4 4.2,52.1 4.4,51.5 5.9,45.7 7.4,39.9 9,34.1 c 1.1,-4.2 2.3,-8.5 3.4,-12.7 0.3,-1.2 0.3,-1.2 1.3,-0.7 4,2 8.2,3.2 12.6,3.5 4.8,0.4 9.4,2.1 13.7,4.6 2,1.1 4.1,2.3 5.9,4 1.2,1.1 2.1,2.5 2.4,4.4 0.1,0.4 0.1,0.8 0.4,1 0.7,0.7 0.7,1.6 0.7,2.5 0,10.8 0,21.7 0,32.5 -0.1,0.3 -0.1,0.7 -0.3,1.2 z"
       class="st0" />
    <path d="m 57.9,71 c 1.6,-1 3.2,-1.6 4.9,-2.2 3.6,-1.3 7.2,-2.4 11,-2.8 2.6,-0.3 5.2,-0.2 7.8,-0.1 5.3,0.4 10.5,-0.4 15.6,-2.1 0.6,-0.2 0.9,0 0.9,0.8 0.1,1.5 0.3,3.1 0.4,4.6 0.1,0.9 -0.1,1.2 -0.8,1.3 -1.7,0.1 -3.3,0.3 -5,0.4 C 88.3,71.1 84.1,70.2 79.8,69.3 76.1,68.5 72.4,68.5 68.7,68.9 65,69.4 61.4,70 57.9,71 Z"
       class="st0" />
    <path d="m 41.7,71 c -1,-0.3 -1.9,-0.6 -2.8,-0.8 -4.7,-1.1 -9.4,-1.8 -14.1,-1.6 -2.9,0.1 -5.7,0.7 -8.5,1.4 -4.3,1 -8.6,1.1 -12.9,0.5 -0.5,-0.1 -1,-0.2 -1.6,-0.2 -0.6,0 -0.7,-0.4 -0.6,-1 0.2,-1.7 0.3,-3.4 0.5,-5.1 0.1,-0.7 0.4,-0.8 0.8,-0.6 2.6,0.8 5.3,1.5 8,1.9 2.9,0.4 5.8,0.4 8.7,0.2 3.3,-0.2 6.6,0 9.9,0.7 3.9,0.9 7.7,2.1 11.5,3.8 0.4,0.3 0.8,0.3 1.1,0.8 z"
       class="st0" />
    <path d="m 57.8,68.2 c 0.7,-0.7 1.5,-1.2 2.3,-1.6 4.5,-2.6 9,-4.8 13.8,-5.9 2.2,-0.5 4.4,-0.8 6.6,-1 4.9,-0.5 9.6,-2 14.1,-4.2 1.7,-0.8 1.7,-0.8 2.2,1.3 0.3,1.1 0.4,2.2 0.6,3.3 0.1,0.6 0,0.9 -0.5,1.1 -2.5,0.8 -5,1.4 -7.5,1.8 -2.6,0.4 -5.2,0.5 -7.8,0.3 -1.8,-0.1 -3.6,-0.2 -5.4,-0.1 -4.2,0.1 -8.4,1.2 -12.5,2.5 -1.9,0.8 -3.9,1.6 -5.9,2.5 z"
       class="st0" />
    <path d="M 42,68.3 C 39.1,66.9 36.4,66 33.6,65.1 28.6,63.5 23.5,62.9 18.3,63.4 13.1,63.8 8,62.9 2.9,61.4 2.2,61 2,60.7 2.2,59.8 c 0.3,-1.4 0.5,-2.7 0.9,-4 0.3,-0.8 0.6,-1 1.3,-0.7 3.7,1.8 7.4,3.3 11.4,4 2,0.4 4,0.6 6,0.8 4.5,0.5 8.8,1.9 13,4 2.2,1.1 4.3,2.2 6.4,3.5 0.2,0.2 0.5,0.3 0.8,0.9 z"
       class="st0" />
    <path d="m 40.4,73.3 c -0.9,0.3 -1.8,0 -2.7,0 -2.7,-0.2 -5.4,-0.2 -8.1,0 -3.2,0.2 -6.4,0.8 -9.5,1.9 -2.4,0.8 -4.7,1.8 -7.2,2.6 -3.8,1.2 -7.6,1.6 -11.5,1.6 -0.5,0 -0.7,-0.2 -0.7,-0.9 0.1,-1.4 0.2,-2.9 0.2,-4.4 0,-0.8 0.2,-1.1 1,-1 2.7,0.4 5.4,0.5 8.1,0.4 3.1,0 6.2,-0.8 9.3,-1.4 3.8,-0.8 7.6,-1 11.4,-0.5 2.9,0.3 5.9,0.8 8.8,1.5 0.3,0 0.6,0.1 0.9,0.2 z"
       class="st0" />
    <path d="m 59.3,73.5 c 0.7,-0.6 1.6,-0.7 2.4,-0.9 4.7,-1.1 9.5,-1.6 14.3,-1.3 2.6,0.2 5.1,0.8 7.7,1.4 4,0.8 8,1 12,0.5 0.8,-0.1 1.6,-0.1 2.4,-0.3 0.5,-0.1 0.7,0.2 0.7,0.8 0.1,1.7 0.2,3.3 0.2,5 0,0.5 -0.2,0.6 -0.6,0.6 -5.1,-0.2 -10.1,-0.8 -15,-2.8 -3.5,-1.4 -7,-2.6 -10.6,-3 -4,-0.4 -7.9,-0.6 -11.9,-0.1 -0.5,0.1 -1.1,0.1 -1.6,0.1 z"
       class="st0" />
  </g>
</svg>