<svg xmlns="http://www.w3.org/2000/svg" viewBox="0 0 100 100"><path d="M29.66,100a2.07,2.07,0,0,0,.73-.39A82.3,82.3,0,0,0,51.61,78.73,101.72,101.72,0,0,0,66.1,48,136.69,136.69,0,0,0,71,21.55a2.34,2.34,0,0,0,0-.66,1,1,0,0,0-.93-.89.92.92,0,0,0-1,.73,3.33,3.33,0,0,0-.12.65A140.43,140.43,0,0,1,65.36,43,107.84,107.84,0,0,1,54.19,71a84.69,84.69,0,0,1-14.3,18.3A74,74,0,0,1,29.7,97.59a4,4,0,0,0-1.08.87.92.92,0,0,0-.1,1.1A1,1,0,0,0,29.66,100Z" style="fill:#bebebe"/><path d="M67,64.8a34.9,34.9,0,0,0-4.4,1.13A6.12,6.12,0,0,0,59,72.42a3.75,3.75,0,0,0,4.2,2.83,7.05,7.05,0,0,0,4-2.08A77.57,77.57,0,0,0,75,64c.1-.13.26-.27.17-.45s-.31-.09-.47-.07C72.13,63.84,69.56,64.19,67,64.8Z" style="fill:#bebebe"/><path d="M65.52,57.51c.6,2.7,3.29,3.77,6,2.41a9.79,9.79,0,0,0,3.35-3.33,83.84,83.84,0,0,0,5.36-8.67c.1-.18.33-.39.17-.59s-.44,0-.67,0q-3.79,1-7.5,2.3A21.73,21.73,0,0,0,68.81,51a6.27,6.27,0,0,0-3.43,5.3A4.12,4.12,0,0,0,65.52,57.51Z" style="fill:#bebebe"/><path d="M69.91,42.06c.58,2.76,3.33,3.87,6,2.43a6.33,6.33,0,0,0,2.34-2.29,75,75,0,0,0,5.33-10.87c.06-.15.19-.34,0-.48s-.33,0-.48,0a91.08,91.08,0,0,0-9.88,4.49A6.22,6.22,0,0,0,69.91,42.06Z" style="fill:#bebebe"/><path d="M72.49,26.3c.72,3.23,4.14,4.21,6.75,2A8.89,8.89,0,0,0,81.43,25a90.1,90.1,0,0,0,3.64-10.15c.06-.18.19-.4,0-.55s-.36,0-.53.12a80.7,80.7,0,0,0-9.38,5.46A6.2,6.2,0,0,0,72.49,26.3Z" style="fill:#bebebe"/><path d="M36.62,35.29a70.13,70.13,0,0,0-9.29-22.17c-.29-.46-.57-1.07-1.3-.74-.5.23-.48.78,0,1.53A62.38,62.38,0,0,1,33.2,28.82a63.77,63.77,0,0,1,1.91,6.93c2.45,12.09,4.75,15,1.05,26.83q-.71,2.28-1.59,4.5a3.34,3.34,0,0,0-.12.35c-.13.49-.15,1,.42,1.17s.83-.18,1-.62c.48-1.28,1-2.57,1.4-3.87,2.11-8.07,2-6.46,2.21-12.82C39.23,46.64,37.7,40.77,36.87,37,36.75,36.41,36.7,35.84,36.62,35.29Z" style="fill:#bebebe"/><path d="M74.24,9.84A70.7,70.7,0,0,0,70.6.36C70.53.21,70.47,0,70.27,0S70,.22,70,.38a102.86,102.86,0,0,0-3.53,11.28A5.8,5.8,0,0,0,67.16,16c1.7,2.84,5.11,2.78,6.73-.12C74.77,14.36,74.92,12.87,74.24,9.84Z" style="fill:#bebebe"/><path d="M56.41,16.17a64.57,64.57,0,0,0,2.47,8.44,4.89,4.89,0,0,0,2.81,2.75A3.73,3.73,0,0,0,67,24.62a5.42,5.42,0,0,0-1.78-5.51,33,33,0,0,0-5.32-3.78c-1.11-.67-2.24-1.31-3.37-1.95-.18-.1-.38-.31-.59-.13s0,.37,0,.55C56.06,14.6,56.24,15.38,56.41,16.17Z" style="fill:#bebebe"/><path d="M56,36.64c.44,1.61.8,3.11,2.09,4.16a3.94,3.94,0,0,0,6.72-2.74,5.56,5.56,0,0,0-1.61-4.62,40.12,40.12,0,0,0-5-4.3c-1-.75-2-1.46-3-2.19-.13-.1-.28-.26-.46-.15s-.08.31-.06.47c.21,2.26.56,4.51.92,6.75A24.43,24.43,0,0,1,56,36.64Z" style="fill:#bebebe"/><path d="M52.54,51.72a5.08,5.08,0,0,0,4.22,4,3.56,3.56,0,0,0,3.4-1.78,5.23,5.23,0,0,0,.05-5.7,18.82,18.82,0,0,0-3.1-3.7q-2.16-2.2-4.51-4.2c-.14-.12-.27-.32-.5-.24s-.13.24-.13.38A87.21,87.21,0,0,0,52.54,51.72Z" style="fill:#bebebe"/><path d="M47.12,64.89a4.93,4.93,0,0,0,2.55,3.42c2.45,1.22,5.18-.41,5.69-3.35a5.8,5.8,0,0,0-.79-4.08A52.34,52.34,0,0,0,49.33,54c-.28-.34-.57-.67-.87-1-.13-.14-.25-.37-.46-.31s-.18.33-.2.51c-.22,2.12-.44,4.24-.64,6.36-.13,1.34-.19,2.68-.19,4A5.61,5.61,0,0,0,47.12,64.89Z" style="fill:#bebebe"/><path d="M37.71,35.17a3.92,3.92,0,0,0,.81,1.71,2.73,2.73,0,0,0,4.19.2,5,5,0,0,0,1.36-3.32A58.76,58.76,0,0,0,44,25.19c0-.16,0-.37-.19-.43s-.27.1-.36.21a56.49,56.49,0,0,0-5.2,6.73A4.61,4.61,0,0,0,37.71,35.17Z" style="fill:#bebebe"/><path d="M39.31,47.16a3,3,0,0,0,2.56,2.55,3.6,3.6,0,0,0,3.38-2.26,14.74,14.74,0,0,0,.88-3.18c.42-2.14.69-4.3.89-6.46,0-.21.13-.49-.09-.61s-.39.15-.55.28a71,71,0,0,0-5.75,5.23A4.91,4.91,0,0,0,39.31,47.16Z" style="fill:#bebebe"/><path d="M39.5,16.19c-.21-.93-.41-1.87-.62-2.8,0-.15,0-.38-.26-.39s-.23.16-.31.28a52.48,52.48,0,0,0-4,7.43,4.48,4.48,0,0,0,.89,4.86,2.73,2.73,0,0,0,4.24-.08,4,4,0,0,0,1-2.49A28.34,28.34,0,0,0,39.5,16.19Z" style="fill:#bebebe"/><path d="M34.76,10.4A59.46,59.46,0,0,0,32.1,2.71c-.06-.16-.1-.43-.36-.4s-.23.23-.3.39a60.92,60.92,0,0,0-2.72,7.6,4.52,4.52,0,0,0,1.39,4.75,2.79,2.79,0,0,0,4.7-1.26A5.47,5.47,0,0,0,34.76,10.4Z" style="fill:#bebebe"/><path d="M24.24,11.71a2.88,2.88,0,0,0,1.91-3.95A5.62,5.62,0,0,0,24,5a47,47,0,0,0-6.76-3.85c-.15-.07-.31-.2-.48-.08s-.07.32,0,.47c1,2.61,2,5.28,3.26,7.78a4.19,4.19,0,0,0,3.45,2.42,2.86,2.86,0,0,0,.44,0A2.71,2.71,0,0,0,24.24,11.71Z" style="fill:#bebebe"/><path d="M26.43,17a4,4,0,0,0-3.35-2.9,17.19,17.19,0,0,0-4.17.17c-1.21.15-2.42.36-3.63.54-.17,0-.37,0-.44.2s.12.3.25.4A64.43,64.43,0,0,0,21.36,20a3.64,3.64,0,0,0,3.58.2A2.69,2.69,0,0,0,26.43,17Z" style="fill:#bebebe"/><path d="M31,26.08a3.82,3.82,0,0,0-2.69-2.72,27.71,27.71,0,0,0-8-.45c-.57,0-.31.36-.1.58q1.29,1.36,2.6,2.69A31.38,31.38,0,0,0,25.6,28.8a3.6,3.6,0,0,0,3.78.64A2.73,2.73,0,0,0,31,26.08Z" style="fill:#bebebe"/><path d="M35.27,46a3.81,3.81,0,0,0-1.75-2.52,31.52,31.52,0,0,0-7.13-2.86c-.38-.12-.54,0-.36.38a56.44,56.44,0,0,0,3.61,7.21,3.49,3.49,0,0,0,2.06,1.45C34,50.31,35.82,48.48,35.27,46Z" style="fill:#bebebe"/><path d="M33.76,35.22a3.87,3.87,0,0,0-2.64-2.28,33.45,33.45,0,0,0-5.73-1.25l-1.24-.17c-.41-.05-.6.07-.32.47a57.53,57.53,0,0,0,4.67,6.39,3.57,3.57,0,0,0,3.35,1.11C33.47,39.24,34.33,37.7,33.76,35.22Z" style="fill:#bebebe"/></svg>