<svg version="1.1"
	 xmlns="http://www.w3.org/2000/svg" x="0px" y="0px" viewBox="0 0 100 100"
	 style="enable-background:new 0 0 100 100;" xml:space="preserve">
<style type="text/css">
	.st0{fill:black;}
</style>
<polygon class="st0" points="92.4,65 90.4,45.1 72.5,20.7 64.2,42.3 57.7,20.9 46,7.9 31.8,44.7 21.9,27.8 0.3,84.2 2.3,85.5 
	22.6,32.4 22.6,48.1 28.9,59.4 22.9,69.7 40.7,92.1 33.3,63.5 36.8,53.2 33.4,47.3 46.2,13.8 44,32.6 48.9,43.1 47.2,61 57.3,47 
	65.3,46 73.2,25.4 76,55.1 65.5,61.6 60.9,92.1 80.3,71.5 99.3,82.5 "/>
</svg>
