<svg version="1.1"
	 xmlns="http://www.w3.org/2000/svg" x="0px" y="0px" viewBox="0 0 100 100"
	 style="enable-background:new 0 0 100 100;" xml:space="preserve">
<style type="text/css">
	.st0{fill:#bebebe;}
</style>
		<path class="st0" d="M37.1,98.1c-1,0-1.8-0.8-1.8-1.8V29.4c0-1,0.8-1.8,1.8-1.8s1.8,0.8,1.8,1.8v66.9
			C38.9,97.3,38.1,98.1,37.1,98.1z"/>
		<path class="st0" d="M24,92.5c-1,0-1.8-0.8-1.8-1.8V36.3c0-1,0.8-1.8,1.8-1.8s1.8,0.8,1.8,1.8v54.4C26,91.7,25.2,92.5,24,92.5z"/>
		<path class="st0" d="M76,92.5c-1,0-1.8-0.8-1.8-1.8V36.3c0-1,0.8-1.8,1.8-1.8s1.8,0.8,1.8,1.8v54.4C77.8,91.7,77,92.5,76,92.5z"/>
		<path class="st0" d="M63,98.1c-1,0-1.8-0.8-1.8-1.8V29.4c0-1,0.8-1.8,1.8-1.8s1.8,0.8,1.8,1.8v66.9C64.8,97.3,64,98.1,63,98.1z"/>
		<path class="st0" d="M50,100c-1,0-1.8-0.8-1.8-1.8V23.8c0-1,0.8-1.8,1.8-1.8s1.8,0.8,1.8,1.8v74.2C51.9,99.1,51,100,50,100z"/>
		<path class="st0" d="M82.4,32.7c-4.5,0-8.5-1.7-11.2-4.8c-2.6-3.1-3.7-7.2-3.1-11.5c0.6-3.8,2.7-7.1,5.8-8.8C76.7,6,80,5.9,83,7.1
			c6.8,2.8,6.1,8.3,5.8,10c-0.4,2.8-3.4,5.3-6.6,5.3c-2.3,0-3.8-1.7-4.3-3.4c-0.4-1.6,0.2-3,1.5-3.7c0.9-0.5,2-0.1,2.5,0.8
			c0.4,0.8,0.2,1.7-0.4,2.2c0.1,0.2,0.3,0.4,0.6,0.4c1.4,0,2.7-1.2,2.8-2c0.2-1.7,0.6-4.3-3.5-6.2c-2-0.8-4.1-0.7-6,0.3
			c-2,1.1-3.5,3.4-3.9,6.2c-0.5,3.2,0.3,6.3,2.2,8.6c2,2.3,4.9,3.5,8.4,3.5c6.9,0,13.9-4.1,13.9-12.1c0-7.9-5.6-13.2-13.9-13.2H17.7
			C9.4,3.6,3.7,8.9,3.7,16.9S10.7,29,17.7,29c3.4,0,6.4-1.3,8.4-3.5c1.9-2.2,2.7-5.4,2.2-8.6c-0.4-2.7-1.8-4.9-3.9-6.2
			c-1.8-1-3.9-1.1-6-0.3c-4.1,1.7-3.8,4.3-3.5,6.2c0.1,0.8,1.4,2,2.8,2c0.3,0,0.5-0.2,0.6-0.4c-0.6-0.5-0.8-1.5-0.4-2.2
			c0.5-0.9,1.6-1.2,2.5-0.8c1.3,0.7,1.9,2.2,1.5,3.7c-0.4,1.7-2,3.4-4.3,3.4c-3.1,0-6.2-2.4-6.6-5.3c-0.2-1.8-1-7.2,5.8-10
			c3-1.3,6.4-1.1,9.2,0.5c3,1.7,5.2,4.9,5.8,8.8c0.7,4.3-0.4,8.4-3.1,11.5s-6.7,4.8-11.2,4.8C7.6,32.7,0,25.9,0,16.9
			C0,7,7.3,0,17.6,0h64.8C92.8,0,100,7,100,16.9C100,25.9,92.5,32.7,82.4,32.7z"/>
		<path class="st0" d="M63,16.5h-26c-1,0-1.8-0.8-1.8-1.8s0.8-1.8,1.8-1.8h26c1,0,1.8,0.8,1.8,1.8C64.8,15.6,64,16.5,63,16.5z"/>
</svg>
