<svg xmlns="http://www.w3.org/2000/svg" viewBox="0 0 100 100"><circle cx="3.2" cy="56.05" r="3.2" transform="translate(-50.02 38.16) rotate(-68.16)" style="fill:#bebebe"/><circle cx="20.43" cy="13.04" r="3.2" transform="translate(0.72 27.16) rotate(-68.16)" style="fill:#bebebe"/><circle cx="79.57" cy="86.66" r="3.2" transform="translate(-30.47 128.27) rotate(-68.16)" style="fill:#bebebe"/><circle cx="96.8" cy="43.65" r="3.2" transform="translate(20.27 117.27) rotate(-68.16)" style="fill:#bebebe"/><circle cx="32.84" cy="93.75" r="3.2" transform="translate(-66.4 89.35) rotate(-68.16)" style="fill:#bebebe"/><circle cx="67.9" cy="6.25" r="3.2" transform="translate(36.84 66.96) rotate(-68.16)" style="fill:#bebebe"/><path d="M54.22,79.71h2.34v1.1h-4v-.88a5.76,5.76,0,0,0,2.37-4.74c0-2-1.16-4.17-3.44-4.17s-3.52,2.09-3.52,4.2a5.82,5.82,0,0,0,2.39,4.71v.88h-4v-1.1h2.32v0a6.05,6.05,0,0,1-2.12-4.55,5,5,0,0,1,5-5.22A4.76,4.76,0,0,1,56.34,75a6.08,6.08,0,0,1-2.12,4.7Z" style="fill:#bebebe"/><path d="M81.69,57.48h-1l-2.55-6.8L77,51.17l-.3-.75,2.2-.91,2,5.49a8.66,8.66,0,0,1,.3,1h0c0-.27.13-.67.22-1L84.3,42.8h1.05Z" style="fill:#bebebe"/><path d="M56.46,43.14v9.8a19.69,19.69,0,0,0,.47,5.19h-3c-.32-.54-.58-2.09-.58-4.87V43.14H47.63c-.14,4.61-1.19,12.11-2.45,15h-3c1.3-3.42,2.31-10.34,2.41-15a16,16,0,0,0-3.53.33l-.43-1.87c.79-.54,2.2-.9,5-.9H59.2l-.33,2.45Z" style="fill:#bebebe"/><path d="M36.89,24.79c-1.1,1.08-2.25,2.27-4,2.27a3,3,0,0,1-3.1-3.16A3.21,3.21,0,0,1,33,20.69c1.62,0,2.81,1.26,3.85,2.3,1.1-1.1,2.25-2.3,4-2.3A3,3,0,0,1,44,23.9a3.21,3.21,0,0,1-3.29,3.16C39.12,27.06,37.92,25.81,36.89,24.79ZM36,23.9c-.85-.78-1.73-1.93-3-1.93a1.91,1.91,0,0,0-1.9,1.93A1.81,1.81,0,0,0,33,25.78C34.2,25.78,35.2,24.74,36,23.9Zm6.63,0A1.83,1.83,0,0,0,40.8,22c-1.23,0-2.23,1.08-3.05,1.93.84.76,1.73,1.88,3,1.88A1.89,1.89,0,0,0,42.65,23.9Z" style="fill:#bebebe"/><path d="M22.86,42.63l1-1.25a8,8,0,0,0,1.1.67,2.19,2.19,0,0,0,.95.2,1.6,1.6,0,0,0,1-.27.88.88,0,0,0,.35-.73.83.83,0,0,0-.4-.81,2.74,2.74,0,0,0-1.26-.22H25V38.8h.92a1.66,1.66,0,0,0,.9-.2.76.76,0,0,0,.3-.69q0-.9-1.28-.9a2.3,2.3,0,0,0-.87.15,3,3,0,0,0-.77.48l-1.14-1a4.24,4.24,0,0,1,1.19-.8,4.17,4.17,0,0,1,1.62-.26,3.27,3.27,0,0,1,2.09.62,2,2,0,0,1,.77,1.7,1.42,1.42,0,0,1-.36.94,2.16,2.16,0,0,1-.86.62Q29,40,29,41.24a2.48,2.48,0,0,1-.18.94,2.32,2.32,0,0,1-.54.78,2.49,2.49,0,0,1-1,.55,4.68,4.68,0,0,1-1.44.2,4.87,4.87,0,0,1-1-.11,4.12,4.12,0,0,1-.86-.27c-.23-.11-.44-.21-.62-.32A3.77,3.77,0,0,1,22.86,42.63Z" style="fill:#bebebe"/><path d="M67.86,67.19l-1.5-.33.39-2.06H72v1a16.32,16.32,0,0,0-1.69,3.43,12.18,12.18,0,0,0-.68,3.21H68a15.8,15.8,0,0,1,.67-3,17.65,17.65,0,0,1,1.45-3.13H68.05Z" style="fill:#bebebe"/><path d="M31.21,73.82a1.89,1.89,0,0,0,1.45-.62,2.13,2.13,0,0,0,.57-1.5,3.47,3.47,0,0,1-2,.69,3.73,3.73,0,0,1-.78-.08,2.69,2.69,0,0,1-.71-.27,2,2,0,0,1-.59-.47,2.14,2.14,0,0,1-.4-.74,3.25,3.25,0,0,1-.15-1,3,3,0,0,1,.08-.68,2.72,2.72,0,0,1,.3-.72,2.53,2.53,0,0,1,.55-.67,2.68,2.68,0,0,1,.9-.48,4.08,4.08,0,0,1,1.29-.19,3,3,0,0,1,2.47,1A4.82,4.82,0,0,1,35,71.15a4.28,4.28,0,0,1-1,3,3.47,3.47,0,0,1-2.72,1.15,4,4,0,0,1-1.16-.18,3.6,3.6,0,0,1-1-.42l.49-1.28a2.5,2.5,0,0,0,.77.32A3.42,3.42,0,0,0,31.21,73.82Zm-1-4a1.29,1.29,0,0,0,.35,1,1.31,1.31,0,0,0,.91.32,2.51,2.51,0,0,0,.92-.18,2.2,2.2,0,0,0,.74-.46q-.18-2-1.59-2a1.22,1.22,0,0,0-1,.42A1.41,1.41,0,0,0,30.25,69.81Z" style="fill:#bebebe"/><path d="M62.33,21.9a6.4,6.4,0,0,1-.26,2,3.27,3.27,0,0,1-.7,1.26,2.48,2.48,0,0,1-1.07.67,4.68,4.68,0,0,1-2.66,0,2.5,2.5,0,0,1-1.07-.66,3.19,3.19,0,0,1-.71-1.25,6.43,6.43,0,0,1-.26-2,7.54,7.54,0,0,1,.12-1.42,4.5,4.5,0,0,1,.34-1.07,2.8,2.8,0,0,1,.52-.76,2.53,2.53,0,0,1,.68-.5,3,3,0,0,1,.8-.27A4.9,4.9,0,0,1,59,17.8a4.48,4.48,0,0,1,1.32.19,2.5,2.5,0,0,1,1.07.66,3.2,3.2,0,0,1,.71,1.26A6.49,6.49,0,0,1,62.33,21.9Zm-5,0a6.64,6.64,0,0,0,.06,1,3.43,3.43,0,0,0,.17.7,1.5,1.5,0,0,0,.27.46,1.19,1.19,0,0,0,.34.27,1.21,1.21,0,0,0,.38.13,2.61,2.61,0,0,0,.41,0,2.17,2.17,0,0,0,.62-.08A1,1,0,0,0,60.1,24a2.07,2.07,0,0,0,.35-.78,6,6,0,0,0,.14-1.35,6.66,6.66,0,0,0-.07-1,3.34,3.34,0,0,0-.18-.71,1.44,1.44,0,0,0-.27-.46,1.12,1.12,0,0,0-.71-.37l-.38,0a2.33,2.33,0,0,0-.6.08,1,1,0,0,0-.52.34,2,2,0,0,0-.36.78A5.66,5.66,0,0,0,57.35,21.9Z" style="fill:#bebebe"/><path d="M16.15,56.95V55.61h5.19v1.34Zm0,2.3V57.91h5.19v1.34Z" style="fill:#bebebe"/><path d="M68.66,35.67V34.33h1.79V32.47h1.48v1.86h1.92v1.34H71.93v2H70.45v-2Z" style="fill:#bebebe"/><path d="M32.48,94.79,1.94,56.24,19.76,12.09,68.43,5.27,98,43.52,80.16,87.65ZM4.23,55.91l29.1,36.73,45.4-6.8,17-42L67.56,7.41l-46.38,6.5Z" style="fill:#bebebe"/></svg>