<svg xmlns="http://www.w3.org/2000/svg" viewBox="0 0 28.5 28.5"><title>logo</title><path d="M6.229,19.341a11.285,11.285,0,0,1-3.3-8.019h0A11.355,11.355,0,0,1,6.229,3.3h0A11.285,11.285,0,0,1,14.248,0h0a11.355,11.355,0,0,1,8.019,3.3h0a11.285,11.285,0,0,1,3.3,8.019h0a11.355,11.355,0,0,1-3.3,8.019h0a11.285,11.285,0,0,1-8.019,3.3h0a11.217,11.217,0,0,1-8.019-3.3ZM9.295,6.408a6.921,6.921,0,0,0-2.044,4.914h0a6.921,6.921,0,0,0,2.044,4.914h0a6.921,6.921,0,0,0,4.914,2.044h0a6.921,6.921,0,0,0,4.914-2.044h0a6.921,6.921,0,0,0,2.044-4.914h0a6.921,6.921,0,0,0-2.044-4.914h0a6.921,6.921,0,0,0-4.914-2.044h0A7.089,7.089,0,0,0,9.295,6.408Z" style="fill:#bebebe"/><path d="M5.838,28.5V24.137H22.584V28.5Z" style="fill:#bebebe"/></svg>