<svg version="1.1"
	 xmlns="http://www.w3.org/2000/svg" x="0px" y="0px" viewBox="0 0 100 100"
	 style="enable-background:new 0 0 100 100;" xml:space="preserve">
<style type="text/css">
	.st0{fill:#bebebe;}
</style>
	<circle class="st0" cx="50" cy="50" r="10.7"/>
	<path class="st0" d="M71.9,26c0-1.4-0.1-2.8-0.2-4.2c0.6-0.6,1.1-1.3,1.3-2.2c0.4-2-0.6-3.9-2.4-4.7C68.9,7,65.6,1.7,60.8,0.7
		C54.1-0.8,46.4,6.5,40.2,19c-12.3-6.6-22.8-8.1-27.5-3.1v0C8.1,21,10.6,31.3,18.3,43C6.4,50.4-0.2,58.7,1.9,65.3
		c1.2,3.9,5.3,6.5,11.3,7.8c0.3,1.6,1.5,2.9,3.2,3.3c2,0.4,3.9-0.6,4.7-2.3c2.2,0.1,4.6,0.1,7.1-0.1c0.5,14,4.4,23.8,11.1,25.3
		c6.7,1.5,14.4-5.8,20.7-18.4c12.3,6.6,22.8,8.1,27.5,3.1v0c2.5-2.8,2.9-7.1,1.5-12.3c0.5-0.5,0.9-1.2,1.1-2
		c0.5-2.2-0.9-4.4-3.2-4.9c-0.2,0-0.4-0.1-0.6-0.1c-1.2-2.5-2.7-5.1-4.4-7.7c11.9-7.4,18.5-15.7,16.4-22.2
		C96,28.2,85.9,25.2,71.9,26z M70.4,46.6c2.8,3.2,5.2,6.3,7.1,9.3c-3,1.9-6.4,3.7-10.3,5.4c0.6-2.3,1.2-4.7,1.8-7.1
		C69.6,51.6,70,49.1,70.4,46.6z M66.3,53.6c-0.7,3.2-1.5,6.3-2.4,9.1c-2.8,1.1-5.7,2.2-8.9,3.2c-3.2,1-6.2,1.8-9.1,2.5
		c-2.3-1.8-4.8-3.8-7.2-6.1c-2.6-2.3-4.9-4.7-7-6.9c0.4-2.9,0.9-5.9,1.6-9c0.7-3.3,1.5-6.4,2.4-9.3c2.8-1.2,5.8-2.3,9-3.3
		c3.2-1,6.3-1.9,9.3-2.5c2.4,1.9,4.9,3.9,7.4,6.2c2.4,2.2,4.5,4.3,6.5,6.5C67.6,47,67,50.2,66.3,53.6z M68.4,40.7
		c-1.7-1.7-3.4-3.4-5.3-5.1c-2-1.8-3.9-3.4-5.9-5c4.2-0.8,8.1-1.3,11.6-1.5C69,32.6,68.8,36.5,68.4,40.7z M59.5,6.5
		c2.9,0.6,5.5,3.7,7.2,8.7c-0.9,0.6-1.6,1.5-1.8,2.6c-0.5,2.2,0.9,4.4,3.2,4.9c0.1,0,0.2,0,0.4,0c0.1,1.1,0.3,2.3,0.3,3.5
		c-4.4,0.4-9.1,1.2-14,2.3c-4.1-3.1-8.1-5.8-12-8.1C48.4,10.3,54.9,5.5,59.5,6.5z M41.4,23c3.2,1.7,6.6,3.8,10.2,6.4
		c-2.5,0.6-4.9,1.3-7.5,2.1c-2.5,0.8-5,1.7-7.3,2.5C38.2,29.9,39.8,26.2,41.4,23z M17.1,20c3.2-3.5,11.3-3.3,21.8,1.7
		c-1.9,4.1-3.6,8.6-5.1,13.5c-4.7,1.9-9,4-12.8,6.2C15,31.4,13.9,23.5,17.1,20z M28.1,70.8c-2.6,0-5-0.1-7.1-0.3
		c-0.5-1.1-1.5-1.9-2.8-2.2c-1.3-0.3-2.5,0.1-3.4,0.8c-3.8-1.3-6.2-3.3-6.9-5.7c-1.4-4.5,2.7-11.3,12.2-17.9
		c2.6,3.7,5.7,7.4,9.1,11.2C28.4,61.6,28.1,66.4,28.1,70.8z M22.5,43.8c3-1.9,6.5-3.7,10.4-5.5c-0.7,2.4-1.3,4.9-1.9,7.5
		c-0.5,2.4-1,4.8-1.4,7.2C26.8,49.8,24.5,46.7,22.5,43.8z M31.3,59c1.8,1.8,3.6,3.6,5.6,5.4c1.8,1.7,3.7,3.3,5.6,4.8
		c-4.2,0.8-8,1.3-11.6,1.5C30.7,67.1,30.9,63.2,31.3,59z M40.5,93.3c-4.6-1-8.5-8-9.4-19.5c4.5-0.4,9.2-1.2,14.2-2.3
		c4,3.1,7.9,5.7,11.8,8C51.4,89.5,45.1,94.3,40.5,93.3z M58.5,76.7c-3-1.6-6.3-3.7-9.6-6.1c2.3-0.6,4.7-1.3,7-2
		c2.4-0.8,4.7-1.6,6.9-2.4C61.5,70.1,60,73.6,58.5,76.7z M82.8,66c-0.5,0.5-0.9,1.2-1,1.9c-0.5,2.1,0.7,4.1,2.7,4.8
		c0.3,3.1-0.3,5.6-1.7,7.2c0,0,0,0,0,0c-3.2,3.5-11.1,3.2-21.5-1.8c1.8-4,3.5-8.5,5-13.3c4.7-1.9,9.1-4.1,13-6.3
		C80.7,61.1,82,63.7,82.8,66z M79.9,54.4c-2.6-3.6-5.6-7.3-9-11c0.7-5.1,1-9.9,1-14.4C83.6,28.8,91,32,92.5,36.5
		C93.9,41,89.6,47.8,79.9,54.4z"/>
</svg>
