<svg version="1.1"
	 xmlns="http://www.w3.org/2000/svg" x="0px" y="0px" viewBox="0 0 100 100"
	 style="enable-background:new 0 0 100 100;" xml:space="preserve">
<style type="text/css">
	.st0{fill:#bebebe;}
</style>
<circle class="st0" cx="50" cy="2.3" r="1.8"/>
<path class="st0" d="M48.7,4.8h2.7c1.1,0,1.9,0.9,1.9,1.9v3.9c0,0.9-0.6,1.7-1.5,1.8v4.2c0,0.8-0.6,1.4-1.4,1.4l0,0h-0.6
	c-0.8,0-1.4-0.6-1.4-1.4l0,0v-4.2c-1-0.2-1.6-1-1.6-1.9V6.8C46.8,5.7,47.6,4.8,48.7,4.8z"/>
<ellipse transform="matrix(0.9511 -0.309 0.309 0.9511 0.2791 11.1465)" class="st0" cx="35.3" cy="4.7" rx="1.8" ry="1.8"/>
<path class="st0" d="M34.8,7.4l2.6-0.9c1-0.3,2,0.2,2.4,1.2l1.2,3.7c0.3,0.9-0.1,1.8-0.9,2.3l1.3,4c0.2,0.8-0.2,1.5-0.9,1.7l0,0
	L40,19.6c-0.8,0.2-1.5-0.2-1.7-0.9l0,0l-1.3-4c-0.9,0.1-1.7-0.4-2-1.3l-1.2-3.7C33.2,8.8,33.7,7.7,34.8,7.4z"/>
<ellipse transform="matrix(0.809 -0.5878 0.5878 0.809 -2.5742 15.1237)" class="st0" cx="22" cy="11.5" rx="1.8" ry="1.8"/>
<path class="st0" d="M22.4,14.2l2.2-1.6c0.9-0.6,2-0.4,2.7,0.4l2.3,3.1c0.5,0.8,0.4,1.7-0.1,2.4l2.5,3.5c0.4,0.6,0.3,1.5-0.3,1.9
	l0,0L31,24.2c-0.6,0.4-1.5,0.3-1.9-0.3l0,0l-2.5-3.5c-0.9,0.4-1.8,0.1-2.4-0.6L22,16.9C21.3,16,21.5,14.8,22.4,14.2z"/>
<ellipse transform="matrix(0.5878 -0.809 0.809 0.5878 -13.0467 18.315)" class="st0" cx="11.4" cy="22" rx="1.8" ry="1.8"/>
<path class="st0" d="M12.7,24.5l1.6-2.2c0.6-0.9,1.8-1.1,2.7-0.4l3.1,2.3c0.8,0.5,1,1.5,0.6,2.4l3.5,2.5c0.6,0.4,0.8,1.3,0.3,1.9
	l0,0l-0.3,0.5c-0.4,0.6-1.3,0.8-1.9,0.3l0,0l-3.5-2.5c-0.6,0.6-1.7,0.6-2.4,0.1l-3.1-2.3C12.3,26.6,12,25.4,12.7,24.5z"/>
<ellipse transform="matrix(0.309 -0.9511 0.9511 0.309 -30.2881 28.9187)" class="st0" cx="4.8" cy="35.3" rx="1.8" ry="1.8"/>
<path class="st0" d="M6.6,37.3l0.9-2.6c0.3-1,1.4-1.5,2.4-1.2l3.7,1.2c0.9,0.3,1.4,1.2,1.3,2l4,1.3c0.8,0.2,1.2,1.1,0.9,1.7l0,0
	l-0.2,0.5c-0.2,0.8-1.1,1.2-1.7,0.9l0,0l-4-1.3c-0.4,0.8-1.4,1.2-2.3,0.9l-3.7-1.2C6.9,39.4,6.3,38.4,6.6,37.3z"/>
<circle class="st0" cx="2.3" cy="50" r="1.8"/>
<path class="st0" d="M4.8,51.3v-2.7c0-1.1,0.9-1.9,1.9-1.9h3.9c0.9,0,1.7,0.6,1.8,1.5h4.2c0.8,0,1.4,0.6,1.4,1.4l0,0v0.6
	c0,0.8-0.6,1.4-1.4,1.4l0,0h-4.2c-0.2,1-1,1.6-1.9,1.6H6.8C5.7,53.2,4.8,52.4,4.8,51.3z"/>
<ellipse transform="matrix(0.9511 -0.309 0.309 0.9511 -19.7539 4.614)" class="st0" cx="4.7" cy="64.7" rx="1.8" ry="1.8"/>
<path class="st0" d="M7.4,65.2l-0.9-2.6c-0.3-1,0.2-2,1.2-2.4l3.7-1.2c0.9-0.3,1.8,0.1,2.3,0.9l4-1.3c0.8-0.2,1.5,0.2,1.7,0.9l0,0
	l0.2,0.5c0.2,0.8-0.2,1.5-0.9,1.7l0,0l-4,1.3c0.1,0.9-0.4,1.7-1.3,2l-3.7,1.2C8.8,66.8,7.7,66.3,7.4,65.2z"/>
<ellipse transform="matrix(0.809 -0.5878 0.5878 0.809 -43.6552 21.6744)" class="st0" cx="11.5" cy="78" rx="1.8" ry="1.8"/>
<path class="st0" d="M14.2,77.6l-1.6-2.2c-0.6-0.9-0.4-2,0.4-2.7l3.1-2.3c0.8-0.5,1.7-0.4,2.4,0.1l3.5-2.5c0.6-0.4,1.5-0.3,1.9,0.3
	l0,0l0.3,0.5c0.4,0.6,0.3,1.5-0.3,1.9l0,0l-3.5,2.5c0.4,0.9,0.1,1.8-0.6,2.4L16.9,78C16,78.7,14.8,78.5,14.2,77.6z"/>
<ellipse transform="matrix(0.5878 -0.809 0.809 0.5878 -62.5873 54.2655)" class="st0" cx="22" cy="88.6" rx="1.8" ry="1.8"/>
<path class="st0" d="M24.5,87.3l-2.2-1.6C21.5,85,21.3,83.9,22,83l2.3-3.1c0.5-0.8,1.5-1,2.4-0.6l2.5-3.5c0.4-0.6,1.3-0.8,1.9-0.3
	l0,0l0.5,0.3c0.6,0.4,0.8,1.3,0.3,1.9l0,0l-2.5,3.5c0.6,0.6,0.6,1.7,0.1,2.4l-2.3,3.1C26.6,87.7,25.4,88,24.5,87.3z"/>
<ellipse transform="matrix(0.309 -0.9511 0.9511 0.309 -66.1828 99.3924)" class="st0" cx="35.3" cy="95.2" rx="1.8" ry="1.8"/>
<path class="st0" d="M37.3,93.4l-2.6-0.9c-1-0.3-1.5-1.4-1.2-2.4l1.2-3.7c0.3-0.9,1.2-1.4,2-1.3l1.3-4c0.2-0.8,1.1-1.2,1.7-0.9l0,0
	l0.5,0.2c0.8,0.2,1.2,1.1,0.9,1.7l0,0l-1.3,4c0.8,0.4,1.2,1.4,0.9,2.3l-1.2,3.7C39.4,93.1,38.4,93.7,37.3,93.4z"/>
<circle class="st0" cx="50" cy="97.7" r="1.8"/>
<path class="st0" d="M51.3,95.2h-2.7c-1.1,0-1.9-0.9-1.9-1.9v-3.9c0-0.9,0.6-1.7,1.5-1.8v-4.2c0-0.8,0.6-1.4,1.4-1.4l0,0h0.6
	c0.8,0,1.4,0.6,1.4,1.4l0,0v4.2c0.9,0.2,1.5,1,1.5,1.8v3.9C53.2,94.3,52.4,95.2,51.3,95.2z"/>
<ellipse transform="matrix(0.9511 -0.309 0.309 0.9511 -26.2864 24.647)" class="st0" cx="64.7" cy="95.3" rx="1.8" ry="1.8"/>
<path class="st0" d="M65.2,92.6l-2.6,0.9c-1,0.3-2-0.2-2.4-1.2l-1.2-3.7c-0.3-0.9,0.1-1.8,0.9-2.3l-1.3-4.1
	c-0.2-0.8,0.2-1.5,0.9-1.7l0,0l0.5-0.2c0.8-0.2,1.5,0.2,1.7,0.9l0,0l1.3,4c0.9-0.1,1.7,0.4,2,1.3l1.2,3.7
	C66.8,91.2,66.3,92.3,65.2,92.6z"/>
<ellipse transform="matrix(0.809 -0.5878 0.5878 0.809 -37.1045 62.7554)" class="st0" cx="78" cy="88.5" rx="1.8" ry="1.8"/>
<path class="st0" d="M77.6,85.8l-2.2,1.6c-0.9,0.6-2,0.4-2.7-0.4l-2.3-3.1c-0.5-0.8-0.4-1.7,0.1-2.4L68.1,78
	c-0.4-0.6-0.3-1.5,0.3-1.9l0,0l0.5-0.3c0.6-0.4,1.5-0.3,1.9,0.3l0,0l2.5,3.5c0.9-0.4,1.8-0.1,2.4,0.6l2.3,3.1
	C78.7,84,78.5,85.2,77.6,85.8z"/>
<ellipse transform="matrix(0.5878 -0.809 0.809 0.5878 -26.6369 103.8062)" class="st0" cx="88.5" cy="78" rx="1.8" ry="1.8"/>
<path class="st0" d="M87.3,75.5l-1.6,2.2C85,78.5,83.9,78.7,83,78l-3.1-2.3c-0.8-0.5-1-1.5-0.6-2.4l-3.5-2.5
	c-0.6-0.4-0.8-1.3-0.3-1.9l0,0l0.3-0.5c0.4-0.6,1.3-0.8,1.9-0.3l0,0l3.5,2.5c0.6-0.6,1.7-0.6,2.4-0.1l3.1,2.3
	C87.7,73.4,88,74.6,87.3,75.5z"/>
<ellipse transform="matrix(0.309 -0.9511 0.9511 0.309 4.2909 135.2871)" class="st0" cx="95.2" cy="64.7" rx="1.8" ry="1.8"/>
<path class="st0" d="M93.4,62.7l-0.9,2.6c-0.3,1-1.4,1.5-2.4,1.2l-3.7-1.2c-0.9-0.3-1.4-1.2-1.3-2l-4-1.3c-0.8-0.2-1.2-1.1-0.9-1.7
	l0,0l0.2-0.5c0.2-0.8,1.1-1.2,1.7-0.9l0,0l4,1.3c0.4-0.8,1.4-1.2,2.3-0.9l3.7,1.2C93.1,60.6,93.7,61.6,93.4,62.7z"/>
<circle class="st0" cx="97.7" cy="50" r="1.8"/>
<path class="st0" d="M95.2,48.7v2.7c0,1.1-0.9,1.9-1.9,1.9h-3.9c-0.9,0-1.7-0.6-1.8-1.5h-4.2c-0.8,0-1.4-0.6-1.4-1.4l0,0v-0.6
	c0-0.8,0.6-1.4,1.4-1.4l0,0h4.2c0.2-0.9,1-1.5,1.8-1.5h3.9C94.3,46.8,95.2,47.6,95.2,48.7z"/>
<ellipse transform="matrix(0.9511 -0.309 0.309 0.9511 -6.2534 31.1795)" class="st0" cx="95.3" cy="35.3" rx="1.8" ry="1.8"/>
<path class="st0" d="M92.6,34.8l0.9,2.6c0.3,1-0.2,2-1.2,2.4l-3.7,1.2c-0.9,0.3-1.8-0.1-2.3-0.9l-4.1,1.3c-0.8,0.2-1.5-0.2-1.7-0.9
	l0,0L80.3,40c-0.2-0.8,0.2-1.5,0.9-1.7l0,0l4-1.3c-0.1-0.9,0.4-1.7,1.3-2l3.7-1.2C91.2,33.2,92.3,33.7,92.6,34.8z"/>
<ellipse transform="matrix(0.809 -0.5878 0.5878 0.809 3.9765 56.2047)" class="st0" cx="88.5" cy="22" rx="1.8" ry="1.8"/>
<path class="st0" d="M85.8,22.4l1.6,2.2c0.6,0.9,0.4,2-0.4,2.7l-3.1,2.3c-0.8,0.5-1.7,0.4-2.4-0.1L78,31.9c-0.6,0.4-1.5,0.3-1.9-0.3
	l0,0L75.8,31c-0.4-0.6-0.3-1.5,0.3-1.9l0,0l3.5-2.5c-0.4-0.9-0.1-1.8,0.6-2.4l3.1-2.3C84,21.3,85.2,21.5,85.8,22.4z"/>
<ellipse transform="matrix(0.5878 -0.809 0.809 0.5878 22.9039 67.8558)" class="st0" cx="78" cy="11.5" rx="1.8" ry="1.8"/>
<path class="st0" d="M75.5,12.7l2.2,1.6c0.9,0.6,1.1,1.8,0.4,2.7l-2.3,3.1c-0.5,0.8-1.5,1-2.4,0.6l-2.5,3.5
	c-0.4,0.6-1.3,0.8-1.9,0.3l0,0l-0.5-0.3c-0.6-0.4-0.8-1.3-0.3-1.9l0,0l2.5-3.5c-0.6-0.6-0.6-1.7-0.1-2.4l2.3-3.1
	C73.4,12.3,74.6,12,75.5,12.7z"/>
<ellipse transform="matrix(0.309 -0.9511 0.9511 0.309 40.1856 64.8135)" class="st0" cx="64.7" cy="4.8" rx="1.8" ry="1.8"/>
<path class="st0" d="M62.7,6.6l2.6,0.9c1,0.3,1.5,1.4,1.2,2.4l-1.2,3.7c-0.3,0.9-1.2,1.4-2,1.3l-1.3,4c-0.2,0.8-1.1,1.2-1.7,0.9l0,0
	l-0.5-0.2c-0.8-0.2-1.2-1.1-0.9-1.7l0,0l1.3-4c-0.8-0.4-1.2-1.4-0.9-2.3l1.2-3.7C60.6,6.9,61.6,6.3,62.7,6.6z"/>
<circle class="st0" cx="50" cy="31.8" r="4.9"/>
<path class="st0" d="M46.4,38.2h7.1c2.8,0,5,2.3,5,5v10.1c0,2.4-1.7,4.4-4.1,5v11.1c0,2-1.6,3.7-3.7,3.7l0,0h-1.6
	c-2,0-3.7-1.6-3.7-3.7l0,0V58.3c-2.4-0.4-4.1-2.5-4.1-5V43.2C41.5,40.4,43.7,38.2,46.4,38.2z"/>
</svg>
