<svg version="1.1"
	 xmlns="http://www.w3.org/2000/svg" x="0px" y="0px" viewBox="0 0 100 100"
	 style="enable-background:new 0 0 100 100;" xml:space="preserve">
<style type="text/css">
	.st0{fill:black;}
</style>
<path class="st0" d="M76.6,64.1c9-10.2,16.4-22.2,16.4-34C93,13.8,80.7,0.5,50,0.5c0,0,0,0-0.1,0c0,0,0,0,0,0c0,0,0,0,0,0
	C19.3,0.5,6.8,13.7,6.8,30.1c0,14.2,9.9,27.6,21.6,38.3l16.4,19.9h-2.9v3.1h1.7v6.1c0,1.1,1.1,2,2.4,2h10.7c1.3,0,2.4-0.9,2.4-2
	v-6.1h1.7v-3.1h-3.3L76.6,64.1z M53.4,78.9c2.4,0,4.8,0,7.1,0l-7.3,9.3h-3.8l-7.7-9.3c1.9,0,3.8,0,5.6,0
	C49.3,78.9,51.4,78.9,53.4,78.9z M78.9,30c0,17.1-11.8,34.5-21.3,45.7c-1,0-2,0-3.1,0c4.1-12,8.6-28.9,8.6-45.6
	c0-12.6-2.2-23.3-7.6-27.6C72.1,4.6,78.9,16.1,78.9,30z M44.2,2.5c-5.3,4.3-7.6,15-7.6,27.5c0,17.7,4.7,34,9.4,45.7
	c-0.6,0-1.2,0-1.8,0c-11-11-23.4-27.7-23.4-45.8C20.8,16.1,27.7,4.6,44.2,2.5z"/>
</svg>
